%TF.GenerationSoftware,KiCad,Pcbnew,10.0.6*%
%TF.CreationDate,2026-09-10T16:16:09+09:00*%
%TF.ProjectId,astra-board,61737472-612d-4626-9f61-72642e6b6963,rev?*%
%TF.SameCoordinates,Original*%
%TF.FileFunction,Copper,L1,Top*%
%TF.FilePolarity,Positive*%
%FSLAX46Y46*%
G04 Gerber Fmt 4.6, Leading zero omitted, Abs format (unit mm)*
G04 Created by KiCad (PCBNEW 10.0.6) date 2026-09-10 16:16:09*
%MOMM*%
%LPD*%
G01*
G04 APERTURE LIST*
G04 Aperture macros list*
%AMRoundRect*
0 Rectangle with rounded corners*
0 $1 Rounding radius*
0 $2 $3 $4 $5 $6 $7 $8 $9 X,Y pos of 4 corners*
0 Add a 4 corners polygon primitive as box body*
4,1,4,$2,$3,$4,$5,$6,$7,$8,$9,$2,$3,0*
0 Add four circle primitives for the rounded corners*
1,1,$1+$1,$2,$3*
1,1,$1+$1,$4,$5*
1,1,$1+$1,$6,$7*
1,1,$1+$1,$8,$9*
0 Add four rect primitives between the rounded corners*
20,1,$1+$1,$2,$3,$4,$5,0*
20,1,$1+$1,$4,$5,$6,$7,0*
20,1,$1+$1,$6,$7,$8,$9,0*
20,1,$1+$1,$8,$9,$2,$3,0*%
G04 Aperture macros list end*
%TA.AperFunction,SMDPad,CuDef*%
%ADD10RoundRect,0.090000X-0.660000X-0.360000X0.660000X-0.360000X0.660000X0.360000X-0.660000X0.360000X0*%
%TD*%
%TA.AperFunction,SMDPad,CuDef*%
%ADD11RoundRect,0.150000X-0.587500X-0.150000X0.587500X-0.150000X0.587500X0.150000X-0.587500X0.150000X0*%
%TD*%
%TA.AperFunction,ComponentPad*%
%ADD12R,1.700000X1.700000*%
%TD*%
%TA.AperFunction,ComponentPad*%
%ADD13C,1.700000*%
%TD*%
%TA.AperFunction,SMDPad,CuDef*%
%ADD14RoundRect,0.200000X-0.200000X-0.275000X0.200000X-0.275000X0.200000X0.275000X-0.200000X0.275000X0*%
%TD*%
%TA.AperFunction,SMDPad,CuDef*%
%ADD15RoundRect,0.250000X0.445000X-0.457500X0.445000X0.457500X-0.445000X0.457500X-0.445000X-0.457500X0*%
%TD*%
%TA.AperFunction,SMDPad,CuDef*%
%ADD16RoundRect,0.250000X-0.457500X-0.445000X0.457500X-0.445000X0.457500X0.445000X-0.457500X0.445000X0*%
%TD*%
%TA.AperFunction,SMDPad,CuDef*%
%ADD17RoundRect,0.225000X-0.225000X-0.250000X0.225000X-0.250000X0.225000X0.250000X-0.225000X0.250000X0*%
%TD*%
%TA.AperFunction,SMDPad,CuDef*%
%ADD18RoundRect,0.150000X-0.512500X-0.150000X0.512500X-0.150000X0.512500X0.150000X-0.512500X0.150000X0*%
%TD*%
%TA.AperFunction,SMDPad,CuDef*%
%ADD19RoundRect,0.250000X-0.275000X-0.750000X0.275000X-0.750000X0.275000X0.750000X-0.275000X0.750000X0*%
%TD*%
%TA.AperFunction,SMDPad,CuDef*%
%ADD20RoundRect,0.150000X0.625000X-0.150000X0.625000X0.150000X-0.625000X0.150000X-0.625000X-0.150000X0*%
%TD*%
%TA.AperFunction,SMDPad,CuDef*%
%ADD21RoundRect,0.250000X0.650000X-0.350000X0.650000X0.350000X-0.650000X0.350000X-0.650000X-0.350000X0*%
%TD*%
%TA.AperFunction,SMDPad,CuDef*%
%ADD22RoundRect,0.375000X-0.625000X-0.375000X0.625000X-0.375000X0.625000X0.375000X-0.625000X0.375000X0*%
%TD*%
%TA.AperFunction,SMDPad,CuDef*%
%ADD23RoundRect,0.500000X-0.500000X-1.400000X0.500000X-1.400000X0.500000X1.400000X-0.500000X1.400000X0*%
%TD*%
%TA.AperFunction,SMDPad,CuDef*%
%ADD24R,1.500000X0.900000*%
%TD*%
%TA.AperFunction,HeatsinkPad*%
%ADD25C,0.600000*%
%TD*%
%TA.AperFunction,HeatsinkPad*%
%ADD26R,2.900000X2.900000*%
%TD*%
%TA.AperFunction,SMDPad,CuDef*%
%ADD27RoundRect,0.150000X-0.575000X0.150000X-0.575000X-0.150000X0.575000X-0.150000X0.575000X0.150000X0*%
%TD*%
%TA.AperFunction,SMDPad,CuDef*%
%ADD28RoundRect,0.075000X-0.650000X0.075000X-0.650000X-0.075000X0.650000X-0.075000X0.650000X0.075000X0*%
%TD*%
%TA.AperFunction,ComponentPad*%
%ADD29O,2.100000X1.000000*%
%TD*%
%TA.AperFunction,ComponentPad*%
%ADD30O,1.600000X1.000000*%
%TD*%
%TA.AperFunction,ComponentPad*%
%ADD31R,2.000000X2.000000*%
%TD*%
%TA.AperFunction,ComponentPad*%
%ADD32C,2.000000*%
%TD*%
%TA.AperFunction,ViaPad*%
%ADD33C,0.600000*%
%TD*%
%TA.AperFunction,Conductor*%
%ADD34C,0.200000*%
%TD*%
G04 APERTURE END LIST*
D10*
%TO.P,D6,1*%
%TO.N,+5V*%
X138550000Y-134850000D03*
%TO.P,D6,2*%
%TO.N,LED6*%
X138550000Y-138150000D03*
%TO.P,D6,3*%
%TO.N,GND*%
X143450000Y-138150000D03*
%TO.P,D6,4*%
%TO.N,LED5*%
X143450000Y-134850000D03*
%TD*%
D11*
%TO.P,Q1,1*%
%TO.N,BUZZ_BASE*%
X122062500Y-116650000D03*
%TO.P,Q1,2*%
%TO.N,GND*%
X122062500Y-118550000D03*
%TO.P,Q1,3*%
%TO.N,BUZZ_LOW*%
X123937500Y-117600000D03*
%TD*%
D12*
%TO.P,J3,1*%
%TO.N,GND*%
X122000000Y-114000000D03*
D13*
%TO.P,J3,2*%
%TO.N,+3V3*%
X124540000Y-114000000D03*
%TO.P,J3,3*%
%TO.N,SCL*%
X127080000Y-114000000D03*
%TO.P,J3,4*%
%TO.N,SDA*%
X129620000Y-114000000D03*
%TD*%
D14*
%TO.P,R9,1*%
%TO.N,PIXEL*%
X120875000Y-128000000D03*
%TO.P,R9,2*%
%TO.N,GND*%
X122525000Y-128000000D03*
%TD*%
D15*
%TO.P,C5,1*%
%TO.N,+3V3*%
X127000000Y-108652500D03*
%TO.P,C5,2*%
%TO.N,GND*%
X127000000Y-105947500D03*
%TD*%
D16*
%TO.P,C6,1*%
%TO.N,+3V3*%
X118647500Y-111000000D03*
%TO.P,C6,2*%
%TO.N,GND*%
X121352500Y-111000000D03*
%TD*%
D14*
%TO.P,R1,1*%
%TO.N,CC1*%
X109175000Y-115200000D03*
%TO.P,R1,2*%
%TO.N,GND*%
X110825000Y-115200000D03*
%TD*%
%TO.P,R4,1*%
%TO.N,+3V3*%
X129175000Y-121300000D03*
%TO.P,R4,2*%
%TO.N,BOOT*%
X130825000Y-121300000D03*
%TD*%
%TO.P,R10,1*%
%TO.N,PIXEL_5V*%
X120875000Y-130500000D03*
%TO.P,R10,2*%
%TO.N,LED0*%
X122525000Y-130500000D03*
%TD*%
D17*
%TO.P,C12,1*%
%TO.N,+5V*%
X125425000Y-132800000D03*
%TO.P,C12,2*%
%TO.N,GND*%
X126975000Y-132800000D03*
%TD*%
%TO.P,C1,1*%
%TO.N,+3V3*%
X132025000Y-107200000D03*
%TO.P,C1,2*%
%TO.N,GND*%
X133575000Y-107200000D03*
%TD*%
%TO.P,C8,1*%
%TO.N,+5V*%
X120925000Y-121800000D03*
%TO.P,C8,2*%
%TO.N,GND*%
X122475000Y-121800000D03*
%TD*%
D18*
%TO.P,U4,1*%
%TO.N,USB_CONN_P*%
X109462500Y-110750000D03*
%TO.P,U4,2*%
%TO.N,GND*%
X109462500Y-111700000D03*
%TO.P,U4,3*%
%TO.N,USB_CONN_N*%
X109462500Y-112650000D03*
%TO.P,U4,4*%
X111737500Y-112650000D03*
%TO.P,U4,5*%
%TO.N,+5V*%
X111737500Y-111700000D03*
%TO.P,U4,6*%
%TO.N,USB_CONN_P*%
X111737500Y-110750000D03*
%TD*%
D10*
%TO.P,D7,1*%
%TO.N,+5V*%
X145950000Y-134850000D03*
%TO.P,D7,2*%
%TO.N,LED7*%
X145950000Y-138150000D03*
%TO.P,D7,3*%
%TO.N,GND*%
X150850000Y-138150000D03*
%TO.P,D7,4*%
%TO.N,LED6*%
X150850000Y-134850000D03*
%TD*%
D19*
%TO.P,SW4,1*%
%TO.N,BOOT*%
X122775000Y-103000000D03*
%TO.P,SW4,2*%
%TO.N,GND*%
X127225000Y-103000000D03*
%TD*%
D18*
%TO.P,U3,1*%
%TO.N,GND*%
X120562500Y-123550000D03*
%TO.P,U3,2*%
%TO.N,PIXEL*%
X120562500Y-124500000D03*
%TO.P,U3,3*%
%TO.N,GND*%
X120562500Y-125450000D03*
%TO.P,U3,4*%
%TO.N,PIXEL_5V*%
X122837500Y-125450000D03*
%TO.P,U3,5*%
%TO.N,+5V*%
X122837500Y-123550000D03*
%TD*%
D14*
%TO.P,R2,1*%
%TO.N,CC2*%
X114175000Y-112650000D03*
%TO.P,R2,2*%
%TO.N,GND*%
X115825000Y-112650000D03*
%TD*%
D19*
%TO.P,SW1,1*%
%TO.N,BTN1*%
X131775000Y-124000000D03*
%TO.P,SW1,2*%
%TO.N,GND*%
X136225000Y-124000000D03*
%TD*%
D20*
%TO.P,J2,1*%
%TO.N,GND*%
X154600000Y-127500000D03*
%TO.P,J2,2*%
%TO.N,+3V3*%
X154600000Y-126500000D03*
%TO.P,J2,3*%
%TO.N,SDA*%
X154600000Y-125500000D03*
%TO.P,J2,4*%
%TO.N,SCL*%
X154600000Y-124500000D03*
D21*
%TO.P,J2,MP*%
%TO.N,N/C*%
X158475000Y-128800000D03*
X158475000Y-123200000D03*
%TD*%
D17*
%TO.P,C9,1*%
%TO.N,+5V*%
X103225000Y-132800000D03*
%TO.P,C9,2*%
%TO.N,GND*%
X104775000Y-132800000D03*
%TD*%
D22*
%TO.P,U2,1*%
%TO.N,GND*%
X112850000Y-103700000D03*
%TO.P,U2,2*%
%TO.N,+3V3*%
X112850000Y-106000000D03*
D23*
X119150000Y-106000000D03*
D22*
%TO.P,U2,3*%
%TO.N,+5V*%
X112850000Y-108300000D03*
%TD*%
D14*
%TO.P,R11,1*%
%TO.N,BUZZ*%
X125675000Y-117500000D03*
%TO.P,R11,2*%
%TO.N,BUZZ_BASE*%
X127325000Y-117500000D03*
%TD*%
D24*
%TO.P,U1,1*%
%TO.N,+3V3*%
X136250000Y-107200000D03*
%TO.P,U1,2*%
%TO.N,EN*%
X136250000Y-108700000D03*
%TO.P,U1,3*%
%TO.N,SDA*%
X136250000Y-110200000D03*
%TO.P,U1,4*%
%TO.N,SCL*%
X136250000Y-111700000D03*
%TO.P,U1,5*%
%TO.N,PIXEL*%
X136250000Y-113200000D03*
%TO.P,U1,6*%
%TO.N,BUZZ*%
X136250000Y-114700000D03*
%TO.P,U1,7*%
%TO.N,IO8*%
X136250000Y-116200000D03*
%TO.P,U1,8*%
%TO.N,BOOT*%
X136250000Y-117700000D03*
%TO.P,U1,9*%
%TO.N,GND*%
X136250000Y-119200000D03*
%TO.P,U1,10*%
%TO.N,IO10*%
X153750000Y-119200000D03*
%TO.P,U1,11*%
%TO.N,RX*%
X153750000Y-117700000D03*
%TO.P,U1,12*%
%TO.N,TX*%
X153750000Y-116200000D03*
%TO.P,U1,13*%
%TO.N,USB_N*%
X153750000Y-114700000D03*
%TO.P,U1,14*%
%TO.N,USB_P*%
X153750000Y-113200000D03*
%TO.P,U1,15*%
%TO.N,IO3*%
X153750000Y-111700000D03*
%TO.P,U1,16*%
%TO.N,IO2*%
X153750000Y-110200000D03*
%TO.P,U1,17*%
%TO.N,BTN2*%
X153750000Y-108700000D03*
%TO.P,U1,18*%
%TO.N,BTN1*%
X153750000Y-107200000D03*
D25*
%TO.P,U1,19*%
%TO.N,GND*%
X144860000Y-112850000D03*
X144860000Y-113950000D03*
X145410000Y-112300000D03*
X145410000Y-113400000D03*
X145410000Y-114500000D03*
X145960000Y-112850000D03*
D26*
X145960000Y-113400000D03*
D25*
X145960000Y-113950000D03*
X146510000Y-112300000D03*
X146510000Y-113400000D03*
X146510000Y-114500000D03*
X147060000Y-112850000D03*
X147060000Y-113950000D03*
%TD*%
D14*
%TO.P,R13,1*%
%TO.N,+5V*%
X125675000Y-122300000D03*
%TO.P,R13,2*%
%TO.N,BUZZ_LOW*%
X127325000Y-122300000D03*
%TD*%
D10*
%TO.P,D2,1*%
%TO.N,+5V*%
X108950000Y-134850000D03*
%TO.P,D2,2*%
%TO.N,LED2*%
X108950000Y-138150000D03*
%TO.P,D2,3*%
%TO.N,GND*%
X113850000Y-138150000D03*
%TO.P,D2,4*%
%TO.N,LED1*%
X113850000Y-134850000D03*
%TD*%
D14*
%TO.P,R15,1*%
%TO.N,USB_CONN_N*%
X114175000Y-114400000D03*
%TO.P,R15,2*%
%TO.N,USB_N*%
X115825000Y-114400000D03*
%TD*%
%TO.P,R5,1*%
%TO.N,+3V3*%
X133175000Y-121300000D03*
%TO.P,R5,2*%
%TO.N,IO2*%
X134825000Y-121300000D03*
%TD*%
%TO.P,R7,1*%
%TO.N,+3V3*%
X149175000Y-122000000D03*
%TO.P,R7,2*%
%TO.N,SDA*%
X150825000Y-122000000D03*
%TD*%
D17*
%TO.P,C2,1*%
%TO.N,EN*%
X132025000Y-117500000D03*
%TO.P,C2,2*%
%TO.N,GND*%
X133575000Y-117500000D03*
%TD*%
D19*
%TO.P,SW3,1*%
%TO.N,EN*%
X101775000Y-102500000D03*
%TO.P,SW3,2*%
%TO.N,GND*%
X106225000Y-102500000D03*
%TD*%
D10*
%TO.P,D3,1*%
%TO.N,+5V*%
X116350000Y-134850000D03*
%TO.P,D3,2*%
%TO.N,LED3*%
X116350000Y-138150000D03*
%TO.P,D3,3*%
%TO.N,GND*%
X121250000Y-138150000D03*
%TO.P,D3,4*%
%TO.N,LED2*%
X121250000Y-134850000D03*
%TD*%
%TO.P,D8,1*%
%TO.N,+5V*%
X153350000Y-134850000D03*
%TO.P,D8,2*%
%TO.N,N/C*%
X153350000Y-138150000D03*
%TO.P,D8,3*%
%TO.N,GND*%
X158250000Y-138150000D03*
%TO.P,D8,4*%
%TO.N,LED7*%
X158250000Y-134850000D03*
%TD*%
%TO.P,D4,1*%
%TO.N,+5V*%
X123750000Y-134850000D03*
%TO.P,D4,2*%
%TO.N,LED4*%
X123750000Y-138150000D03*
%TO.P,D4,3*%
%TO.N,GND*%
X128650000Y-138150000D03*
%TO.P,D4,4*%
%TO.N,LED3*%
X128650000Y-134850000D03*
%TD*%
%TO.P,D5,1*%
%TO.N,+5V*%
X131150000Y-134850000D03*
%TO.P,D5,2*%
%TO.N,LED5*%
X131150000Y-138150000D03*
%TO.P,D5,3*%
%TO.N,GND*%
X136050000Y-138150000D03*
%TO.P,D5,4*%
%TO.N,LED4*%
X136050000Y-134850000D03*
%TD*%
D14*
%TO.P,R6,1*%
%TO.N,+3V3*%
X137175000Y-121300000D03*
%TO.P,R6,2*%
%TO.N,IO8*%
X138825000Y-121300000D03*
%TD*%
D10*
%TO.P,D1,1*%
%TO.N,+5V*%
X101550000Y-134850000D03*
%TO.P,D1,2*%
%TO.N,LED1*%
X101550000Y-138150000D03*
%TO.P,D1,3*%
%TO.N,GND*%
X106450000Y-138150000D03*
%TO.P,D1,4*%
%TO.N,LED0*%
X106450000Y-134850000D03*
%TD*%
D27*
%TO.P,J1,A1*%
%TO.N,GND*%
X107045000Y-107750000D03*
%TO.P,J1,A4*%
%TO.N,+5V*%
X107045000Y-108550000D03*
D28*
%TO.P,J1,A5*%
%TO.N,CC1*%
X107045000Y-109750000D03*
%TO.P,J1,A6*%
%TO.N,USB_CONN_P*%
X107045000Y-110750000D03*
%TO.P,J1,A7*%
%TO.N,USB_CONN_N*%
X107045000Y-111250000D03*
%TO.P,J1,A8*%
%TO.N,N/C*%
X107045000Y-112250000D03*
D27*
%TO.P,J1,A9*%
%TO.N,+5V*%
X107045000Y-113450000D03*
%TO.P,J1,A12*%
%TO.N,GND*%
X107045000Y-114250000D03*
%TO.P,J1,B1*%
X107045000Y-114250000D03*
%TO.P,J1,B4*%
%TO.N,+5V*%
X107045000Y-113450000D03*
D28*
%TO.P,J1,B5*%
%TO.N,CC2*%
X107045000Y-112750000D03*
%TO.P,J1,B6*%
%TO.N,USB_CONN_P*%
X107045000Y-111750000D03*
%TO.P,J1,B7*%
%TO.N,USB_CONN_N*%
X107045000Y-110250000D03*
%TO.P,J1,B8*%
%TO.N,N/C*%
X107045000Y-109250000D03*
D27*
%TO.P,J1,B9*%
%TO.N,+5V*%
X107045000Y-108550000D03*
%TO.P,J1,B12*%
%TO.N,GND*%
X107045000Y-107750000D03*
D29*
%TO.P,J1,SH*%
X106130000Y-106680000D03*
D30*
X101950000Y-106680000D03*
D29*
X106130000Y-115320000D03*
D30*
X101950000Y-115320000D03*
%TD*%
D14*
%TO.P,R3,1*%
%TO.N,+3V3*%
X131975000Y-110200000D03*
%TO.P,R3,2*%
%TO.N,EN*%
X133625000Y-110200000D03*
%TD*%
D17*
%TO.P,C13,1*%
%TO.N,+5V*%
X132825000Y-132800000D03*
%TO.P,C13,2*%
%TO.N,GND*%
X134375000Y-132800000D03*
%TD*%
%TO.P,C10,1*%
%TO.N,+5V*%
X110625000Y-132800000D03*
%TO.P,C10,2*%
%TO.N,GND*%
X112175000Y-132800000D03*
%TD*%
D14*
%TO.P,R8,1*%
%TO.N,+3V3*%
X149175000Y-124000000D03*
%TO.P,R8,2*%
%TO.N,SCL*%
X150825000Y-124000000D03*
%TD*%
D17*
%TO.P,C11,1*%
%TO.N,+5V*%
X118025000Y-132800000D03*
%TO.P,C11,2*%
%TO.N,GND*%
X119575000Y-132800000D03*
%TD*%
D31*
%TO.P,BZ1,1*%
%TO.N,+5V*%
X110000000Y-122900000D03*
D32*
%TO.P,BZ1,2*%
%TO.N,BUZZ_LOW*%
X115000000Y-122900000D03*
%TD*%
D17*
%TO.P,C3,1*%
%TO.N,+5V*%
X108225000Y-103000000D03*
%TO.P,C3,2*%
%TO.N,GND*%
X109775000Y-103000000D03*
%TD*%
D14*
%TO.P,R12,1*%
%TO.N,BUZZ_BASE*%
X125675000Y-120000000D03*
%TO.P,R12,2*%
%TO.N,GND*%
X127325000Y-120000000D03*
%TD*%
D12*
%TO.P,J4,1*%
%TO.N,GND*%
X126000000Y-128000000D03*
D13*
%TO.P,J4,2*%
%TO.N,+3V3*%
X128540000Y-128000000D03*
%TO.P,J4,3*%
%TO.N,+5V*%
X131080000Y-128000000D03*
%TO.P,J4,4*%
%TO.N,IO2*%
X133620000Y-128000000D03*
%TO.P,J4,5*%
%TO.N,IO3*%
X136160000Y-128000000D03*
%TO.P,J4,6*%
%TO.N,IO8*%
X138700000Y-128000000D03*
%TO.P,J4,7*%
%TO.N,IO10*%
X141240000Y-128000000D03*
%TO.P,J4,8*%
%TO.N,RX*%
X143780000Y-128000000D03*
%TO.P,J4,9*%
%TO.N,TX*%
X146320000Y-128000000D03*
%TO.P,J4,10*%
%TO.N,GND*%
X148860000Y-128000000D03*
%TD*%
D17*
%TO.P,C14,1*%
%TO.N,+5V*%
X140225000Y-132800000D03*
%TO.P,C14,2*%
%TO.N,GND*%
X141775000Y-132800000D03*
%TD*%
%TO.P,C7,1*%
%TO.N,+5V*%
X109225000Y-105900000D03*
%TO.P,C7,2*%
%TO.N,GND*%
X110775000Y-105900000D03*
%TD*%
D15*
%TO.P,C4,1*%
%TO.N,+3V3*%
X124000000Y-108652500D03*
%TO.P,C4,2*%
%TO.N,GND*%
X124000000Y-105947500D03*
%TD*%
D19*
%TO.P,SW2,1*%
%TO.N,BTN2*%
X140775000Y-124000000D03*
%TO.P,SW2,2*%
%TO.N,GND*%
X145225000Y-124000000D03*
%TD*%
D14*
%TO.P,R14,1*%
%TO.N,USB_CONN_P*%
X114175000Y-110900000D03*
%TO.P,R14,2*%
%TO.N,USB_P*%
X115825000Y-110900000D03*
%TD*%
D17*
%TO.P,C15,1*%
%TO.N,+5V*%
X147625000Y-132800000D03*
%TO.P,C15,2*%
%TO.N,GND*%
X149175000Y-132800000D03*
%TD*%
%TO.P,C16,1*%
%TO.N,+5V*%
X155025000Y-132800000D03*
%TO.P,C16,2*%
%TO.N,GND*%
X156575000Y-132800000D03*
%TD*%
D33*
%TO.N,+5V*%
X133078600Y-133800400D03*
%TO.N,GND*%
X111735100Y-115025500D03*
X134348400Y-107936900D03*
X126149700Y-103435700D03*
X127781200Y-118995000D03*
%TO.N,BUZZ_LOW*%
X124018000Y-123355300D03*
%TO.N,+3V3*%
X129445600Y-122373400D03*
X117500000Y-110850000D03*
X117500000Y-109200000D03*
X137649000Y-122373400D03*
X125177600Y-112053000D03*
X139410400Y-122384600D03*
%TO.N,SCL*%
X131576400Y-114106700D03*
%TO.N,PIXEL*%
X131995700Y-113271700D03*
X118499200Y-121497500D03*
%TO.N,CC1*%
X108914700Y-116188800D03*
X108447500Y-109396200D03*
%TO.N,BOOT*%
X137509400Y-117931100D03*
X134998600Y-120271300D03*
X123117300Y-104624300D03*
%TO.N,LED0*%
X111539200Y-135669600D03*
X115666900Y-130049700D03*
%TO.N,USB_CONN_N*%
X110999700Y-113653500D03*
X109540300Y-109944500D03*
X109475600Y-113462500D03*
%TO.N,LED7*%
X156795000Y-128187500D03*
X155371200Y-135792700D03*
%TO.N,BTN1*%
X133425200Y-124306700D03*
X144333900Y-107356700D03*
%TO.N,BUZZ*%
X130213500Y-115341600D03*
X127821800Y-116517400D03*
%TO.N,EN*%
X129800000Y-107158400D03*
X128400000Y-107158400D03*
%TO.N,RX*%
X152467300Y-118073200D03*
%TO.N,USB_N*%
X116568200Y-115143200D03*
X137515100Y-110329900D03*
%TO.N,USB_P*%
X129385000Y-116684500D03*
X149987200Y-111577600D03*
%TO.N,IO3*%
X152471400Y-112192500D03*
%TO.N,IO2*%
X136114700Y-121292900D03*
X149976500Y-109603700D03*
%TO.N,BTN2*%
X151842700Y-108958600D03*
X143262900Y-123391600D03*
%TO.N,LED1*%
X104151600Y-138457700D03*
X110205700Y-134803900D03*
%TD*%
%TO.N,+5V*%
D34*
X106443400Y-108550000D02*
X107045000Y-108550000D01*
X114610100Y-111700000D02*
X111737500Y-111700000D01*
X110000000Y-126531700D02*
X109493300Y-126531700D01*
X139436900Y-133588100D02*
X140225000Y-132800000D01*
X105561100Y-109432300D02*
X106443400Y-108550000D01*
X122796800Y-123184400D02*
X123681200Y-122300000D01*
X105240000Y-112995700D02*
X105561100Y-112995700D01*
X124504200Y-133720800D02*
X125425000Y-132800000D01*
X123750000Y-134065700D02*
X124159300Y-134065700D01*
X131150000Y-133800400D02*
X131150000Y-134850000D01*
X109225000Y-105900000D02*
X108225000Y-104900000D01*
X107618400Y-108550000D02*
X109225000Y-106943400D01*
X115476200Y-133976200D02*
X116350000Y-134850000D01*
X145950000Y-133588100D02*
X145950000Y-134850000D01*
X124159300Y-134065700D02*
X124504200Y-133720800D01*
X103225000Y-132800000D02*
X101550000Y-134475000D01*
X131070400Y-133720800D02*
X131150000Y-133800400D01*
X112850000Y-108300000D02*
X114901000Y-110351000D01*
X118025000Y-132800000D02*
X116268300Y-132800000D01*
X131080000Y-128000000D02*
X127166600Y-124086600D01*
X133078600Y-133800400D02*
X138550000Y-133800400D01*
X131150000Y-133800400D02*
X133078600Y-133800400D01*
X116350000Y-134850000D02*
X117134300Y-134065700D01*
X123374100Y-124086600D02*
X122837500Y-123550000D01*
X147625000Y-133588100D02*
X147625000Y-132800000D01*
X133078600Y-133053600D02*
X133078600Y-133800400D01*
X153350000Y-134299700D02*
X153350000Y-134850000D01*
X115476200Y-133774700D02*
X115476200Y-133976200D01*
X120925000Y-121800000D02*
X122309400Y-123184400D01*
X108950000Y-134850000D02*
X110025300Y-133774700D01*
X110000000Y-121598300D02*
X104698500Y-116296800D01*
X116268300Y-132982600D02*
X115476200Y-133774700D01*
X109493300Y-126531700D02*
X103225000Y-132800000D01*
X132825000Y-132800000D02*
X133078600Y-133053600D01*
X115476200Y-133774700D02*
X110625000Y-133774700D01*
X122796800Y-123184400D02*
X122796800Y-123509300D01*
X153350000Y-134299700D02*
X152638400Y-133588100D01*
X122796800Y-123509300D02*
X122837500Y-123550000D01*
X105561100Y-112995700D02*
X105989100Y-112995700D01*
X109225000Y-106943400D02*
X109225000Y-105900000D01*
X114901000Y-111409100D02*
X114610100Y-111700000D01*
X145950000Y-133588100D02*
X147625000Y-133588100D01*
X155025000Y-132800000D02*
X153525300Y-134299700D01*
X153525300Y-134299700D02*
X153350000Y-134299700D01*
X106443400Y-113450000D02*
X107045000Y-113450000D01*
X110000000Y-122900000D02*
X110000000Y-121598300D01*
X105561100Y-112995700D02*
X105561100Y-109432300D01*
X139436900Y-133588100D02*
X145950000Y-133588100D01*
X110581600Y-108300000D02*
X109225000Y-106943400D01*
X138550000Y-133800400D02*
X139224600Y-133800400D01*
X110000000Y-122900000D02*
X110000000Y-126531700D01*
X116268300Y-132800000D02*
X116268300Y-132982600D01*
X110025300Y-133774700D02*
X110625000Y-133774700D01*
X104698500Y-113537200D02*
X105240000Y-112995700D01*
X101550000Y-134475000D02*
X101550000Y-134850000D01*
X116268300Y-132800000D02*
X110000000Y-126531700D01*
X110625000Y-133774700D02*
X110625000Y-132800000D01*
X108225000Y-104900000D02*
X108225000Y-103000000D01*
X123750000Y-134065700D02*
X123750000Y-134850000D01*
X123681200Y-122300000D02*
X125675000Y-122300000D01*
X117134300Y-134065700D02*
X123750000Y-134065700D01*
X138550000Y-133800400D02*
X138550000Y-134850000D01*
X152638400Y-133588100D02*
X147625000Y-133588100D01*
X122309400Y-123184400D02*
X122796800Y-123184400D01*
X114901000Y-110351000D02*
X114901000Y-111409100D01*
X139224600Y-133800400D02*
X139436900Y-133588100D01*
X105989100Y-112995700D02*
X106443400Y-113450000D01*
X104698500Y-116296800D02*
X104698500Y-113537200D01*
X112850000Y-108300000D02*
X110581600Y-108300000D01*
X124504200Y-133720800D02*
X131070400Y-133720800D01*
X127166600Y-124086600D02*
X123374100Y-124086600D01*
X107045000Y-108550000D02*
X107618400Y-108550000D01*
%TO.N,LED6*%
X138550000Y-138150000D02*
X139633200Y-138150000D01*
X141765100Y-136018100D02*
X149681900Y-136018100D01*
X139633200Y-138150000D02*
X141765100Y-136018100D01*
X149681900Y-136018100D02*
X150850000Y-134850000D01*
%TO.N,GND*%
X156575000Y-136475000D02*
X158250000Y-138150000D01*
X106805900Y-106680000D02*
X106225000Y-106099100D01*
X138025000Y-120916400D02*
X137945500Y-120836900D01*
X158250000Y-138150000D02*
X157498000Y-138902000D01*
X116056000Y-139145100D02*
X114072400Y-139145100D01*
X151200100Y-138500100D02*
X150850000Y-138150000D01*
X123700600Y-138900500D02*
X123456000Y-139145100D01*
X143694600Y-139145100D02*
X143450000Y-138900500D01*
X129000100Y-138500100D02*
X128650000Y-138150000D01*
X141775000Y-132021400D02*
X148941300Y-132021400D01*
X149360000Y-127500000D02*
X148860000Y-128000000D01*
X130099500Y-138700300D02*
X129899300Y-138500100D01*
X121577100Y-125100800D02*
X120911700Y-125100800D01*
X113850000Y-138922700D02*
X113850000Y-138150000D01*
X122062500Y-119893500D02*
X122475000Y-120306000D01*
X122475000Y-121537000D02*
X125163200Y-121537000D01*
X139448600Y-138900500D02*
X138500600Y-138900500D01*
X114072400Y-139145100D02*
X113850000Y-138922700D01*
X136225000Y-124000000D02*
X136748300Y-123476700D01*
X127325000Y-120000000D02*
X128055600Y-119269400D01*
X154600000Y-127500000D02*
X149360000Y-127500000D01*
X126789300Y-103435700D02*
X127225000Y-103000000D01*
X145656000Y-139145100D02*
X143694600Y-139145100D01*
X126000000Y-131825000D02*
X120550000Y-131825000D01*
X122000000Y-114000000D02*
X120848300Y-114000000D01*
X152501200Y-138902000D02*
X152299500Y-138700300D01*
X138262700Y-123090000D02*
X138262700Y-122118800D01*
X110999500Y-115025500D02*
X110825000Y-115200000D01*
X136250000Y-119200000D02*
X135223300Y-119200000D01*
X148941300Y-132021400D02*
X149175000Y-132255100D01*
X110432600Y-112049200D02*
X110432600Y-113369800D01*
X117060800Y-113885800D02*
X115825000Y-112650000D01*
X122475000Y-121800000D02*
X122475000Y-121537000D01*
X107481700Y-115320000D02*
X107481700Y-114686700D01*
X121352500Y-113375500D02*
X121352500Y-111000000D01*
X104775000Y-132800000D02*
X105566700Y-132008300D01*
X133575000Y-117500000D02*
X133575000Y-118450200D01*
X127753600Y-132021400D02*
X134375000Y-132021400D01*
X133892500Y-118450200D02*
X134473500Y-118450200D01*
X116300600Y-138900500D02*
X116056000Y-139145100D01*
X129899300Y-138500100D02*
X129000100Y-138500100D01*
X104775000Y-136475000D02*
X104775000Y-132800000D01*
X128650000Y-138150000D02*
X127280200Y-138150000D01*
X124000000Y-105947500D02*
X127000000Y-105947500D01*
X145900600Y-138900500D02*
X145656000Y-139145100D01*
X134473500Y-118450200D02*
X135223300Y-119200000D01*
X147306200Y-138900500D02*
X150099500Y-138900500D01*
X137045100Y-139145100D02*
X136050000Y-138150000D01*
X138000000Y-121224600D02*
X138025000Y-121199600D01*
X126529700Y-138900500D02*
X123700600Y-138900500D01*
X120911700Y-125100800D02*
X120562500Y-125450000D01*
X137301700Y-120193100D02*
X137301700Y-119200000D01*
X123456000Y-139145100D02*
X122245100Y-139145100D01*
X122062500Y-119893500D02*
X122062500Y-118550000D01*
X119973700Y-121495800D02*
X121576000Y-119893500D01*
X119880200Y-138150000D02*
X121250000Y-138150000D01*
X145410000Y-113400000D02*
X145960000Y-113400000D01*
X152299500Y-138700300D02*
X152099300Y-138500100D01*
X127280200Y-138150000D02*
X126529700Y-138900500D01*
X119129700Y-138900500D02*
X116300600Y-138900500D01*
X126523900Y-120801100D02*
X127325000Y-120000000D01*
X149408700Y-132021400D02*
X155796400Y-132021400D01*
X137876000Y-123476700D02*
X138262700Y-123090000D01*
X133611500Y-107200000D02*
X133575000Y-107200000D01*
X156575000Y-132800000D02*
X156575000Y-136475000D01*
X120562500Y-122764500D02*
X120562500Y-123550000D01*
X130301200Y-138902000D02*
X130099500Y-138700300D01*
X138256000Y-139145100D02*
X137045100Y-139145100D01*
X110432600Y-113369800D02*
X110398000Y-113404400D01*
X125163200Y-121537000D02*
X125321500Y-121537000D01*
X134375000Y-132021400D02*
X134375000Y-132800000D01*
X127225000Y-105722500D02*
X127000000Y-105947500D01*
X126000000Y-131825000D02*
X126975000Y-132800000D01*
X110775000Y-105775000D02*
X110775000Y-105900000D01*
X109775000Y-103000000D02*
X112150000Y-103000000D01*
X119129700Y-138900500D02*
X119880200Y-138150000D01*
X106225000Y-102500000D02*
X106513500Y-102211500D01*
X135298000Y-138902000D02*
X130301200Y-138902000D01*
X121577100Y-124155800D02*
X120971300Y-123550000D01*
X125321500Y-121537000D02*
X126057400Y-120801100D01*
X106540500Y-106680000D02*
X106805900Y-106680000D01*
X134348400Y-107936900D02*
X133611500Y-107200000D01*
X109811700Y-112049200D02*
X109462500Y-111700000D01*
X105566700Y-132008300D02*
X111383300Y-132008300D01*
X127225000Y-103000000D02*
X127225000Y-105722500D01*
X157498000Y-138902000D02*
X152501200Y-138902000D01*
X149175000Y-132255100D02*
X149175000Y-132800000D01*
X126975000Y-132800000D02*
X127753600Y-132021400D01*
X106540500Y-106680000D02*
X107045000Y-107184500D01*
X138000000Y-121856100D02*
X138000000Y-121224600D01*
X112150000Y-103000000D02*
X112850000Y-103700000D01*
X136250000Y-119200000D02*
X137301700Y-119200000D01*
X120842200Y-113885800D02*
X121352500Y-113375500D01*
X138262700Y-122118800D02*
X138000000Y-121856100D01*
X138500600Y-138900500D02*
X138256000Y-139145100D01*
X148860000Y-127635000D02*
X145225000Y-124000000D01*
X149175000Y-132255100D02*
X149408700Y-132021400D01*
X126000000Y-128000000D02*
X126000000Y-131825000D01*
X148860000Y-128000000D02*
X148860000Y-127635000D01*
X133575000Y-118450200D02*
X133892500Y-118450200D01*
X111383300Y-132008300D02*
X112175000Y-132800000D01*
X147306200Y-138900500D02*
X145900600Y-138900500D01*
X137945500Y-120836900D02*
X137301700Y-120193100D01*
X134375000Y-132021400D02*
X141775000Y-132021400D01*
X126000000Y-128000000D02*
X122525000Y-128000000D01*
X143450000Y-138900500D02*
X139448600Y-138900500D01*
X122475000Y-120306000D02*
X122475000Y-121537000D01*
X119973700Y-122175700D02*
X119973700Y-121495800D01*
X106450000Y-138150000D02*
X104775000Y-136475000D01*
X107481700Y-114686700D02*
X107045000Y-114250000D01*
X121577100Y-125100800D02*
X121577100Y-124155800D01*
X127781200Y-118995000D02*
X128055600Y-119269400D01*
X120173900Y-122375900D02*
X120562500Y-122764500D01*
X113850000Y-138922700D02*
X107222700Y-138922700D01*
X122245100Y-139145100D02*
X121250000Y-138150000D01*
X120971300Y-123550000D02*
X120562500Y-123550000D01*
X138025000Y-121199600D02*
X138025000Y-120916400D01*
X107045000Y-107184500D02*
X107045000Y-107750000D01*
X110398000Y-114773000D02*
X110825000Y-115200000D01*
X128874800Y-118450200D02*
X133575000Y-118450200D01*
X111735100Y-115025500D02*
X110999500Y-115025500D01*
X120550000Y-131825000D02*
X119575000Y-132800000D01*
X126149700Y-103435700D02*
X126789300Y-103435700D01*
X150099500Y-138900500D02*
X150850000Y-138150000D01*
X126057400Y-120801100D02*
X126523900Y-120801100D01*
X108986500Y-102211500D02*
X109775000Y-103000000D01*
X107222700Y-138922700D02*
X106450000Y-138150000D01*
X143450000Y-138900500D02*
X143450000Y-138150000D01*
X141775000Y-132021400D02*
X141775000Y-132800000D01*
X120848300Y-114000000D02*
X120848300Y-113891900D01*
X136748300Y-123476700D02*
X137876000Y-123476700D01*
X112850000Y-103700000D02*
X110775000Y-105775000D01*
X110398000Y-113404400D02*
X110398000Y-114773000D01*
X110432600Y-112049200D02*
X109811700Y-112049200D01*
X120173900Y-122375900D02*
X119973700Y-122175700D01*
X106130000Y-106680000D02*
X106540500Y-106680000D01*
X152099300Y-138500100D02*
X151200100Y-138500100D01*
X106130000Y-115320000D02*
X107481700Y-115320000D01*
X106513500Y-102211500D02*
X108986500Y-102211500D01*
X120842200Y-113885800D02*
X117060800Y-113885800D01*
X155796400Y-132021400D02*
X156575000Y-132800000D01*
X128055600Y-119269400D02*
X128874800Y-118450200D01*
X136050000Y-138150000D02*
X135298000Y-138902000D01*
X120848300Y-113891900D02*
X120842200Y-113885800D01*
X106225000Y-106099100D02*
X106225000Y-102500000D01*
X121576000Y-119893500D02*
X122062500Y-119893500D01*
%TO.N,LED5*%
X132508300Y-136791700D02*
X131150000Y-138150000D01*
X143450000Y-134850000D02*
X141282000Y-134850000D01*
X139340300Y-136791700D02*
X132508300Y-136791700D01*
X141282000Y-134850000D02*
X139340300Y-136791700D01*
%TO.N,BUZZ_BASE*%
X125675000Y-120000000D02*
X125675000Y-119150000D01*
X125675000Y-119150000D02*
X127325000Y-117500000D01*
X124100100Y-119150000D02*
X122062500Y-117112400D01*
X122062500Y-117112400D02*
X122062500Y-116650000D01*
X125675000Y-119150000D02*
X124100100Y-119150000D01*
%TO.N,BUZZ_LOW*%
X123937500Y-117110500D02*
X123937500Y-117600000D01*
X115000000Y-122314700D02*
X121268500Y-116046200D01*
X126269700Y-123355300D02*
X124018000Y-123355300D01*
X115000000Y-122900000D02*
X115000000Y-122314700D01*
X127325000Y-122300000D02*
X126269700Y-123355300D01*
X122873200Y-116046200D02*
X123937500Y-117110500D01*
X121268500Y-116046200D02*
X122873200Y-116046200D01*
%TO.N,+3V3*%
X149175000Y-122000000D02*
X148825100Y-122000000D01*
X137175000Y-121300000D02*
X137175000Y-121899400D01*
X148440500Y-123265500D02*
X149175000Y-124000000D01*
X125177600Y-110887100D02*
X125177600Y-112053000D01*
X137175000Y-121899400D02*
X137649000Y-122373400D01*
X149175000Y-124000000D02*
X151675000Y-126500000D01*
X132025000Y-106412000D02*
X132025000Y-107200000D01*
X128948000Y-106412000D02*
X132025000Y-106412000D01*
X132025000Y-106412000D02*
X134410300Y-106412000D01*
X133175000Y-122119600D02*
X136954800Y-122119600D01*
X148825100Y-122000000D02*
X148440500Y-122384600D01*
X131729500Y-110445500D02*
X131975000Y-110200000D01*
X148440500Y-122384600D02*
X148440500Y-123265500D01*
X139410400Y-122384600D02*
X148440500Y-122384600D01*
X133175000Y-122119600D02*
X133175000Y-121300000D01*
X151675000Y-126500000D02*
X154600000Y-126500000D01*
X129445600Y-122373400D02*
X132921200Y-122373400D01*
X132921200Y-122373400D02*
X133175000Y-122119600D01*
X136250000Y-107200000D02*
X135198300Y-107200000D01*
X136954800Y-122119600D02*
X137175000Y-121899400D01*
X127825000Y-110445500D02*
X131729500Y-110445500D01*
X129175000Y-122102800D02*
X129175000Y-121300000D01*
X129445600Y-122373400D02*
X129175000Y-122102800D01*
X134410300Y-106412000D02*
X135198300Y-107200000D01*
%TO.N,SCL*%
X150000000Y-121634300D02*
X150000000Y-123175000D01*
X154100000Y-124000000D02*
X154600000Y-124500000D01*
X136250000Y-111700000D02*
X140065700Y-111700000D01*
X136250000Y-111700000D02*
X134835000Y-111700000D01*
X150000000Y-123175000D02*
X150825000Y-124000000D01*
X140065700Y-111700000D02*
X150000000Y-121634300D01*
X134835000Y-111700000D02*
X132428300Y-114106700D01*
X150825000Y-124000000D02*
X154100000Y-124000000D01*
X132428300Y-114106700D02*
X131576400Y-114106700D01*
%TO.N,SDA*%
X153576400Y-122000000D02*
X150825000Y-122000000D01*
X136484800Y-110200000D02*
X137489300Y-111204500D01*
X137489300Y-111204500D02*
X140213000Y-111204500D01*
X140213000Y-111204500D02*
X150825000Y-121816500D01*
X150825000Y-121816500D02*
X150825000Y-122000000D01*
X136250000Y-110200000D02*
X134915800Y-110200000D01*
X130974000Y-112646000D02*
X129620000Y-114000000D01*
X154600000Y-125500000D02*
X155040400Y-125500000D01*
X136250000Y-110200000D02*
X136484800Y-110200000D01*
X155703800Y-124127400D02*
X153576400Y-122000000D01*
X155703800Y-124836600D02*
X155703800Y-124127400D01*
X134915800Y-110200000D02*
X132469800Y-112646000D01*
X132469800Y-112646000D02*
X130974000Y-112646000D01*
X155040400Y-125500000D02*
X155703800Y-124836600D01*
%TO.N,PIXEL*%
X118499200Y-122878100D02*
X120121100Y-124500000D01*
X119564600Y-126689600D02*
X119564600Y-125056500D01*
X131509700Y-113271700D02*
X131995700Y-113271700D01*
X120121100Y-124500000D02*
X120562500Y-124500000D01*
X130924700Y-114307500D02*
X130924700Y-113856700D01*
X119564600Y-125056500D02*
X120121100Y-124500000D01*
X130924700Y-113856700D02*
X131509700Y-113271700D01*
X135108200Y-113200000D02*
X133599800Y-114708400D01*
X133599800Y-114708400D02*
X131325600Y-114708400D01*
X136250000Y-113200000D02*
X135108200Y-113200000D01*
X120875000Y-128000000D02*
X119564600Y-126689600D01*
X131325600Y-114708400D02*
X130924700Y-114307500D01*
X118499200Y-121497500D02*
X118499200Y-122878100D01*
%TO.N,CC1*%
X107045000Y-109750000D02*
X108093700Y-109750000D01*
X108914700Y-115460300D02*
X108914700Y-116188800D01*
X108093700Y-109750000D02*
X108447500Y-109396200D01*
X109175000Y-115200000D02*
X108914700Y-115460300D01*
%TO.N,BOOT*%
X123117300Y-104624300D02*
X122775000Y-104282000D01*
X122775000Y-104282000D02*
X122775000Y-103000000D01*
X137276700Y-117700000D02*
X137507800Y-117931100D01*
X137507800Y-117931100D02*
X137509400Y-117931100D01*
X131853700Y-120271300D02*
X130825000Y-121300000D01*
X134998600Y-120271300D02*
X131853700Y-120271300D01*
X136250000Y-117700000D02*
X137276700Y-117700000D01*
%TO.N,PIXEL_5V*%
X121700000Y-129675000D02*
X120875000Y-130500000D01*
X121700000Y-126587500D02*
X121700000Y-129675000D01*
X122837500Y-125450000D02*
X121700000Y-126587500D01*
%TO.N,LED0*%
X122525000Y-130500000D02*
X121727800Y-131297200D01*
X111539200Y-135669600D02*
X107269600Y-135669600D01*
X121727800Y-131297200D02*
X116914400Y-131297200D01*
X107269600Y-135669600D02*
X106450000Y-134850000D01*
X116914400Y-131297200D02*
X115666900Y-130049700D01*
%TO.N,USB_CONN_P*%
X106214000Y-110750000D02*
X107045000Y-110750000D01*
X114025000Y-110750000D02*
X114175000Y-110900000D01*
X109462500Y-110750000D02*
X111737500Y-110750000D01*
X105994000Y-110970000D02*
X106214000Y-110750000D01*
X105994000Y-111465100D02*
X105994000Y-110970000D01*
X111737500Y-110750000D02*
X114025000Y-110750000D01*
X107045000Y-110750000D02*
X109462500Y-110750000D01*
X107045000Y-111750000D02*
X106278900Y-111750000D01*
X106278900Y-111750000D02*
X105994000Y-111465100D01*
%TO.N,USB_CONN_N*%
X108481600Y-112116000D02*
X109015600Y-112650000D01*
X109475600Y-112663100D02*
X109462500Y-112650000D01*
X107045000Y-110250000D02*
X108477600Y-110250000D01*
X107045000Y-111250000D02*
X107820800Y-111250000D01*
X113322400Y-113547400D02*
X114175000Y-114400000D01*
X111737500Y-113547400D02*
X111737500Y-112650000D01*
X107820800Y-111250000D02*
X108481600Y-111910800D01*
X108477600Y-110250000D02*
X108783100Y-109944500D01*
X111737500Y-113547400D02*
X113322400Y-113547400D01*
X110999700Y-113653500D02*
X111105800Y-113547400D01*
X109475600Y-113462500D02*
X109475600Y-112663100D01*
X108783100Y-109944500D02*
X109540300Y-109944500D01*
X111105800Y-113547400D02*
X111737500Y-113547400D01*
X108481600Y-111910800D02*
X108481600Y-112116000D01*
X109015600Y-112650000D02*
X109462500Y-112650000D01*
%TO.N,LED7*%
X158250000Y-130477200D02*
X156795000Y-129022200D01*
X158250000Y-134850000D02*
X158250000Y-130477200D01*
X155371200Y-135792700D02*
X154396000Y-136767900D01*
X147332100Y-136767900D02*
X145950000Y-138150000D01*
X154396000Y-136767900D02*
X147332100Y-136767900D01*
X156795000Y-129022200D02*
X156795000Y-128187500D01*
%TO.N,CC2*%
X114896900Y-114872100D02*
X113774400Y-115994600D01*
X110350600Y-115994600D02*
X109994700Y-115638700D01*
X113774400Y-115994600D02*
X110350600Y-115994600D01*
X114896900Y-113371900D02*
X114896900Y-114872100D01*
X109994700Y-115638700D02*
X109994700Y-114834000D01*
X114175000Y-112650000D02*
X114896900Y-113371900D01*
X107910700Y-112750000D02*
X107045000Y-112750000D01*
X109994700Y-114834000D02*
X107910700Y-112750000D01*
%TO.N,BTN1*%
X153750000Y-107200000D02*
X144490600Y-107200000D01*
X132081700Y-124306700D02*
X131775000Y-124000000D01*
X133425200Y-124306700D02*
X132081700Y-124306700D01*
X144490600Y-107200000D02*
X144333900Y-107356700D01*
%TO.N,BUZZ*%
X134556700Y-115341600D02*
X135198300Y-114700000D01*
X126657600Y-116517400D02*
X125675000Y-117500000D01*
X130213500Y-115341600D02*
X134556700Y-115341600D01*
X136250000Y-114700000D02*
X135198300Y-114700000D01*
X127821800Y-116517400D02*
X126657600Y-116517400D01*
%TO.N,EN*%
X117445000Y-101197200D02*
X123406200Y-107158400D01*
X129740600Y-112244300D02*
X128438000Y-113546900D01*
X131469000Y-117500000D02*
X132025000Y-117500000D01*
X136250000Y-108700000D02*
X135125000Y-108700000D01*
X131580700Y-112244300D02*
X129740600Y-112244300D01*
X129800000Y-107158400D02*
X130583400Y-107158400D01*
X133625000Y-110200000D02*
X131580700Y-112244300D01*
X135125000Y-108700000D02*
X133625000Y-110200000D01*
X123406200Y-107158400D02*
X128400000Y-107158400D01*
X128438000Y-113546900D02*
X128438000Y-114469000D01*
X130583400Y-107158400D02*
X133625000Y-110200000D01*
X103077800Y-101197200D02*
X117445000Y-101197200D01*
X101775000Y-102500000D02*
X103077800Y-101197200D01*
X128438000Y-114469000D02*
X131469000Y-117500000D01*
%TO.N,IO8*%
X138825000Y-117723300D02*
X137301700Y-116200000D01*
X136250000Y-116200000D02*
X137301700Y-116200000D01*
X138825000Y-121300000D02*
X138825000Y-117723300D01*
X138700000Y-121425000D02*
X138825000Y-121300000D01*
X138700000Y-128000000D02*
X138700000Y-121425000D01*
%TO.N,IO10*%
X142811000Y-129571000D02*
X154545800Y-129571000D01*
X141240000Y-128000000D02*
X142811000Y-129571000D01*
X156579800Y-127537000D02*
X156579800Y-120978100D01*
X153750000Y-119200000D02*
X154801700Y-119200000D01*
X154545800Y-129571000D02*
X156579800Y-127537000D01*
X156579800Y-120978100D02*
X154801700Y-119200000D01*
%TO.N,RX*%
X152467300Y-118073200D02*
X152698300Y-117842200D01*
X152698300Y-117842200D02*
X152698300Y-117700000D01*
X153750000Y-117700000D02*
X152698300Y-117700000D01*
%TO.N,TX*%
X153750000Y-116200000D02*
X152698300Y-116200000D01*
X151863400Y-117034900D02*
X151863400Y-119676000D01*
X152698300Y-116200000D02*
X151863400Y-117034900D01*
X151863400Y-119676000D02*
X156131900Y-123944500D01*
X156131900Y-127398700D02*
X154370900Y-129159700D01*
X156131900Y-123944500D02*
X156131900Y-127398700D01*
X147479700Y-129159700D02*
X146320000Y-128000000D01*
X154370900Y-129159700D02*
X147479700Y-129159700D01*
%TO.N,USB_N*%
X152698300Y-114700000D02*
X152258800Y-114700000D01*
X115825000Y-114400000D02*
X116568200Y-115143200D01*
X152258800Y-114700000D02*
X147888700Y-110329900D01*
X153750000Y-114700000D02*
X152698300Y-114700000D01*
X147888700Y-110329900D02*
X137515100Y-110329900D01*
%TO.N,USB_P*%
X116739700Y-109985300D02*
X122215200Y-109985300D01*
X125928300Y-114481300D02*
X127073800Y-115626800D01*
X127073800Y-115626800D02*
X128327300Y-115626800D01*
X122215200Y-109985300D02*
X125928300Y-113698400D01*
X153750000Y-113200000D02*
X151609600Y-113200000D01*
X128327300Y-115626800D02*
X129385000Y-116684500D01*
X125928300Y-113698400D02*
X125928300Y-114481300D01*
X151609600Y-113200000D02*
X149987200Y-111577600D01*
X115825000Y-110900000D02*
X116739700Y-109985300D01*
%TO.N,IO3*%
X152698300Y-111965600D02*
X152698300Y-111700000D01*
X153750000Y-111700000D02*
X152698300Y-111700000D01*
X152471400Y-112192500D02*
X152698300Y-111965600D01*
%TO.N,IO2*%
X152698300Y-110200000D02*
X152102000Y-109603700D01*
X134825000Y-121300000D02*
X134832100Y-121292900D01*
X153750000Y-110200000D02*
X152698300Y-110200000D01*
X134832100Y-121292900D02*
X136114700Y-121292900D01*
X152102000Y-109603700D02*
X149976500Y-109603700D01*
%TO.N,BTN2*%
X152101300Y-108700000D02*
X151842700Y-108958600D01*
X153750000Y-108700000D02*
X152101300Y-108700000D01*
X143262900Y-123391600D02*
X141383400Y-123391600D01*
X141383400Y-123391600D02*
X140775000Y-124000000D01*
%TO.N,LED2*%
X112807200Y-136269800D02*
X110927000Y-138150000D01*
X121250000Y-134850000D02*
X119082000Y-134850000D01*
X117662200Y-136269800D02*
X112807200Y-136269800D01*
X119082000Y-134850000D02*
X117662200Y-136269800D01*
X110927000Y-138150000D02*
X108950000Y-138150000D01*
%TO.N,LED1*%
X110205700Y-134803900D02*
X113803900Y-134803900D01*
X101550000Y-138150000D02*
X103843900Y-138150000D01*
X113803900Y-134803900D02*
X113850000Y-134850000D01*
X103843900Y-138150000D02*
X104151600Y-138457700D01*
%TO.N,LED3*%
X128650000Y-134850000D02*
X126481900Y-134850000D01*
X126481900Y-134850000D02*
X124661900Y-136670000D01*
X124661900Y-136670000D02*
X117830000Y-136670000D01*
X117830000Y-136670000D02*
X116350000Y-138150000D01*
%TO.N,LED4*%
X131340000Y-137070200D02*
X133560200Y-134850000D01*
X123750000Y-138150000D02*
X124829800Y-137070200D01*
X124829800Y-137070200D02*
X131340000Y-137070200D01*
X133560200Y-134850000D02*
X136050000Y-134850000D01*
%TD*%
%TA.AperFunction,Conductor*%
%TO.N,+3V3*%
G36*
X120430577Y-110304707D02*
G01*
X120466541Y-110354207D01*
X120466541Y-110415393D01*
X120465831Y-110417497D01*
X120447354Y-110470301D01*
X120447353Y-110470305D01*
X120444500Y-110500725D01*
X120444500Y-111401000D01*
X120425593Y-111459191D01*
X120376093Y-111495155D01*
X120345500Y-111500000D01*
X116470449Y-111500000D01*
X116412258Y-111481093D01*
X116376294Y-111431593D01*
X116376294Y-111370407D01*
X116382240Y-111356055D01*
X116410644Y-111300307D01*
X116410645Y-111300305D01*
X116410646Y-111300304D01*
X116425500Y-111206519D01*
X116425499Y-110765476D01*
X116444406Y-110707286D01*
X116454489Y-110695480D01*
X116835175Y-110314796D01*
X116889691Y-110287019D01*
X116905178Y-110285800D01*
X120372386Y-110285800D01*
X120430577Y-110304707D01*
G37*
%TD.AperFunction*%
%TA.AperFunction,Conductor*%
G36*
X129959191Y-100519407D02*
G01*
X129995155Y-100568907D01*
X130000000Y-100599500D01*
X130000000Y-106564814D01*
X129981093Y-106623005D01*
X129931593Y-106658969D01*
X129875383Y-106660442D01*
X129865896Y-106657900D01*
X129865892Y-106657900D01*
X129734108Y-106657900D01*
X129656200Y-106678775D01*
X129606809Y-106692009D01*
X129492690Y-106757896D01*
X129399496Y-106851090D01*
X129333609Y-106965209D01*
X129333608Y-106965214D01*
X129299500Y-107092508D01*
X129299500Y-107224292D01*
X129309408Y-107261268D01*
X129333609Y-107351590D01*
X129399496Y-107465709D01*
X129399498Y-107465711D01*
X129399500Y-107465714D01*
X129492686Y-107558900D01*
X129492688Y-107558901D01*
X129492690Y-107558903D01*
X129606810Y-107624790D01*
X129606808Y-107624790D01*
X129606812Y-107624791D01*
X129606814Y-107624792D01*
X129734108Y-107658900D01*
X129734110Y-107658900D01*
X129865890Y-107658900D01*
X129865892Y-107658900D01*
X129875378Y-107656358D01*
X129936478Y-107659561D01*
X129984028Y-107698066D01*
X130000000Y-107751985D01*
X130000000Y-111401000D01*
X129981093Y-111459191D01*
X129931593Y-111495155D01*
X129901000Y-111500000D01*
X124195879Y-111500000D01*
X124137688Y-111481093D01*
X124125875Y-111471004D01*
X123279446Y-110624575D01*
X122399711Y-109744840D01*
X122399708Y-109744838D01*
X122331192Y-109705280D01*
X122331188Y-109705278D01*
X122254764Y-109684800D01*
X122254762Y-109684800D01*
X116700138Y-109684800D01*
X116700135Y-109684800D01*
X116623711Y-109705278D01*
X116623707Y-109705280D01*
X116555189Y-109744839D01*
X116104524Y-110195504D01*
X116050008Y-110223281D01*
X116034521Y-110224500D01*
X115593479Y-110224500D01*
X115593476Y-110224501D01*
X115499700Y-110239352D01*
X115499695Y-110239354D01*
X115386659Y-110296949D01*
X115358815Y-110324793D01*
X115304298Y-110352569D01*
X115243866Y-110342997D01*
X115200602Y-110299732D01*
X115193187Y-110280417D01*
X115181021Y-110235011D01*
X115178470Y-110230593D01*
X115141460Y-110166489D01*
X115085511Y-110110539D01*
X115085511Y-110110540D01*
X114013491Y-109038520D01*
X113985714Y-108984003D01*
X113992031Y-108930630D01*
X114035687Y-108825236D01*
X114050500Y-108712720D01*
X114050500Y-107887280D01*
X114035687Y-107774764D01*
X113977698Y-107634767D01*
X113885451Y-107514549D01*
X113765233Y-107422302D01*
X113625236Y-107364313D01*
X113625234Y-107364312D01*
X113625232Y-107364312D01*
X113512720Y-107349500D01*
X112187280Y-107349500D01*
X112187278Y-107349500D01*
X112111922Y-107359421D01*
X112051761Y-107348271D01*
X112009644Y-107303889D01*
X112000000Y-107261268D01*
X112000000Y-105015977D01*
X112018907Y-104957786D01*
X112028993Y-104945977D01*
X112295475Y-104679496D01*
X112349991Y-104651719D01*
X112365478Y-104650500D01*
X113512719Y-104650500D01*
X113512720Y-104650500D01*
X113625236Y-104635687D01*
X113765233Y-104577698D01*
X113885451Y-104485451D01*
X113977698Y-104365233D01*
X114035687Y-104225236D01*
X114050500Y-104112720D01*
X114050500Y-103287280D01*
X114035687Y-103174764D01*
X113977698Y-103034767D01*
X113885451Y-102914549D01*
X113765233Y-102822302D01*
X113625236Y-102764313D01*
X113625234Y-102764312D01*
X113625232Y-102764312D01*
X113512720Y-102749500D01*
X112343649Y-102749500D01*
X112294150Y-102736237D01*
X112265990Y-102719979D01*
X112265988Y-102719978D01*
X112189564Y-102699500D01*
X112189562Y-102699500D01*
X112099000Y-102699500D01*
X112040809Y-102680593D01*
X112004845Y-102631093D01*
X112000000Y-102600500D01*
X112000000Y-101596700D01*
X112018907Y-101538509D01*
X112068407Y-101502545D01*
X112099000Y-101497700D01*
X117279521Y-101497700D01*
X117337712Y-101516607D01*
X117349525Y-101526696D01*
X123165740Y-107342911D01*
X123165739Y-107342911D01*
X123221689Y-107398860D01*
X123290207Y-107438419D01*
X123290211Y-107438421D01*
X123366635Y-107458899D01*
X123366637Y-107458900D01*
X123366638Y-107458900D01*
X127951679Y-107458900D01*
X128009870Y-107477807D01*
X128021676Y-107487890D01*
X128092686Y-107558900D01*
X128092688Y-107558901D01*
X128092690Y-107558903D01*
X128206810Y-107624790D01*
X128206808Y-107624790D01*
X128206812Y-107624791D01*
X128206814Y-107624792D01*
X128334108Y-107658900D01*
X128334110Y-107658900D01*
X128465890Y-107658900D01*
X128465892Y-107658900D01*
X128593186Y-107624792D01*
X128593188Y-107624790D01*
X128593190Y-107624790D01*
X128707309Y-107558903D01*
X128707309Y-107558902D01*
X128707314Y-107558900D01*
X128800500Y-107465714D01*
X128825565Y-107422301D01*
X128866390Y-107351590D01*
X128866390Y-107351588D01*
X128866392Y-107351586D01*
X128900500Y-107224292D01*
X128900500Y-107092508D01*
X128866392Y-106965214D01*
X128866390Y-106965211D01*
X128866390Y-106965209D01*
X128800503Y-106851090D01*
X128800501Y-106851088D01*
X128800500Y-106851086D01*
X128707314Y-106757900D01*
X128707311Y-106757898D01*
X128707309Y-106757896D01*
X128593189Y-106692009D01*
X128593191Y-106692009D01*
X128543799Y-106678775D01*
X128465892Y-106657900D01*
X128334108Y-106657900D01*
X128256200Y-106678775D01*
X128206809Y-106692009D01*
X128092690Y-106757896D01*
X128092689Y-106757897D01*
X128092686Y-106757899D01*
X128092686Y-106757900D01*
X128021680Y-106828905D01*
X127967166Y-106856681D01*
X127951679Y-106857900D01*
X127866760Y-106857900D01*
X127808569Y-106838993D01*
X127772605Y-106789493D01*
X127772605Y-106728307D01*
X127787105Y-106700112D01*
X127817470Y-106658969D01*
X127847793Y-106617882D01*
X127892646Y-106489699D01*
X127895499Y-106459273D01*
X127895500Y-106459273D01*
X127895500Y-105435727D01*
X127895499Y-105435725D01*
X127892646Y-105405305D01*
X127892646Y-105405301D01*
X127847793Y-105277118D01*
X127842949Y-105270555D01*
X127767154Y-105167855D01*
X127767152Y-105167853D01*
X127767150Y-105167850D01*
X127767146Y-105167847D01*
X127767144Y-105167845D01*
X127657883Y-105087207D01*
X127591802Y-105064084D01*
X127543121Y-105027018D01*
X127525500Y-104970640D01*
X127525500Y-104288604D01*
X127544407Y-104230413D01*
X127591799Y-104195161D01*
X127712882Y-104152793D01*
X127822150Y-104072150D01*
X127902793Y-103962882D01*
X127947646Y-103834699D01*
X127950499Y-103804273D01*
X127950500Y-103804273D01*
X127950500Y-102195727D01*
X127950499Y-102195725D01*
X127947646Y-102165305D01*
X127947646Y-102165301D01*
X127902793Y-102037118D01*
X127822150Y-101927850D01*
X127822146Y-101927847D01*
X127822144Y-101927845D01*
X127712883Y-101847207D01*
X127584703Y-101802355D01*
X127584694Y-101802353D01*
X127554274Y-101799500D01*
X127554266Y-101799500D01*
X126895734Y-101799500D01*
X126895725Y-101799500D01*
X126865305Y-101802353D01*
X126865296Y-101802355D01*
X126737116Y-101847207D01*
X126627855Y-101927845D01*
X126627845Y-101927855D01*
X126547207Y-102037116D01*
X126502355Y-102165296D01*
X126502353Y-102165305D01*
X126499500Y-102195725D01*
X126499500Y-102888255D01*
X126480593Y-102946446D01*
X126431093Y-102982410D01*
X126369907Y-102982410D01*
X126351004Y-102973994D01*
X126342889Y-102969309D01*
X126342886Y-102969308D01*
X126215592Y-102935200D01*
X126083808Y-102935200D01*
X126005900Y-102956075D01*
X125956509Y-102969309D01*
X125842390Y-103035196D01*
X125749196Y-103128390D01*
X125683309Y-103242509D01*
X125683308Y-103242514D01*
X125649200Y-103369808D01*
X125649200Y-103501592D01*
X125679279Y-103613851D01*
X125683309Y-103628890D01*
X125749196Y-103743009D01*
X125749198Y-103743011D01*
X125749200Y-103743014D01*
X125842386Y-103836200D01*
X125842388Y-103836201D01*
X125842390Y-103836203D01*
X125956510Y-103902090D01*
X125956508Y-103902090D01*
X125956512Y-103902091D01*
X125956514Y-103902092D01*
X126083808Y-103936200D01*
X126083810Y-103936200D01*
X126215590Y-103936200D01*
X126215592Y-103936200D01*
X126342886Y-103902092D01*
X126391690Y-103873914D01*
X126451537Y-103861193D01*
X126507433Y-103886079D01*
X126534634Y-103926952D01*
X126547207Y-103962884D01*
X126627845Y-104072144D01*
X126627847Y-104072146D01*
X126627850Y-104072150D01*
X126627853Y-104072152D01*
X126627855Y-104072154D01*
X126737114Y-104152791D01*
X126737116Y-104152791D01*
X126737118Y-104152793D01*
X126858199Y-104195161D01*
X126906878Y-104232225D01*
X126924500Y-104288604D01*
X126924500Y-104940500D01*
X126905593Y-104998691D01*
X126856093Y-105034655D01*
X126825500Y-105039500D01*
X126500725Y-105039500D01*
X126470305Y-105042353D01*
X126470296Y-105042355D01*
X126342116Y-105087207D01*
X126232855Y-105167845D01*
X126232845Y-105167855D01*
X126152207Y-105277116D01*
X126107355Y-105405296D01*
X126107353Y-105405305D01*
X126104500Y-105435725D01*
X126104500Y-105548000D01*
X126085593Y-105606191D01*
X126036093Y-105642155D01*
X126005500Y-105647000D01*
X124994500Y-105647000D01*
X124936309Y-105628093D01*
X124900345Y-105578593D01*
X124895500Y-105548000D01*
X124895500Y-105435727D01*
X124895499Y-105435725D01*
X124892646Y-105405305D01*
X124892646Y-105405301D01*
X124847793Y-105277118D01*
X124842949Y-105270555D01*
X124767154Y-105167855D01*
X124767152Y-105167853D01*
X124767150Y-105167850D01*
X124767146Y-105167847D01*
X124767144Y-105167845D01*
X124657883Y-105087207D01*
X124529703Y-105042355D01*
X124529694Y-105042353D01*
X124499274Y-105039500D01*
X124499266Y-105039500D01*
X123626985Y-105039500D01*
X123568794Y-105020593D01*
X123532830Y-104971093D01*
X123532830Y-104909907D01*
X123541249Y-104891000D01*
X123583690Y-104817490D01*
X123583690Y-104817488D01*
X123583692Y-104817486D01*
X123617800Y-104690192D01*
X123617800Y-104558408D01*
X123583692Y-104431114D01*
X123583690Y-104431111D01*
X123583690Y-104431109D01*
X123517803Y-104316990D01*
X123517801Y-104316988D01*
X123517800Y-104316986D01*
X123424614Y-104223800D01*
X123405283Y-104212639D01*
X123364343Y-104167171D01*
X123357946Y-104106321D01*
X123375128Y-104068115D01*
X123387833Y-104050899D01*
X123452793Y-103962882D01*
X123497646Y-103834699D01*
X123500499Y-103804273D01*
X123500500Y-103804273D01*
X123500500Y-102195727D01*
X123500499Y-102195725D01*
X123497646Y-102165305D01*
X123497646Y-102165301D01*
X123452793Y-102037118D01*
X123372150Y-101927850D01*
X123372146Y-101927847D01*
X123372144Y-101927845D01*
X123262883Y-101847207D01*
X123134703Y-101802355D01*
X123134694Y-101802353D01*
X123104274Y-101799500D01*
X123104266Y-101799500D01*
X122445734Y-101799500D01*
X122445725Y-101799500D01*
X122415305Y-101802353D01*
X122415296Y-101802355D01*
X122287116Y-101847207D01*
X122177855Y-101927845D01*
X122177845Y-101927855D01*
X122097207Y-102037116D01*
X122052355Y-102165296D01*
X122052353Y-102165305D01*
X122049500Y-102195725D01*
X122049500Y-103804274D01*
X122052353Y-103834694D01*
X122052355Y-103834703D01*
X122097207Y-103962883D01*
X122177845Y-104072144D01*
X122177847Y-104072146D01*
X122177850Y-104072150D01*
X122177853Y-104072152D01*
X122177855Y-104072154D01*
X122287114Y-104152791D01*
X122287116Y-104152791D01*
X122287118Y-104152793D01*
X122408199Y-104195161D01*
X122456878Y-104232225D01*
X122470948Y-104262323D01*
X122474500Y-104275223D01*
X122474500Y-104321562D01*
X122494979Y-104397989D01*
X122514104Y-104431114D01*
X122520448Y-104442103D01*
X122520449Y-104442105D01*
X122534535Y-104466505D01*
X122534538Y-104466508D01*
X122534540Y-104466511D01*
X122587805Y-104519776D01*
X122615581Y-104574291D01*
X122616800Y-104589778D01*
X122616800Y-104690192D01*
X122646879Y-104802451D01*
X122650909Y-104817490D01*
X122716796Y-104931609D01*
X122716798Y-104931611D01*
X122716800Y-104931614D01*
X122809986Y-105024800D01*
X122809988Y-105024801D01*
X122809990Y-105024803D01*
X122924110Y-105090690D01*
X122924108Y-105090690D01*
X122924112Y-105090691D01*
X122924114Y-105090692D01*
X123051408Y-105124800D01*
X123051410Y-105124800D01*
X123068514Y-105124800D01*
X123126705Y-105143707D01*
X123162669Y-105193207D01*
X123162669Y-105254393D01*
X123154641Y-105270008D01*
X123155675Y-105270555D01*
X123152207Y-105277116D01*
X123107355Y-105405296D01*
X123107353Y-105405305D01*
X123104500Y-105435725D01*
X123104500Y-106192721D01*
X123085593Y-106250912D01*
X123036093Y-106286876D01*
X122974907Y-106286876D01*
X122935496Y-106262725D01*
X120301657Y-103628886D01*
X117629511Y-100956740D01*
X117629508Y-100956738D01*
X117560992Y-100917180D01*
X117560988Y-100917178D01*
X117484564Y-100896700D01*
X117484562Y-100896700D01*
X112099000Y-100896700D01*
X112040809Y-100877793D01*
X112004845Y-100828293D01*
X112000000Y-100797700D01*
X112000000Y-100599500D01*
X112018907Y-100541309D01*
X112068407Y-100505345D01*
X112099000Y-100500500D01*
X129901000Y-100500500D01*
X129959191Y-100519407D01*
G37*
%TD.AperFunction*%
%TD*%
M02*
