M48
; DRILL file KiCad 10.0.6 date 2026-09-10T16:16:09
; FORMAT={-:-/ absolute / metric / decimal}
; #@! TF.CreationDate,2026-09-10T16:16:09+09:00
; #@! TF.GenerationSoftware,Kicad,Pcbnew,10.0.6
; #@! TF.FileFunction,Plated,1,2,PTH
FMAT,2
METRIC
; #@! TA.AperFunction,Plated,PTH,ViaDrill
T1C0.300
; #@! TA.AperFunction,Plated,PTH,ComponentDrill
T2C0.300
; #@! TA.AperFunction,Plated,PTH,ComponentDrill
T3C0.600
; #@! TA.AperFunction,Plated,PTH,ComponentDrill
T4C1.000
%
G90
G05
T1
X104.152Y-138.458
X108.447Y-109.396
X108.915Y-116.189
X109.476Y-113.462
X109.54Y-109.944
X110.206Y-134.804
X111.0Y-113.653
X111.539Y-135.67
X111.735Y-115.025
X115.667Y-130.05
X116.568Y-115.143
X117.5Y-109.2
X117.5Y-110.85
X118.499Y-121.497
X123.117Y-104.624
X124.018Y-123.355
X125.178Y-112.053
X126.15Y-103.436
X127.781Y-118.995
X127.822Y-116.517
X128.4Y-107.158
X129.385Y-116.684
X129.446Y-122.373
X129.8Y-107.158
X130.213Y-115.342
X131.576Y-114.107
X131.996Y-113.272
X133.079Y-133.8
X133.425Y-124.307
X134.348Y-107.937
X134.999Y-120.271
X136.115Y-121.293
X137.509Y-117.931
X137.515Y-110.33
X137.649Y-122.373
X139.41Y-122.385
X143.263Y-123.392
X144.334Y-107.357
X149.976Y-109.604
X149.987Y-111.578
X151.843Y-108.959
X152.467Y-118.073
X152.471Y-112.192
X155.371Y-135.793
X156.795Y-128.188
T2
X144.86Y-112.85
X144.86Y-113.95
X145.41Y-112.3
X145.41Y-113.4
X145.41Y-114.5
X145.96Y-112.85
X145.96Y-113.95
X146.51Y-112.3
X146.51Y-113.4
X146.51Y-114.5
X147.06Y-112.85
X147.06Y-113.95
T4
X110.0Y-122.9
X115.0Y-122.9
X122.0Y-114.0
X124.54Y-114.0
X126.0Y-128.0
X127.08Y-114.0
X128.54Y-128.0
X129.62Y-114.0
X131.08Y-128.0
X133.62Y-128.0
X136.16Y-128.0
X138.7Y-128.0
X141.24Y-128.0
X143.78Y-128.0
X146.32Y-128.0
X148.86Y-128.0
T3
X102.25Y-106.68G85X101.65Y-106.68
G05
X102.25Y-115.32G85X101.65Y-115.32
G05
X106.68Y-106.68G85X105.58Y-106.68
G05
X106.68Y-115.32G85X105.58Y-115.32
G05
M30
