%TF.GenerationSoftware,KiCad,Pcbnew,10.0.6*%
%TF.CreationDate,2026-09-10T16:16:09+09:00*%
%TF.ProjectId,astra-board,61737472-612d-4626-9f61-72642e6b6963,rev?*%
%TF.SameCoordinates,Original*%
%TF.FileFunction,Paste,Top*%
%TF.FilePolarity,Positive*%
%FSLAX46Y46*%
G04 Gerber Fmt 4.6, Leading zero omitted, Abs format (unit mm)*
G04 Created by KiCad (PCBNEW 10.0.6) date 2026-09-10 16:16:09*
%MOMM*%
%LPD*%
G01*
G04 APERTURE LIST*
G04 Aperture macros list*
%AMRoundRect*
0 Rectangle with rounded corners*
0 $1 Rounding radius*
0 $2 $3 $4 $5 $6 $7 $8 $9 X,Y pos of 4 corners*
0 Add a 4 corners polygon primitive as box body*
4,1,4,$2,$3,$4,$5,$6,$7,$8,$9,$2,$3,0*
0 Add four circle primitives for the rounded corners*
1,1,$1+$1,$2,$3*
1,1,$1+$1,$4,$5*
1,1,$1+$1,$6,$7*
1,1,$1+$1,$8,$9*
0 Add four rect primitives between the rounded corners*
20,1,$1+$1,$2,$3,$4,$5,0*
20,1,$1+$1,$4,$5,$6,$7,0*
20,1,$1+$1,$6,$7,$8,$9,0*
20,1,$1+$1,$8,$9,$2,$3,0*%
G04 Aperture macros list end*
%ADD10RoundRect,0.090000X-0.660000X-0.360000X0.660000X-0.360000X0.660000X0.360000X-0.660000X0.360000X0*%
%ADD11RoundRect,0.150000X-0.587500X-0.150000X0.587500X-0.150000X0.587500X0.150000X-0.587500X0.150000X0*%
%ADD12RoundRect,0.200000X-0.200000X-0.275000X0.200000X-0.275000X0.200000X0.275000X-0.200000X0.275000X0*%
%ADD13RoundRect,0.250000X0.445000X-0.457500X0.445000X0.457500X-0.445000X0.457500X-0.445000X-0.457500X0*%
%ADD14RoundRect,0.250000X-0.457500X-0.445000X0.457500X-0.445000X0.457500X0.445000X-0.457500X0.445000X0*%
%ADD15RoundRect,0.225000X-0.225000X-0.250000X0.225000X-0.250000X0.225000X0.250000X-0.225000X0.250000X0*%
%ADD16RoundRect,0.150000X-0.512500X-0.150000X0.512500X-0.150000X0.512500X0.150000X-0.512500X0.150000X0*%
%ADD17RoundRect,0.250000X-0.275000X-0.750000X0.275000X-0.750000X0.275000X0.750000X-0.275000X0.750000X0*%
%ADD18RoundRect,0.150000X0.625000X-0.150000X0.625000X0.150000X-0.625000X0.150000X-0.625000X-0.150000X0*%
%ADD19RoundRect,0.250000X0.650000X-0.350000X0.650000X0.350000X-0.650000X0.350000X-0.650000X-0.350000X0*%
%ADD20RoundRect,0.375000X-0.625000X-0.375000X0.625000X-0.375000X0.625000X0.375000X-0.625000X0.375000X0*%
%ADD21RoundRect,0.500000X-0.500000X-1.400000X0.500000X-1.400000X0.500000X1.400000X-0.500000X1.400000X0*%
%ADD22R,0.700000X0.700000*%
%ADD23R,1.500000X0.900000*%
%ADD24RoundRect,0.150000X-0.575000X0.150000X-0.575000X-0.150000X0.575000X-0.150000X0.575000X0.150000X0*%
%ADD25RoundRect,0.075000X-0.650000X0.075000X-0.650000X-0.075000X0.650000X-0.075000X0.650000X0.075000X0*%
G04 APERTURE END LIST*
D10*
%TO.C,D6*%
X138550000Y-134850000D03*
X138550000Y-138150000D03*
X143450000Y-138150000D03*
X143450000Y-134850000D03*
%TD*%
D11*
%TO.C,Q1*%
X122062500Y-116650000D03*
X122062500Y-118550000D03*
X123937500Y-117600000D03*
%TD*%
D12*
%TO.C,R9*%
X120875000Y-128000000D03*
X122525000Y-128000000D03*
%TD*%
D13*
%TO.C,C5*%
X127000000Y-108652500D03*
X127000000Y-105947500D03*
%TD*%
D14*
%TO.C,C6*%
X118647500Y-111000000D03*
X121352500Y-111000000D03*
%TD*%
D12*
%TO.C,R1*%
X109175000Y-115200000D03*
X110825000Y-115200000D03*
%TD*%
%TO.C,R4*%
X129175000Y-121300000D03*
X130825000Y-121300000D03*
%TD*%
%TO.C,R10*%
X120875000Y-130500000D03*
X122525000Y-130500000D03*
%TD*%
D15*
%TO.C,C12*%
X125425000Y-132800000D03*
X126975000Y-132800000D03*
%TD*%
%TO.C,C1*%
X132025000Y-107200000D03*
X133575000Y-107200000D03*
%TD*%
%TO.C,C8*%
X120925000Y-121800000D03*
X122475000Y-121800000D03*
%TD*%
D16*
%TO.C,U4*%
X109462500Y-110750000D03*
X109462500Y-111700000D03*
X109462500Y-112650000D03*
X111737500Y-112650000D03*
X111737500Y-111700000D03*
X111737500Y-110750000D03*
%TD*%
D10*
%TO.C,D7*%
X145950000Y-134850000D03*
X145950000Y-138150000D03*
X150850000Y-138150000D03*
X150850000Y-134850000D03*
%TD*%
D17*
%TO.C,SW4*%
X122775000Y-103000000D03*
X127225000Y-103000000D03*
%TD*%
D16*
%TO.C,U3*%
X120562500Y-123550000D03*
X120562500Y-124500000D03*
X120562500Y-125450000D03*
X122837500Y-125450000D03*
X122837500Y-123550000D03*
%TD*%
D12*
%TO.C,R2*%
X114175000Y-112650000D03*
X115825000Y-112650000D03*
%TD*%
D17*
%TO.C,SW1*%
X131775000Y-124000000D03*
X136225000Y-124000000D03*
%TD*%
D18*
%TO.C,J2*%
X154600000Y-127500000D03*
X154600000Y-126500000D03*
X154600000Y-125500000D03*
X154600000Y-124500000D03*
D19*
X158475000Y-128800000D03*
X158475000Y-123200000D03*
%TD*%
D15*
%TO.C,C9*%
X103225000Y-132800000D03*
X104775000Y-132800000D03*
%TD*%
D20*
%TO.C,U2*%
X112850000Y-103700000D03*
X112850000Y-106000000D03*
D21*
X119150000Y-106000000D03*
D20*
X112850000Y-108300000D03*
%TD*%
D12*
%TO.C,R11*%
X125675000Y-117500000D03*
X127325000Y-117500000D03*
%TD*%
D22*
%TO.C,U1*%
X144860000Y-112300000D03*
X144860000Y-113400000D03*
X144860000Y-114500000D03*
X145960000Y-112300000D03*
X145960000Y-113400000D03*
X145960000Y-114500000D03*
X147060000Y-112300000D03*
X147060000Y-113400000D03*
X147060000Y-114500000D03*
D23*
X136250000Y-107200000D03*
X136250000Y-108700000D03*
X136250000Y-110200000D03*
X136250000Y-111700000D03*
X136250000Y-113200000D03*
X136250000Y-114700000D03*
X136250000Y-116200000D03*
X136250000Y-117700000D03*
X136250000Y-119200000D03*
X153750000Y-119200000D03*
X153750000Y-117700000D03*
X153750000Y-116200000D03*
X153750000Y-114700000D03*
X153750000Y-113200000D03*
X153750000Y-111700000D03*
X153750000Y-110200000D03*
X153750000Y-108700000D03*
X153750000Y-107200000D03*
%TD*%
D12*
%TO.C,R13*%
X125675000Y-122300000D03*
X127325000Y-122300000D03*
%TD*%
D10*
%TO.C,D2*%
X108950000Y-134850000D03*
X108950000Y-138150000D03*
X113850000Y-138150000D03*
X113850000Y-134850000D03*
%TD*%
D12*
%TO.C,R15*%
X114175000Y-114400000D03*
X115825000Y-114400000D03*
%TD*%
%TO.C,R5*%
X133175000Y-121300000D03*
X134825000Y-121300000D03*
%TD*%
%TO.C,R7*%
X149175000Y-122000000D03*
X150825000Y-122000000D03*
%TD*%
D15*
%TO.C,C2*%
X132025000Y-117500000D03*
X133575000Y-117500000D03*
%TD*%
D17*
%TO.C,SW3*%
X101775000Y-102500000D03*
X106225000Y-102500000D03*
%TD*%
D10*
%TO.C,D3*%
X116350000Y-134850000D03*
X116350000Y-138150000D03*
X121250000Y-138150000D03*
X121250000Y-134850000D03*
%TD*%
%TO.C,D8*%
X153350000Y-134850000D03*
X153350000Y-138150000D03*
X158250000Y-138150000D03*
X158250000Y-134850000D03*
%TD*%
%TO.C,D4*%
X123750000Y-134850000D03*
X123750000Y-138150000D03*
X128650000Y-138150000D03*
X128650000Y-134850000D03*
%TD*%
%TO.C,D5*%
X131150000Y-134850000D03*
X131150000Y-138150000D03*
X136050000Y-138150000D03*
X136050000Y-134850000D03*
%TD*%
D12*
%TO.C,R6*%
X137175000Y-121300000D03*
X138825000Y-121300000D03*
%TD*%
D10*
%TO.C,D1*%
X101550000Y-134850000D03*
X101550000Y-138150000D03*
X106450000Y-138150000D03*
X106450000Y-134850000D03*
%TD*%
D24*
%TO.C,J1*%
X107045000Y-107750000D03*
X107045000Y-108550000D03*
D25*
X107045000Y-109750000D03*
X107045000Y-110750000D03*
X107045000Y-111250000D03*
X107045000Y-112250000D03*
D24*
X107045000Y-113450000D03*
X107045000Y-114250000D03*
X107045000Y-114250000D03*
X107045000Y-113450000D03*
D25*
X107045000Y-112750000D03*
X107045000Y-111750000D03*
X107045000Y-110250000D03*
X107045000Y-109250000D03*
D24*
X107045000Y-108550000D03*
X107045000Y-107750000D03*
%TD*%
D12*
%TO.C,R3*%
X131975000Y-110200000D03*
X133625000Y-110200000D03*
%TD*%
D15*
%TO.C,C13*%
X132825000Y-132800000D03*
X134375000Y-132800000D03*
%TD*%
%TO.C,C10*%
X110625000Y-132800000D03*
X112175000Y-132800000D03*
%TD*%
D12*
%TO.C,R8*%
X149175000Y-124000000D03*
X150825000Y-124000000D03*
%TD*%
D15*
%TO.C,C11*%
X118025000Y-132800000D03*
X119575000Y-132800000D03*
%TD*%
%TO.C,C3*%
X108225000Y-103000000D03*
X109775000Y-103000000D03*
%TD*%
D12*
%TO.C,R12*%
X125675000Y-120000000D03*
X127325000Y-120000000D03*
%TD*%
D15*
%TO.C,C14*%
X140225000Y-132800000D03*
X141775000Y-132800000D03*
%TD*%
%TO.C,C7*%
X109225000Y-105900000D03*
X110775000Y-105900000D03*
%TD*%
D13*
%TO.C,C4*%
X124000000Y-108652500D03*
X124000000Y-105947500D03*
%TD*%
D17*
%TO.C,SW2*%
X140775000Y-124000000D03*
X145225000Y-124000000D03*
%TD*%
D12*
%TO.C,R14*%
X114175000Y-110900000D03*
X115825000Y-110900000D03*
%TD*%
D15*
%TO.C,C15*%
X147625000Y-132800000D03*
X149175000Y-132800000D03*
%TD*%
%TO.C,C16*%
X155025000Y-132800000D03*
X156575000Y-132800000D03*
%TD*%
M02*
