%TF.GenerationSoftware,KiCad,Pcbnew,10.0.6*%
%TF.CreationDate,2026-09-10T19:54:18+09:00*%
%TF.ProjectId,astra-board,61737472-612d-4626-9f61-72642e6b6963,rev?*%
%TF.SameCoordinates,Original*%
%TF.FileFunction,Copper,L1,Top*%
%TF.FilePolarity,Positive*%
%FSLAX46Y46*%
G04 Gerber Fmt 4.6, Leading zero omitted, Abs format (unit mm)*
G04 Created by KiCad (PCBNEW 10.0.6) date 2026-09-10 19:54:18*
%MOMM*%
%LPD*%
G01*
G04 APERTURE LIST*
G04 Aperture macros list*
%AMRoundRect*
0 Rectangle with rounded corners*
0 $1 Rounding radius*
0 $2 $3 $4 $5 $6 $7 $8 $9 X,Y pos of 4 corners*
0 Add a 4 corners polygon primitive as box body*
4,1,4,$2,$3,$4,$5,$6,$7,$8,$9,$2,$3,0*
0 Add four circle primitives for the rounded corners*
1,1,$1+$1,$2,$3*
1,1,$1+$1,$4,$5*
1,1,$1+$1,$6,$7*
1,1,$1+$1,$8,$9*
0 Add four rect primitives between the rounded corners*
20,1,$1+$1,$2,$3,$4,$5,0*
20,1,$1+$1,$4,$5,$6,$7,0*
20,1,$1+$1,$6,$7,$8,$9,0*
20,1,$1+$1,$8,$9,$2,$3,0*%
G04 Aperture macros list end*
%TA.AperFunction,SMDPad,CuDef*%
%ADD10RoundRect,0.090000X-0.660000X-0.360000X0.660000X-0.360000X0.660000X0.360000X-0.660000X0.360000X0*%
%TD*%
%TA.AperFunction,SMDPad,CuDef*%
%ADD11RoundRect,0.150000X-0.587500X-0.150000X0.587500X-0.150000X0.587500X0.150000X-0.587500X0.150000X0*%
%TD*%
%TA.AperFunction,ComponentPad*%
%ADD12R,1.700000X1.700000*%
%TD*%
%TA.AperFunction,ComponentPad*%
%ADD13C,1.700000*%
%TD*%
%TA.AperFunction,SMDPad,CuDef*%
%ADD14RoundRect,0.200000X-0.200000X-0.275000X0.200000X-0.275000X0.200000X0.275000X-0.200000X0.275000X0*%
%TD*%
%TA.AperFunction,SMDPad,CuDef*%
%ADD15RoundRect,0.250000X0.457500X0.445000X-0.457500X0.445000X-0.457500X-0.445000X0.457500X-0.445000X0*%
%TD*%
%TA.AperFunction,SMDPad,CuDef*%
%ADD16RoundRect,0.250000X-0.457500X-0.445000X0.457500X-0.445000X0.457500X0.445000X-0.457500X0.445000X0*%
%TD*%
%TA.AperFunction,SMDPad,CuDef*%
%ADD17RoundRect,0.225000X-0.225000X-0.250000X0.225000X-0.250000X0.225000X0.250000X-0.225000X0.250000X0*%
%TD*%
%TA.AperFunction,SMDPad,CuDef*%
%ADD18RoundRect,0.150000X0.150000X-0.512500X0.150000X0.512500X-0.150000X0.512500X-0.150000X-0.512500X0*%
%TD*%
%TA.AperFunction,SMDPad,CuDef*%
%ADD19RoundRect,0.250000X-0.275000X-0.750000X0.275000X-0.750000X0.275000X0.750000X-0.275000X0.750000X0*%
%TD*%
%TA.AperFunction,SMDPad,CuDef*%
%ADD20RoundRect,0.150000X-0.512500X-0.150000X0.512500X-0.150000X0.512500X0.150000X-0.512500X0.150000X0*%
%TD*%
%TA.AperFunction,SMDPad,CuDef*%
%ADD21RoundRect,0.150000X0.625000X-0.150000X0.625000X0.150000X-0.625000X0.150000X-0.625000X-0.150000X0*%
%TD*%
%TA.AperFunction,SMDPad,CuDef*%
%ADD22RoundRect,0.250000X0.650000X-0.350000X0.650000X0.350000X-0.650000X0.350000X-0.650000X-0.350000X0*%
%TD*%
%TA.AperFunction,SMDPad,CuDef*%
%ADD23RoundRect,0.375000X-0.625000X-0.375000X0.625000X-0.375000X0.625000X0.375000X-0.625000X0.375000X0*%
%TD*%
%TA.AperFunction,SMDPad,CuDef*%
%ADD24RoundRect,0.500000X-0.500000X-1.400000X0.500000X-1.400000X0.500000X1.400000X-0.500000X1.400000X0*%
%TD*%
%TA.AperFunction,SMDPad,CuDef*%
%ADD25R,1.500000X0.900000*%
%TD*%
%TA.AperFunction,HeatsinkPad*%
%ADD26C,0.600000*%
%TD*%
%TA.AperFunction,HeatsinkPad*%
%ADD27R,2.900000X2.900000*%
%TD*%
%TA.AperFunction,SMDPad,CuDef*%
%ADD28RoundRect,0.200000X0.200000X0.275000X-0.200000X0.275000X-0.200000X-0.275000X0.200000X-0.275000X0*%
%TD*%
%TA.AperFunction,SMDPad,CuDef*%
%ADD29RoundRect,0.150000X0.575000X-0.150000X0.575000X0.150000X-0.575000X0.150000X-0.575000X-0.150000X0*%
%TD*%
%TA.AperFunction,SMDPad,CuDef*%
%ADD30RoundRect,0.075000X0.650000X-0.075000X0.650000X0.075000X-0.650000X0.075000X-0.650000X-0.075000X0*%
%TD*%
%TA.AperFunction,ComponentPad*%
%ADD31O,2.100000X1.000000*%
%TD*%
%TA.AperFunction,ComponentPad*%
%ADD32O,1.600000X1.000000*%
%TD*%
%TA.AperFunction,ComponentPad*%
%ADD33R,2.000000X2.000000*%
%TD*%
%TA.AperFunction,ComponentPad*%
%ADD34C,2.000000*%
%TD*%
%TA.AperFunction,ViaPad*%
%ADD35C,0.600000*%
%TD*%
%TA.AperFunction,Conductor*%
%ADD36C,0.350000*%
%TD*%
%TA.AperFunction,Conductor*%
%ADD37C,0.600000*%
%TD*%
%TA.AperFunction,Conductor*%
%ADD38C,0.200000*%
%TD*%
%TA.AperFunction,Conductor*%
%ADD39C,0.450000*%
%TD*%
G04 APERTURE END LIST*
D10*
%TO.P,D6,1*%
%TO.N,+5V*%
X138550000Y-134850000D03*
%TO.P,D6,2*%
%TO.N,LED6*%
X138550000Y-138150000D03*
%TO.P,D6,3*%
%TO.N,GND*%
X143450000Y-138150000D03*
%TO.P,D6,4*%
%TO.N,LED5*%
X143450000Y-134850000D03*
%TD*%
D11*
%TO.P,Q1,1*%
%TO.N,BUZZ_BASE*%
X121812500Y-116650000D03*
%TO.P,Q1,2*%
%TO.N,GND*%
X121812500Y-118550000D03*
%TO.P,Q1,3*%
%TO.N,BUZZ_LOW*%
X123687500Y-117600000D03*
%TD*%
D12*
%TO.P,J3,1*%
%TO.N,GND*%
X110000000Y-114500000D03*
D13*
%TO.P,J3,2*%
%TO.N,+3V3*%
X112540000Y-114500000D03*
%TO.P,J3,3*%
%TO.N,SCL*%
X115080000Y-114500000D03*
%TO.P,J3,4*%
%TO.N,SDA*%
X117620000Y-114500000D03*
%TD*%
D14*
%TO.P,R9,1*%
%TO.N,PIXEL*%
X120875000Y-128000000D03*
%TO.P,R9,2*%
%TO.N,GND*%
X122525000Y-128000000D03*
%TD*%
D15*
%TO.P,C5,1*%
%TO.N,+3V3*%
X126552500Y-108000000D03*
%TO.P,C5,2*%
%TO.N,GND*%
X123847500Y-108000000D03*
%TD*%
D16*
%TO.P,C6,1*%
%TO.N,+3V3*%
X118647500Y-111000000D03*
%TO.P,C6,2*%
%TO.N,GND*%
X121352500Y-111000000D03*
%TD*%
D14*
%TO.P,R1,1*%
%TO.N,CC1*%
X149175000Y-118600000D03*
%TO.P,R1,2*%
%TO.N,GND*%
X150825000Y-118600000D03*
%TD*%
%TO.P,R4,1*%
%TO.N,+3V3*%
X129175000Y-121300000D03*
%TO.P,R4,2*%
%TO.N,BOOT*%
X130825000Y-121300000D03*
%TD*%
%TO.P,R10,1*%
%TO.N,PIXEL_5V*%
X120875000Y-130500000D03*
%TO.P,R10,2*%
%TO.N,LED0*%
X122525000Y-130500000D03*
%TD*%
D17*
%TO.P,C12,1*%
%TO.N,+5V*%
X125425000Y-132800000D03*
%TO.P,C12,2*%
%TO.N,GND*%
X126975000Y-132800000D03*
%TD*%
%TO.P,C1,1*%
%TO.N,+3V3*%
X125225000Y-110600000D03*
%TO.P,C1,2*%
%TO.N,GND*%
X126775000Y-110600000D03*
%TD*%
%TO.P,C8,1*%
%TO.N,+5V*%
X120925000Y-121800000D03*
%TO.P,C8,2*%
%TO.N,GND*%
X122475000Y-121800000D03*
%TD*%
D18*
%TO.P,U4,1*%
%TO.N,USB_CONN_P*%
X148550000Y-110937500D03*
%TO.P,U4,2*%
%TO.N,GND*%
X149500000Y-110937500D03*
%TO.P,U4,3*%
%TO.N,USB_CONN_N*%
X150450000Y-110937500D03*
%TO.P,U4,4*%
X150450000Y-108662500D03*
%TO.P,U4,5*%
%TO.N,+5V*%
X149500000Y-108662500D03*
%TO.P,U4,6*%
%TO.N,USB_CONN_P*%
X148550000Y-108662500D03*
%TD*%
D10*
%TO.P,D7,1*%
%TO.N,+5V*%
X145950000Y-134850000D03*
%TO.P,D7,2*%
%TO.N,LED7*%
X145950000Y-138150000D03*
%TO.P,D7,3*%
%TO.N,GND*%
X150850000Y-138150000D03*
%TO.P,D7,4*%
%TO.N,LED6*%
X150850000Y-134850000D03*
%TD*%
D19*
%TO.P,SW4,1*%
%TO.N,BOOT*%
X101775000Y-111000000D03*
%TO.P,SW4,2*%
%TO.N,GND*%
X106225000Y-111000000D03*
%TD*%
D20*
%TO.P,U3,1*%
%TO.N,GND*%
X120562500Y-123550000D03*
%TO.P,U3,2*%
%TO.N,PIXEL*%
X120562500Y-124500000D03*
%TO.P,U3,3*%
%TO.N,GND*%
X120562500Y-125450000D03*
%TO.P,U3,4*%
%TO.N,PIXEL_5V*%
X122837500Y-125450000D03*
%TO.P,U3,5*%
%TO.N,+5V*%
X122837500Y-123550000D03*
%TD*%
D14*
%TO.P,R2,1*%
%TO.N,CC2*%
X149175000Y-116800000D03*
%TO.P,R2,2*%
%TO.N,GND*%
X150825000Y-116800000D03*
%TD*%
D19*
%TO.P,SW1,1*%
%TO.N,BTN1*%
X131775000Y-124000000D03*
%TO.P,SW1,2*%
%TO.N,GND*%
X136225000Y-124000000D03*
%TD*%
D21*
%TO.P,J2,1*%
%TO.N,GND*%
X154600000Y-127500000D03*
%TO.P,J2,2*%
%TO.N,+3V3*%
X154600000Y-126500000D03*
%TO.P,J2,3*%
%TO.N,SDA*%
X154600000Y-125500000D03*
%TO.P,J2,4*%
%TO.N,SCL*%
X154600000Y-124500000D03*
D22*
%TO.P,J2,MP*%
%TO.N,N/C*%
X158475000Y-128800000D03*
X158475000Y-123200000D03*
%TD*%
D17*
%TO.P,C9,1*%
%TO.N,+5V*%
X103225000Y-132800000D03*
%TO.P,C9,2*%
%TO.N,GND*%
X104775000Y-132800000D03*
%TD*%
D23*
%TO.P,U2,1*%
%TO.N,GND*%
X112850000Y-103700000D03*
%TO.P,U2,2*%
%TO.N,+3V3*%
X112850000Y-106000000D03*
D24*
X119150000Y-106000000D03*
D23*
%TO.P,U2,3*%
%TO.N,+5V*%
X112850000Y-108300000D03*
%TD*%
D14*
%TO.P,R11,1*%
%TO.N,BUZZ*%
X125425000Y-117500000D03*
%TO.P,R11,2*%
%TO.N,BUZZ_BASE*%
X127075000Y-117500000D03*
%TD*%
D25*
%TO.P,U1,1*%
%TO.N,+3V3*%
X128750000Y-107200000D03*
%TO.P,U1,2*%
%TO.N,EN*%
X128750000Y-108700000D03*
%TO.P,U1,3*%
%TO.N,SDA*%
X128750000Y-110200000D03*
%TO.P,U1,4*%
%TO.N,SCL*%
X128750000Y-111700000D03*
%TO.P,U1,5*%
%TO.N,PIXEL*%
X128750000Y-113200000D03*
%TO.P,U1,6*%
%TO.N,BUZZ*%
X128750000Y-114700000D03*
%TO.P,U1,7*%
%TO.N,IO8*%
X128750000Y-116200000D03*
%TO.P,U1,8*%
%TO.N,BOOT*%
X128750000Y-117700000D03*
%TO.P,U1,9*%
%TO.N,GND*%
X128750000Y-119200000D03*
%TO.P,U1,10*%
%TO.N,IO10*%
X146250000Y-119200000D03*
%TO.P,U1,11*%
%TO.N,RX*%
X146250000Y-117700000D03*
%TO.P,U1,12*%
%TO.N,TX*%
X146250000Y-116200000D03*
%TO.P,U1,13*%
%TO.N,USB_N*%
X146250000Y-114700000D03*
%TO.P,U1,14*%
%TO.N,USB_P*%
X146250000Y-113200000D03*
%TO.P,U1,15*%
%TO.N,IO3*%
X146250000Y-111700000D03*
%TO.P,U1,16*%
%TO.N,IO2*%
X146250000Y-110200000D03*
%TO.P,U1,17*%
%TO.N,BTN2*%
X146250000Y-108700000D03*
%TO.P,U1,18*%
%TO.N,BTN1*%
X146250000Y-107200000D03*
D26*
%TO.P,U1,19*%
%TO.N,GND*%
X137360000Y-112850000D03*
X137360000Y-113950000D03*
X137910000Y-112300000D03*
X137910000Y-113400000D03*
X137910000Y-114500000D03*
X138460000Y-112850000D03*
D27*
X138460000Y-113400000D03*
D26*
X138460000Y-113950000D03*
X139010000Y-112300000D03*
X139010000Y-113400000D03*
X139010000Y-114500000D03*
X139560000Y-112850000D03*
X139560000Y-113950000D03*
%TD*%
D14*
%TO.P,R13,1*%
%TO.N,+5V*%
X125675000Y-122300000D03*
%TO.P,R13,2*%
%TO.N,BUZZ_LOW*%
X127325000Y-122300000D03*
%TD*%
D10*
%TO.P,D2,1*%
%TO.N,+5V*%
X108950000Y-134850000D03*
%TO.P,D2,2*%
%TO.N,LED2*%
X108950000Y-138150000D03*
%TO.P,D2,3*%
%TO.N,GND*%
X113850000Y-138150000D03*
%TO.P,D2,4*%
%TO.N,LED1*%
X113850000Y-134850000D03*
%TD*%
D28*
%TO.P,R15,1*%
%TO.N,USB_CONN_N*%
X150225000Y-114900000D03*
%TO.P,R15,2*%
%TO.N,USB_N*%
X148575000Y-114900000D03*
%TD*%
D14*
%TO.P,R5,1*%
%TO.N,+3V3*%
X133175000Y-121300000D03*
%TO.P,R5,2*%
%TO.N,IO2*%
X134825000Y-121300000D03*
%TD*%
%TO.P,R7,1*%
%TO.N,+3V3*%
X149175000Y-122000000D03*
%TO.P,R7,2*%
%TO.N,SDA*%
X150825000Y-122000000D03*
%TD*%
D17*
%TO.P,C2,1*%
%TO.N,EN*%
X125225000Y-114400000D03*
%TO.P,C2,2*%
%TO.N,GND*%
X126775000Y-114400000D03*
%TD*%
D19*
%TO.P,SW3,1*%
%TO.N,EN*%
X101775000Y-102500000D03*
%TO.P,SW3,2*%
%TO.N,GND*%
X106225000Y-102500000D03*
%TD*%
D10*
%TO.P,D3,1*%
%TO.N,+5V*%
X116350000Y-134850000D03*
%TO.P,D3,2*%
%TO.N,LED3*%
X116350000Y-138150000D03*
%TO.P,D3,3*%
%TO.N,GND*%
X121250000Y-138150000D03*
%TO.P,D3,4*%
%TO.N,LED2*%
X121250000Y-134850000D03*
%TD*%
%TO.P,D8,1*%
%TO.N,+5V*%
X153350000Y-134850000D03*
%TO.P,D8,2*%
%TO.N,N/C*%
X153350000Y-138150000D03*
%TO.P,D8,3*%
%TO.N,GND*%
X158250000Y-138150000D03*
%TO.P,D8,4*%
%TO.N,LED7*%
X158250000Y-134850000D03*
%TD*%
%TO.P,D4,1*%
%TO.N,+5V*%
X123750000Y-134850000D03*
%TO.P,D4,2*%
%TO.N,LED4*%
X123750000Y-138150000D03*
%TO.P,D4,3*%
%TO.N,GND*%
X128650000Y-138150000D03*
%TO.P,D4,4*%
%TO.N,LED3*%
X128650000Y-134850000D03*
%TD*%
%TO.P,D5,1*%
%TO.N,+5V*%
X131150000Y-134850000D03*
%TO.P,D5,2*%
%TO.N,LED5*%
X131150000Y-138150000D03*
%TO.P,D5,3*%
%TO.N,GND*%
X136050000Y-138150000D03*
%TO.P,D5,4*%
%TO.N,LED4*%
X136050000Y-134850000D03*
%TD*%
D14*
%TO.P,R6,1*%
%TO.N,+3V3*%
X137175000Y-121300000D03*
%TO.P,R6,2*%
%TO.N,IO8*%
X138825000Y-121300000D03*
%TD*%
D10*
%TO.P,D1,1*%
%TO.N,+5V*%
X101550000Y-134850000D03*
%TO.P,D1,2*%
%TO.N,LED1*%
X101550000Y-138150000D03*
%TO.P,D1,3*%
%TO.N,GND*%
X106450000Y-138150000D03*
%TO.P,D1,4*%
%TO.N,LED0*%
X106450000Y-134850000D03*
%TD*%
D29*
%TO.P,J1,A1*%
%TO.N,GND*%
X152955000Y-115250000D03*
%TO.P,J1,A4*%
%TO.N,+5V*%
X152955000Y-114450000D03*
D30*
%TO.P,J1,A5*%
%TO.N,CC1*%
X152955000Y-113250000D03*
%TO.P,J1,A6*%
%TO.N,USB_CONN_P*%
X152955000Y-112250000D03*
%TO.P,J1,A7*%
%TO.N,USB_CONN_N*%
X152955000Y-111750000D03*
%TO.P,J1,A8*%
%TO.N,N/C*%
X152955000Y-110750000D03*
D29*
%TO.P,J1,A9*%
%TO.N,+5V*%
X152955000Y-109550000D03*
%TO.P,J1,A12*%
%TO.N,GND*%
X152955000Y-108750000D03*
%TO.P,J1,B1*%
X152955000Y-108750000D03*
%TO.P,J1,B4*%
%TO.N,+5V*%
X152955000Y-109550000D03*
D30*
%TO.P,J1,B5*%
%TO.N,CC2*%
X152955000Y-110250000D03*
%TO.P,J1,B6*%
%TO.N,USB_CONN_P*%
X152955000Y-111250000D03*
%TO.P,J1,B7*%
%TO.N,USB_CONN_N*%
X152955000Y-112750000D03*
%TO.P,J1,B8*%
%TO.N,N/C*%
X152955000Y-113750000D03*
D29*
%TO.P,J1,B9*%
%TO.N,+5V*%
X152955000Y-114450000D03*
%TO.P,J1,B12*%
%TO.N,GND*%
X152955000Y-115250000D03*
D31*
%TO.P,J1,SH*%
X153870000Y-116320000D03*
D32*
X158050000Y-116320000D03*
D31*
X153870000Y-107680000D03*
D32*
X158050000Y-107680000D03*
%TD*%
D14*
%TO.P,R3,1*%
%TO.N,+3V3*%
X125175000Y-112500000D03*
%TO.P,R3,2*%
%TO.N,EN*%
X126825000Y-112500000D03*
%TD*%
D17*
%TO.P,C13,1*%
%TO.N,+5V*%
X132825000Y-132800000D03*
%TO.P,C13,2*%
%TO.N,GND*%
X134375000Y-132800000D03*
%TD*%
%TO.P,C10,1*%
%TO.N,+5V*%
X110625000Y-132800000D03*
%TO.P,C10,2*%
%TO.N,GND*%
X112175000Y-132800000D03*
%TD*%
D14*
%TO.P,R8,1*%
%TO.N,+3V3*%
X149175000Y-124000000D03*
%TO.P,R8,2*%
%TO.N,SCL*%
X150825000Y-124000000D03*
%TD*%
D17*
%TO.P,C11,1*%
%TO.N,+5V*%
X118025000Y-132800000D03*
%TO.P,C11,2*%
%TO.N,GND*%
X119575000Y-132800000D03*
%TD*%
D33*
%TO.P,BZ1,1*%
%TO.N,+5V*%
X110000000Y-122900000D03*
D34*
%TO.P,BZ1,2*%
%TO.N,BUZZ_LOW*%
X115000000Y-122900000D03*
%TD*%
D17*
%TO.P,C3,1*%
%TO.N,+5V*%
X108225000Y-103000000D03*
%TO.P,C3,2*%
%TO.N,GND*%
X109775000Y-103000000D03*
%TD*%
D14*
%TO.P,R12,1*%
%TO.N,BUZZ_BASE*%
X125425000Y-120000000D03*
%TO.P,R12,2*%
%TO.N,GND*%
X127075000Y-120000000D03*
%TD*%
D12*
%TO.P,J4,1*%
%TO.N,GND*%
X126000000Y-128000000D03*
D13*
%TO.P,J4,2*%
%TO.N,+3V3*%
X128540000Y-128000000D03*
%TO.P,J4,3*%
%TO.N,+5V*%
X131080000Y-128000000D03*
%TO.P,J4,4*%
%TO.N,IO2*%
X133620000Y-128000000D03*
%TO.P,J4,5*%
%TO.N,IO3*%
X136160000Y-128000000D03*
%TO.P,J4,6*%
%TO.N,IO8*%
X138700000Y-128000000D03*
%TO.P,J4,7*%
%TO.N,IO10*%
X141240000Y-128000000D03*
%TO.P,J4,8*%
%TO.N,RX*%
X143780000Y-128000000D03*
%TO.P,J4,9*%
%TO.N,TX*%
X146320000Y-128000000D03*
%TO.P,J4,10*%
%TO.N,GND*%
X148860000Y-128000000D03*
%TD*%
D17*
%TO.P,C14,1*%
%TO.N,+5V*%
X140225000Y-132800000D03*
%TO.P,C14,2*%
%TO.N,GND*%
X141775000Y-132800000D03*
%TD*%
%TO.P,C7,1*%
%TO.N,+5V*%
X157225000Y-120300000D03*
%TO.P,C7,2*%
%TO.N,GND*%
X158775000Y-120300000D03*
%TD*%
D16*
%TO.P,C4,1*%
%TO.N,+3V3*%
X109647500Y-111000000D03*
%TO.P,C4,2*%
%TO.N,GND*%
X112352500Y-111000000D03*
%TD*%
D19*
%TO.P,SW2,1*%
%TO.N,BTN2*%
X140775000Y-124000000D03*
%TO.P,SW2,2*%
%TO.N,GND*%
X145225000Y-124000000D03*
%TD*%
D28*
%TO.P,R14,1*%
%TO.N,USB_CONN_P*%
X150225000Y-113200000D03*
%TO.P,R14,2*%
%TO.N,USB_P*%
X148575000Y-113200000D03*
%TD*%
D17*
%TO.P,C15,1*%
%TO.N,+5V*%
X147625000Y-132800000D03*
%TO.P,C15,2*%
%TO.N,GND*%
X149175000Y-132800000D03*
%TD*%
%TO.P,C16,1*%
%TO.N,+5V*%
X155025000Y-132800000D03*
%TO.P,C16,2*%
%TO.N,GND*%
X156575000Y-132800000D03*
%TD*%
D35*
%TO.N,+5V*%
X117661400Y-134850000D03*
X154292700Y-135792700D03*
X120137200Y-121012200D03*
X156259700Y-120943700D03*
X151720400Y-115150000D03*
X102980400Y-134850000D03*
X110779400Y-106229000D03*
X151520400Y-109550000D03*
%TO.N,GND*%
X125646300Y-121011700D03*
X122802100Y-108953600D03*
X149500000Y-110137500D03*
X147900000Y-109937500D03*
X121367900Y-126255400D03*
X135194900Y-125030100D03*
X147503600Y-112245800D03*
X151500000Y-107137500D03*
%TO.N,BUZZ_BASE*%
X123462500Y-120112500D03*
X121662500Y-117112500D03*
%TO.N,BUZZ_LOW*%
X123937500Y-116775200D03*
X126586500Y-121561500D03*
X122143200Y-124438200D03*
%TO.N,+3V3*%
X121184500Y-109790500D03*
%TO.N,SCL*%
X130001900Y-112347400D03*
%TO.N,SDA*%
X130704500Y-110949800D03*
%TO.N,PIXEL*%
X121279500Y-119420000D03*
X130040700Y-113734500D03*
%TO.N,CC1*%
X151687600Y-117450900D03*
X155246100Y-112800000D03*
%TO.N,BOOT*%
X125235100Y-116507900D03*
X130526500Y-118449800D03*
%TO.N,LED0*%
X107378700Y-133921300D03*
X121788600Y-131236400D03*
%TO.N,USB_CONN_N*%
X150850000Y-110937500D03*
X150555000Y-109350000D03*
X151755000Y-111950000D03*
X150450000Y-114337500D03*
%TO.N,LED7*%
X158250000Y-133889700D03*
X154955900Y-137183800D03*
%TO.N,CC2*%
X148439300Y-117535700D03*
X154188100Y-110299500D03*
%TO.N,BTN1*%
X141883500Y-107434300D03*
X132843500Y-124306700D03*
%TO.N,EN*%
X105196100Y-101453000D03*
X126043300Y-109764300D03*
%TO.N,IO8*%
X130037500Y-115991400D03*
%TO.N,IO10*%
X145198300Y-120098000D03*
%TO.N,RX*%
X144989000Y-117934300D03*
%TO.N,TX*%
X147516500Y-116599300D03*
%TO.N,IO3*%
X144989000Y-111934300D03*
%TO.N,IO2*%
X144989000Y-110434300D03*
X134825000Y-120304100D03*
%TO.N,BTN2*%
X144989000Y-108934300D03*
X141832100Y-124306700D03*
%TO.N,LED2*%
X120316900Y-133916900D03*
X116444400Y-137193900D03*
%TO.N,LED1*%
X112898500Y-135801500D03*
X102481900Y-137218100D03*
%TD*%
%TO.N,+5V*%
D36*
X153755000Y-114450000D02*
X154155000Y-114050000D01*
D37*
X102980400Y-134850000D02*
X101550000Y-134850000D01*
D38*
X149700000Y-108062500D02*
X150100000Y-107662500D01*
D37*
X112850000Y-108300000D02*
X110779400Y-106229400D01*
X123750000Y-134850000D02*
X122751400Y-135848600D01*
X153350000Y-133837800D02*
X148662800Y-133837800D01*
D39*
X152520400Y-114350000D02*
X152955000Y-114450000D01*
D38*
X149700000Y-108462500D02*
X149700000Y-108062500D01*
D37*
X132825000Y-132800000D02*
X128660800Y-132800000D01*
X151270400Y-109800000D02*
X151368600Y-109701800D01*
D38*
X150900000Y-107662500D02*
X151100000Y-107862500D01*
D37*
X132823900Y-132801100D02*
X132825000Y-132800000D01*
X154292700Y-135792700D02*
X153350000Y-134850000D01*
X156259700Y-120943700D02*
X156581300Y-120943700D01*
X111501700Y-122900000D02*
X113055100Y-121346600D01*
X116952800Y-133872200D02*
X116350000Y-133872200D01*
X109927800Y-133872200D02*
X108950000Y-134850000D01*
X132823900Y-133176100D02*
X131150000Y-134850000D01*
X118025000Y-132800000D02*
X116952800Y-133872200D01*
X128660800Y-132800000D02*
X126610800Y-134850000D01*
X120471600Y-121346600D02*
X120925000Y-121800000D01*
D39*
X151720400Y-114950000D02*
X151920400Y-114750000D01*
X156155000Y-115450000D02*
X156155000Y-120050000D01*
D37*
X140225000Y-132800000D02*
X136019500Y-132800000D01*
X145950000Y-133837800D02*
X140111000Y-133837800D01*
X118660000Y-135848600D02*
X117661400Y-134850000D01*
X133423900Y-133776100D02*
X132823900Y-133176100D01*
X110779400Y-106229400D02*
X110779400Y-106229000D01*
X124425000Y-123550000D02*
X122837500Y-123550000D01*
X139836600Y-133188400D02*
X140225000Y-132800000D01*
X113055100Y-121346600D02*
X120137200Y-121346600D01*
X148662800Y-133837800D02*
X147625000Y-132800000D01*
D39*
X151520400Y-109550000D02*
X152955000Y-109550000D01*
D37*
X139836600Y-133563400D02*
X138550000Y-134850000D01*
X133824100Y-133776100D02*
X133423900Y-133776100D01*
D36*
X152955000Y-114450000D02*
X153755000Y-114450000D01*
D39*
X156155000Y-120050000D02*
X156355000Y-120250000D01*
D37*
X108950000Y-134475000D02*
X108950000Y-134850000D01*
X145950000Y-133837800D02*
X145950000Y-134850000D01*
X153350000Y-133837800D02*
X153350000Y-134850000D01*
X122675000Y-123550000D02*
X122837500Y-123550000D01*
D39*
X135089300Y-133730200D02*
X133870000Y-133730200D01*
D37*
X132823900Y-133176100D02*
X132823900Y-132801100D01*
D39*
X151720400Y-115150000D02*
X151720400Y-114950000D01*
X156355000Y-120650000D02*
X156581300Y-120943700D01*
X154155000Y-114050000D02*
X154755000Y-114050000D01*
D37*
X110625000Y-132800000D02*
X108950000Y-134475000D01*
D39*
X154755000Y-114050000D02*
X156155000Y-115450000D01*
D37*
X147625000Y-132800000D02*
X146587200Y-133837800D01*
D38*
X149500000Y-108662500D02*
X149700000Y-108462500D01*
D37*
X108225000Y-103674600D02*
X110779400Y-106229000D01*
D39*
X151920400Y-114750000D02*
X151920400Y-114550000D01*
D37*
X125675000Y-122300000D02*
X124425000Y-123550000D01*
X101550000Y-134475000D02*
X101550000Y-134850000D01*
X116350000Y-133872200D02*
X116350000Y-134850000D01*
X126610800Y-134850000D02*
X123750000Y-134850000D01*
X116350000Y-133872200D02*
X109927800Y-133872200D01*
D39*
X133870000Y-133730200D02*
X133824100Y-133776100D01*
X152320400Y-114350000D02*
X152520400Y-114350000D01*
D37*
X123750000Y-134475000D02*
X123750000Y-134850000D01*
X136019500Y-132800000D02*
X135089300Y-133730200D01*
X155025000Y-132800000D02*
X153987200Y-133837800D01*
X117661400Y-134850000D02*
X116350000Y-134850000D01*
D39*
X152120400Y-114550000D02*
X152320400Y-114350000D01*
D37*
X156581300Y-120943700D02*
X157225000Y-120300000D01*
X108225000Y-103000000D02*
X108225000Y-103674600D01*
D39*
X151920400Y-114550000D02*
X152120400Y-114550000D01*
D37*
X120137200Y-121012200D02*
X120137200Y-121346600D01*
D39*
X151368600Y-109701800D02*
X151520400Y-109550000D01*
X156355000Y-120250000D02*
X156355000Y-120650000D01*
D37*
X125425000Y-132800000D02*
X123750000Y-134475000D01*
X110000000Y-122900000D02*
X111501700Y-122900000D01*
X140111000Y-133837800D02*
X139836600Y-133563400D01*
D38*
X151100000Y-107862500D02*
X151100000Y-109062500D01*
X151300000Y-109262500D02*
X151300000Y-109462500D01*
D37*
X120925000Y-121800000D02*
X122675000Y-123550000D01*
X120137200Y-121346600D02*
X120471600Y-121346600D01*
X103225000Y-132800000D02*
X101550000Y-134475000D01*
X122751400Y-135848600D02*
X118660000Y-135848600D01*
D38*
X150100000Y-107662500D02*
X150900000Y-107662500D01*
D37*
X146587200Y-133837800D02*
X145950000Y-133837800D01*
X139836600Y-133563400D02*
X139836600Y-133188400D01*
D38*
X151100000Y-109062500D02*
X151300000Y-109262500D01*
D37*
X153987200Y-133837800D02*
X153350000Y-133837800D01*
D38*
X151300000Y-109462500D02*
X151270400Y-109800000D01*
%TO.N,LED6*%
X141343900Y-138002800D02*
X139802300Y-138002800D01*
X143565200Y-135781500D02*
X141343900Y-138002800D01*
X139802300Y-138002800D02*
X138697200Y-138002800D01*
X149918500Y-135781500D02*
X143565200Y-135781500D01*
X138697200Y-138002800D02*
X138550000Y-138150000D01*
X149918500Y-135781500D02*
X150850000Y-134850000D01*
%TO.N,GND*%
X104775000Y-136475000D02*
X104775000Y-132800000D01*
X153331600Y-116657800D02*
X153331600Y-116320000D01*
X151500000Y-107137500D02*
X152900000Y-107137500D01*
X106450000Y-138150000D02*
X104775000Y-136475000D01*
X138500600Y-138900500D02*
X138256000Y-139145100D01*
X143450000Y-138900500D02*
X139448600Y-138900500D01*
X122475000Y-118962500D02*
X121812500Y-118550000D01*
X116300600Y-138900500D02*
X116056000Y-139145100D01*
X151389400Y-118600000D02*
X153331600Y-116657800D01*
X141775000Y-132021400D02*
X141775000Y-132800000D01*
X149175000Y-132021400D02*
X149175000Y-132800000D01*
X123847500Y-108000000D02*
X122893900Y-108953600D01*
X135194900Y-125030100D02*
X136225000Y-124000000D01*
X120971300Y-123550000D02*
X121541500Y-124120200D01*
X122475000Y-120781100D02*
X125646300Y-120781100D01*
X134375000Y-132021400D02*
X134375000Y-132800000D01*
X143450000Y-138900500D02*
X143450000Y-138150000D01*
X108986500Y-102211500D02*
X109775000Y-103000000D01*
X148056700Y-138150000D02*
X147306200Y-138900500D01*
X152518300Y-116320000D02*
X152518300Y-115686700D01*
X147364500Y-110415800D02*
X147980300Y-109800000D01*
X126543900Y-120781100D02*
X127075000Y-120000000D01*
X110000000Y-114500000D02*
X108848300Y-114500000D01*
X113357400Y-112004900D02*
X120347600Y-112004900D01*
X149500000Y-110937500D02*
X149500000Y-110137500D01*
X119129700Y-138900500D02*
X119880200Y-138150000D01*
X108848300Y-113623300D02*
X106225000Y-111000000D01*
X159151700Y-116320000D02*
X159151700Y-119923300D01*
X156575000Y-132800000D02*
X156575000Y-136475000D01*
X148860000Y-128000000D02*
X154100000Y-128000000D01*
X104775000Y-132800000D02*
X105564800Y-132010200D01*
X153331600Y-116320000D02*
X152518300Y-116320000D01*
X107255300Y-109969700D02*
X111322200Y-109969700D01*
X129899300Y-138500100D02*
X129000100Y-138500100D01*
X125361100Y-115176100D02*
X125372900Y-115187900D01*
X130301200Y-138902000D02*
X130099500Y-138700300D01*
X147364500Y-112106700D02*
X147364500Y-110415800D01*
X107222700Y-138922700D02*
X106450000Y-138150000D01*
X122245100Y-139145100D02*
X121250000Y-138150000D01*
X127532400Y-113642600D02*
X127532400Y-111357400D01*
X152900000Y-107137500D02*
X153100000Y-107337500D01*
X127532400Y-111357400D02*
X126775000Y-110600000D01*
X127280200Y-138150000D02*
X126529700Y-138900500D01*
X121541500Y-125100800D02*
X120911700Y-125100800D01*
X134375000Y-132021400D02*
X141775000Y-132021400D01*
X147503600Y-112245800D02*
X147364500Y-112106700D01*
X113850000Y-138922700D02*
X113850000Y-138150000D01*
X139448600Y-138900500D02*
X138500600Y-138900500D01*
X106225000Y-102500000D02*
X106513500Y-102211500D01*
X125646300Y-121011700D02*
X125646300Y-120781100D01*
X149175000Y-132021400D02*
X155796400Y-132021400D01*
X125987100Y-115187900D02*
X126775000Y-114400000D01*
X111322200Y-109969700D02*
X112352500Y-111000000D01*
X125372900Y-115187900D02*
X125987100Y-115187900D01*
X152501200Y-138902000D02*
X152299500Y-138700300D01*
X138256000Y-139145100D02*
X137045100Y-139145100D01*
X132353600Y-127621400D02*
X134753600Y-125221400D01*
X127753600Y-132021400D02*
X130553600Y-129221400D01*
X114072400Y-139145100D02*
X113850000Y-138922700D01*
X132353600Y-128421400D02*
X132353600Y-127621400D01*
X116056000Y-139145100D02*
X114072400Y-139145100D01*
X127698300Y-119626700D02*
X127698300Y-119200000D01*
X154100000Y-128000000D02*
X154600000Y-127500000D01*
X106225000Y-108939400D02*
X106225000Y-102500000D01*
X150850000Y-138150000D02*
X148056700Y-138150000D01*
X134753600Y-125221400D02*
X135194900Y-125030100D01*
X123819600Y-131825000D02*
X122844600Y-132800000D01*
X120911700Y-125100800D02*
X120562500Y-125450000D01*
X148860000Y-128000000D02*
X148860000Y-127635000D01*
X105564800Y-132010200D02*
X111385200Y-132010200D01*
X153500000Y-107537500D02*
X153870000Y-107680000D01*
X128650000Y-138150000D02*
X127280200Y-138150000D01*
X123456000Y-139145100D02*
X122245100Y-139145100D01*
X107255300Y-109969700D02*
X106225000Y-108939400D01*
X120562500Y-123550000D02*
X120971300Y-123550000D01*
X123170600Y-115176100D02*
X125361100Y-115176100D01*
X120562500Y-125450000D02*
X121367900Y-126255400D01*
X120347600Y-112353100D02*
X123170600Y-115176100D01*
X112150000Y-103000000D02*
X112850000Y-103700000D01*
X135298000Y-138902000D02*
X130301200Y-138902000D01*
X127753600Y-132021400D02*
X134375000Y-132021400D01*
X126529700Y-138900500D02*
X123700600Y-138900500D01*
X120347600Y-112004900D02*
X120347600Y-112353100D01*
X147900000Y-109937500D02*
X147980300Y-109800000D01*
X155796400Y-132021400D02*
X156575000Y-132800000D01*
X152518300Y-107680000D02*
X152518300Y-108313300D01*
X158250000Y-138150000D02*
X157498000Y-138902000D01*
X153100000Y-107337500D02*
X153300000Y-107337500D01*
X157498000Y-138902000D02*
X152501200Y-138902000D01*
X149500000Y-110137500D02*
X149500000Y-109937500D01*
X152099300Y-138500100D02*
X151200100Y-138500100D01*
X121541500Y-124120200D02*
X121541500Y-125100800D01*
X109775000Y-103000000D02*
X112150000Y-103000000D01*
X150825000Y-118600000D02*
X151389400Y-118600000D01*
X119129700Y-138900500D02*
X116300600Y-138900500D01*
X106225000Y-111000000D02*
X107255300Y-109969700D01*
X141775000Y-132021400D02*
X149175000Y-132021400D01*
X156575000Y-136475000D02*
X158250000Y-138150000D01*
X126000000Y-131825000D02*
X126975000Y-132800000D01*
X145900600Y-138900500D02*
X145656000Y-139145100D01*
X119880200Y-138150000D02*
X121250000Y-138150000D01*
X152518300Y-108313300D02*
X152955000Y-108750000D01*
X128750000Y-119200000D02*
X127698300Y-119200000D01*
X152518300Y-116320000D02*
X151305000Y-116320000D01*
X130553600Y-129221400D02*
X131553600Y-129221400D01*
X145656000Y-139145100D02*
X143694600Y-139145100D01*
X127075000Y-120000000D02*
X127698300Y-119626700D01*
X159151700Y-119923300D02*
X158775000Y-120300000D01*
X120347600Y-112004900D02*
X121352500Y-111000000D01*
X152299500Y-138700300D02*
X152099300Y-138500100D01*
X151305000Y-116320000D02*
X150825000Y-116800000D01*
X112352500Y-111000000D02*
X113357400Y-112004900D01*
X129000100Y-138500100D02*
X128650000Y-138150000D01*
X122893900Y-108953600D02*
X122802100Y-108953600D01*
X111385200Y-132010200D02*
X112175000Y-132800000D01*
X143694600Y-139145100D02*
X143450000Y-138900500D01*
X126775000Y-114400000D02*
X127532400Y-113642600D01*
X123700600Y-138900500D02*
X123456000Y-139145100D01*
X113850000Y-138922700D02*
X107222700Y-138922700D01*
X126000000Y-131825000D02*
X123819600Y-131825000D01*
X151200100Y-138500100D02*
X150850000Y-138150000D01*
X137045100Y-139145100D02*
X136050000Y-138150000D01*
X136050000Y-138150000D02*
X135298000Y-138902000D01*
X153870000Y-116320000D02*
X153331600Y-116320000D01*
X147306200Y-138900500D02*
X145900600Y-138900500D01*
X152518300Y-115686700D02*
X152955000Y-115250000D01*
X122475000Y-121800000D02*
X122475000Y-120781100D01*
X131553600Y-129221400D02*
X132353600Y-128421400D01*
X126000000Y-128000000D02*
X122525000Y-128000000D01*
X122475000Y-120781100D02*
X122475000Y-118962500D01*
X153300000Y-107337500D02*
X153500000Y-107537500D01*
X148860000Y-127635000D02*
X145225000Y-124000000D01*
X108848300Y-114500000D02*
X108848300Y-113623300D01*
X122844600Y-132800000D02*
X119575000Y-132800000D01*
X106513500Y-102211500D02*
X108986500Y-102211500D01*
X153870000Y-107680000D02*
X152518300Y-107680000D01*
X130099500Y-138700300D02*
X129899300Y-138500100D01*
X126000000Y-128000000D02*
X126000000Y-131825000D01*
X126975000Y-132800000D02*
X127753600Y-132021400D01*
X158050000Y-116320000D02*
X159151700Y-116320000D01*
X125646300Y-120781100D02*
X126543900Y-120781100D01*
%TO.N,LED5*%
X133516600Y-135783400D02*
X131150000Y-138150000D01*
X142516600Y-135783400D02*
X143450000Y-134850000D01*
X142516600Y-135783400D02*
X133516600Y-135783400D01*
%TO.N,BUZZ_BASE*%
X124662500Y-120112500D02*
X124950000Y-120000000D01*
X125425000Y-120000000D02*
X125675000Y-119150000D01*
X122062500Y-117112500D02*
X121812500Y-116650000D01*
X125675000Y-119150000D02*
X127075000Y-117500000D01*
X125425000Y-120000000D02*
X124950000Y-120000000D01*
X123462500Y-120112500D02*
X124662500Y-120112500D01*
X122062500Y-117112500D02*
X121662500Y-117112500D01*
%TO.N,BUZZ_LOW*%
X127325000Y-122300000D02*
X126586500Y-121561500D01*
X123687500Y-117600000D02*
X123937500Y-116775200D01*
X125186800Y-124438200D02*
X127325000Y-122300000D01*
X122143200Y-124438200D02*
X125186800Y-124438200D01*
%TO.N,+3V3*%
D37*
X125175000Y-110600000D02*
X124563800Y-109988700D01*
X132181900Y-122293100D02*
X130168100Y-122293100D01*
D39*
X128750000Y-107200000D02*
X127573300Y-107200000D01*
D37*
X125175000Y-110600000D02*
X125175000Y-112500000D01*
X124261600Y-109790500D02*
X124459900Y-109988800D01*
X124459900Y-109988800D02*
X124563700Y-109988800D01*
X128540000Y-128000000D02*
X128540000Y-123921200D01*
X149175000Y-122309300D02*
X137175000Y-122309300D01*
X154495100Y-126604900D02*
X154600000Y-126500000D01*
X112540000Y-113892500D02*
X109647500Y-111000000D01*
X137175000Y-121300000D02*
X137175000Y-122309300D01*
X124563700Y-109988800D02*
X124563800Y-109988700D01*
X130168100Y-122293100D02*
X129175000Y-121300000D01*
X118647500Y-106502500D02*
X119150000Y-106000000D01*
D39*
X127023500Y-107749800D02*
X127573300Y-107200000D01*
D37*
X137175000Y-122309300D02*
X134184300Y-122309300D01*
X128540000Y-123921200D02*
X130168100Y-122293100D01*
X118647500Y-106502500D02*
X113352500Y-106502500D01*
X118647500Y-111000000D02*
X118647500Y-109790500D01*
X118647500Y-109790500D02*
X121184500Y-109790500D01*
X126552500Y-108000000D02*
X126552500Y-107749800D01*
X153229900Y-126604900D02*
X151779900Y-126604900D01*
X118647500Y-109790500D02*
X118647500Y-106502500D01*
X134184300Y-122309300D02*
X133175000Y-121300000D01*
X124563800Y-109988700D02*
X126552500Y-108000000D01*
X121184500Y-109790500D02*
X124261600Y-109790500D01*
X113352500Y-106502500D02*
X112850000Y-106000000D01*
X112540000Y-114500000D02*
X112540000Y-113892500D01*
D39*
X126552500Y-107749800D02*
X127023500Y-107749800D01*
D37*
X133175000Y-121300000D02*
X132181900Y-122293100D01*
X149175000Y-122309300D02*
X149175000Y-122000000D01*
X125225000Y-110600000D02*
X125175000Y-110600000D01*
X151779900Y-126604900D02*
X149175000Y-124000000D01*
X153229900Y-126604900D02*
X154495100Y-126604900D01*
X149175000Y-124000000D02*
X149175000Y-122309300D01*
%TO.N,SCL*%
D38*
X154600000Y-124500000D02*
X153865500Y-123765500D01*
X153865500Y-123765500D02*
X151059500Y-123765500D01*
X129776700Y-112122200D02*
X129776700Y-111700000D01*
X150000000Y-121599200D02*
X150000000Y-122706000D01*
X141214700Y-121195600D02*
X149596400Y-121195600D01*
X130001900Y-112347400D02*
X129776700Y-112122200D01*
X151059500Y-123765500D02*
X150825000Y-124000000D01*
X149596400Y-121195600D02*
X150000000Y-121599200D01*
X128750000Y-111700000D02*
X129776700Y-111700000D01*
X132366500Y-112347400D02*
X141214700Y-121195600D01*
X150000000Y-122706000D02*
X151059500Y-123765500D01*
X130001900Y-112347400D02*
X132366500Y-112347400D01*
%TO.N,SDA*%
X131607800Y-110949800D02*
X141357700Y-120699700D01*
X141357700Y-120699700D02*
X149728000Y-120699700D01*
X130704500Y-110949800D02*
X131607800Y-110949800D01*
X128750000Y-110200000D02*
X129776700Y-110200000D01*
X154999200Y-125100800D02*
X154600000Y-125500000D01*
X155706200Y-124168700D02*
X155706200Y-125100800D01*
X153471300Y-121933800D02*
X155706200Y-124168700D01*
X150825000Y-122000000D02*
X150891200Y-121933800D01*
X155706200Y-125100800D02*
X154999200Y-125100800D01*
X150891200Y-121933800D02*
X153471300Y-121933800D01*
X130704500Y-110949800D02*
X130526500Y-110949800D01*
X130526500Y-110949800D02*
X129776700Y-110200000D01*
X150891200Y-121862900D02*
X150891200Y-121933800D01*
X149728000Y-120699700D02*
X150891200Y-121862900D01*
%TO.N,PIXEL*%
X121279500Y-119420000D02*
X110980700Y-119420000D01*
X129801700Y-113495500D02*
X130040700Y-113734500D01*
X128750000Y-113200000D02*
X129801700Y-113200000D01*
X119564600Y-126689600D02*
X119564600Y-125056500D01*
X108698300Y-121702400D02*
X108698300Y-124028400D01*
X109726400Y-125056500D02*
X119564600Y-125056500D01*
X110980700Y-119420000D02*
X108698300Y-121702400D01*
X119564600Y-125056500D02*
X120121100Y-124500000D01*
X120121100Y-124500000D02*
X120562500Y-124500000D01*
X108698300Y-124028400D02*
X109726400Y-125056500D01*
X120875000Y-128000000D02*
X119564600Y-126689600D01*
X129801700Y-113200000D02*
X129801700Y-113495500D01*
%TO.N,CC1*%
X150137100Y-117637900D02*
X149175000Y-118600000D01*
X151500600Y-117637900D02*
X150137100Y-117637900D01*
X152955000Y-113250000D02*
X154796100Y-113250000D01*
X154796100Y-113250000D02*
X155246100Y-112800000D01*
X151687600Y-117450900D02*
X151500600Y-117637900D01*
%TO.N,BOOT*%
X101775000Y-111000000D02*
X106754500Y-115979500D01*
X130526500Y-118449800D02*
X130825000Y-118748300D01*
X130526500Y-118449800D02*
X129776700Y-117700000D01*
X130825000Y-118748300D02*
X130825000Y-121300000D01*
X128750000Y-117700000D02*
X129776700Y-117700000D01*
X106754500Y-115979500D02*
X124706700Y-115979500D01*
X124706700Y-115979500D02*
X125235100Y-116507900D01*
%TO.N,PIXEL_5V*%
X120875000Y-130500000D02*
X121703600Y-129671400D01*
X122837500Y-125637000D02*
X122837500Y-125450000D01*
X121703600Y-129671400D02*
X121703600Y-126770900D01*
X121703600Y-126770900D02*
X122837500Y-125637000D01*
%TO.N,LED0*%
X121788600Y-131236400D02*
X122525000Y-130500000D01*
X107378700Y-133921300D02*
X106450000Y-134850000D01*
%TO.N,USB_CONN_P*%
X150150000Y-112937500D02*
X150225000Y-113200000D01*
X148750000Y-111537500D02*
X150150000Y-112937500D01*
X150755000Y-112050000D02*
X149155000Y-112050000D01*
X148550000Y-108662500D02*
X148550000Y-110462500D01*
X148550000Y-110462500D02*
X148550000Y-110937500D01*
X148755000Y-111650000D02*
X148755000Y-109050000D01*
X152955000Y-111250000D02*
X151555000Y-111250000D01*
X154155000Y-111850000D02*
X154155000Y-111650000D01*
X148550000Y-110937500D02*
X148750000Y-111137500D01*
X148750000Y-111137500D02*
X148750000Y-111537500D01*
X152955000Y-112250000D02*
X153755000Y-112250000D01*
X151555000Y-111250000D02*
X150755000Y-112050000D01*
X148755000Y-109050000D02*
X148550000Y-108662500D01*
X153755000Y-111250000D02*
X153355000Y-111250000D01*
X153355000Y-111250000D02*
X152955000Y-111250000D01*
X154155000Y-111650000D02*
X153755000Y-111250000D01*
X153755000Y-112250000D02*
X154155000Y-111850000D01*
X149155000Y-112050000D02*
X148755000Y-111650000D01*
%TO.N,USB_CONN_N*%
X150555000Y-109350000D02*
X150555000Y-109150000D01*
X152555000Y-112750000D02*
X152955000Y-112750000D01*
X150450000Y-110937500D02*
X150850000Y-110937500D01*
X150450000Y-110462500D02*
X150450000Y-110937500D01*
X152955000Y-111750000D02*
X151955000Y-111750000D01*
X150450000Y-108662500D02*
X150450000Y-110462500D01*
X150555000Y-109150000D02*
X150450000Y-108662500D01*
X150450000Y-114337500D02*
X150450000Y-114537500D01*
X152155000Y-111750000D02*
X151755000Y-112150000D01*
X150450000Y-114537500D02*
X150225000Y-114900000D01*
X151955000Y-111750000D02*
X151755000Y-111950000D01*
X152155000Y-112750000D02*
X152555000Y-112750000D01*
X151755000Y-112150000D02*
X151755000Y-112350000D01*
X152955000Y-111750000D02*
X152155000Y-111750000D01*
X151755000Y-112350000D02*
X152155000Y-112750000D01*
%TO.N,LED7*%
X146916200Y-137183800D02*
X154955900Y-137183800D01*
X145950000Y-138150000D02*
X146916200Y-137183800D01*
X158250000Y-134850000D02*
X158250000Y-133889700D01*
%TO.N,CC2*%
X154188100Y-110299500D02*
X153004500Y-110299500D01*
X148439300Y-117535700D02*
X149175000Y-116800000D01*
X153004500Y-110299500D02*
X152955000Y-110250000D01*
%TO.N,BTN1*%
X146250000Y-107200000D02*
X145223300Y-107200000D01*
X145223300Y-107200000D02*
X144989000Y-107434300D01*
X132081700Y-124306700D02*
X131775000Y-124000000D01*
X144989000Y-107434300D02*
X141883500Y-107434300D01*
X132843500Y-124306700D02*
X132081700Y-124306700D01*
%TO.N,BUZZ*%
X127698300Y-115476700D02*
X127698300Y-114700000D01*
X128750000Y-114700000D02*
X127698300Y-114700000D01*
X125425000Y-117500000D02*
X127698300Y-115476700D01*
%TO.N,EN*%
X126043300Y-109764300D02*
X126217500Y-109938500D01*
X101775000Y-102500000D02*
X102822000Y-101453000D01*
X126706200Y-109449800D02*
X126784500Y-109449800D01*
X126784500Y-109449800D02*
X127561200Y-109449800D01*
X126217500Y-109938600D02*
X126217500Y-109938500D01*
X125225000Y-114000600D02*
X125225000Y-114400000D01*
X127723300Y-109287700D02*
X127723300Y-108700000D01*
X126000000Y-110156100D02*
X126217500Y-109938600D01*
X126000000Y-111774400D02*
X126000000Y-110156100D01*
X102822000Y-101453000D02*
X105196100Y-101453000D01*
X128750000Y-108700000D02*
X127723300Y-108700000D01*
X126725600Y-112500000D02*
X126000000Y-111774400D01*
X126825000Y-112500000D02*
X126725600Y-112500000D01*
X127561200Y-109449800D02*
X127723300Y-109287700D01*
X126725600Y-112500000D02*
X125225000Y-114000600D01*
X126217500Y-109938500D02*
X126706200Y-109449800D01*
%TO.N,IO8*%
X129801700Y-116200000D02*
X130010300Y-115991400D01*
X138825000Y-121300000D02*
X133516400Y-115991400D01*
X133516400Y-115991400D02*
X130037500Y-115991400D01*
X128750000Y-116200000D02*
X129801700Y-116200000D01*
X130010300Y-115991400D02*
X130037500Y-115991400D01*
%TO.N,IO10*%
X145198300Y-120098000D02*
X145198300Y-119200000D01*
X146250000Y-119200000D02*
X145198300Y-119200000D01*
%TO.N,RX*%
X146250000Y-117700000D02*
X145223300Y-117700000D01*
X144989000Y-117934300D02*
X145223300Y-117700000D01*
%TO.N,TX*%
X147516500Y-116599300D02*
X147276700Y-116359500D01*
X146250000Y-116200000D02*
X147276700Y-116200000D01*
X147276700Y-116359500D02*
X147276700Y-116200000D01*
%TO.N,USB_N*%
X146250000Y-114700000D02*
X147301700Y-114700000D01*
X147501700Y-114900000D02*
X147301700Y-114700000D01*
X148575000Y-114900000D02*
X147501700Y-114900000D01*
%TO.N,USB_P*%
X148575000Y-113200000D02*
X146250000Y-113200000D01*
%TO.N,IO3*%
X146250000Y-111700000D02*
X145223300Y-111700000D01*
X144989000Y-111934300D02*
X145223300Y-111700000D01*
%TO.N,IO2*%
X146250000Y-110200000D02*
X145223300Y-110200000D01*
X145223300Y-110200000D02*
X144989000Y-110434300D01*
X134825000Y-120304100D02*
X134825000Y-121300000D01*
%TO.N,BTN2*%
X146250000Y-108700000D02*
X145223300Y-108700000D01*
X141081700Y-124306700D02*
X140775000Y-124000000D01*
X141832100Y-124306700D02*
X141081700Y-124306700D01*
X144989000Y-108934300D02*
X145223300Y-108700000D01*
%TO.N,LED2*%
X108950000Y-138150000D02*
X109906100Y-137193900D01*
X109906100Y-137193900D02*
X116444400Y-137193900D01*
X121250000Y-134850000D02*
X120316900Y-133916900D01*
%TO.N,LED1*%
X102481900Y-137218100D02*
X101550000Y-138150000D01*
X112898500Y-135801500D02*
X113850000Y-134850000D01*
%TO.N,LED3*%
X126766600Y-136733400D02*
X118494700Y-136733400D01*
X118494700Y-136733500D02*
X117639000Y-137589200D01*
X118494700Y-136733400D02*
X118494700Y-136733500D01*
X116910800Y-137589200D02*
X116350000Y-138150000D01*
X128650000Y-134850000D02*
X126766600Y-136733400D01*
X117639000Y-137589200D02*
X116910800Y-137589200D01*
%TO.N,LED4*%
X125658100Y-137182500D02*
X125005000Y-137835600D01*
X132877700Y-134850000D02*
X130545200Y-137182500D01*
X134771300Y-134850000D02*
X132877700Y-134850000D01*
X130545200Y-137182500D02*
X125658100Y-137182500D01*
X125005000Y-137835600D02*
X124064400Y-137835600D01*
X124064400Y-137835600D02*
X123750000Y-138150000D01*
X134771300Y-134850000D02*
X136050000Y-134850000D01*
%TD*%
%TA.AperFunction,Conductor*%
%TO.N,GND*%
G36*
X140759191Y-110818907D02*
G01*
X140795155Y-110868407D01*
X140800000Y-110899000D01*
X140800000Y-115901000D01*
X140781093Y-115959191D01*
X140731593Y-115995155D01*
X140701000Y-116000000D01*
X137123979Y-116000000D01*
X137065788Y-115981093D01*
X137053975Y-115971004D01*
X135328996Y-114246025D01*
X135301219Y-114191508D01*
X135300000Y-114176021D01*
X135300000Y-110899000D01*
X135318907Y-110840809D01*
X135368407Y-110804845D01*
X135399000Y-110800000D01*
X140701000Y-110800000D01*
X140759191Y-110818907D01*
G37*
%TD.AperFunction*%
%TD*%
%TA.AperFunction,Conductor*%
%TO.N,+3V3*%
G36*
X123459191Y-100519407D02*
G01*
X123495155Y-100568907D01*
X123500000Y-100599500D01*
X123500000Y-106100000D01*
X123500001Y-106100000D01*
X125401000Y-106100000D01*
X125459191Y-106118907D01*
X125495155Y-106168407D01*
X125500000Y-106199000D01*
X125500000Y-113259621D01*
X125481093Y-113317812D01*
X125471004Y-113329624D01*
X125105126Y-113695503D01*
X125050609Y-113723281D01*
X125035122Y-113724500D01*
X124966510Y-113724500D01*
X124866874Y-113740281D01*
X124866867Y-113740283D01*
X124746782Y-113801470D01*
X124651470Y-113896782D01*
X124590283Y-114016867D01*
X124590281Y-114016874D01*
X124574500Y-114116510D01*
X124574500Y-114683491D01*
X124586794Y-114761113D01*
X124577223Y-114821545D01*
X124533958Y-114864810D01*
X124489013Y-114875600D01*
X123336079Y-114875600D01*
X123277888Y-114856693D01*
X123266075Y-114846604D01*
X120677096Y-112257625D01*
X120649319Y-112203108D01*
X120648100Y-112187621D01*
X120648100Y-112170379D01*
X120667007Y-112112188D01*
X120677096Y-112100375D01*
X120852975Y-111924496D01*
X120907492Y-111896719D01*
X120922979Y-111895500D01*
X121864273Y-111895500D01*
X121864273Y-111895499D01*
X121894699Y-111892646D01*
X122022882Y-111847793D01*
X122132150Y-111767150D01*
X122212793Y-111657882D01*
X122257646Y-111529699D01*
X122260499Y-111499273D01*
X122260500Y-111499273D01*
X122260500Y-110500727D01*
X122260499Y-110500725D01*
X122257646Y-110470305D01*
X122257646Y-110470301D01*
X122212793Y-110342118D01*
X122181115Y-110299196D01*
X122132154Y-110232855D01*
X122132152Y-110232853D01*
X122132150Y-110232850D01*
X122132146Y-110232847D01*
X122132144Y-110232845D01*
X122022883Y-110152207D01*
X121894703Y-110107355D01*
X121894694Y-110107353D01*
X121864274Y-110104500D01*
X121864266Y-110104500D01*
X120840734Y-110104500D01*
X120840725Y-110104500D01*
X120810305Y-110107353D01*
X120810296Y-110107355D01*
X120682116Y-110152207D01*
X120572855Y-110232845D01*
X120572845Y-110232855D01*
X120492207Y-110342116D01*
X120447355Y-110470296D01*
X120447353Y-110470305D01*
X120444500Y-110500725D01*
X120444500Y-111442021D01*
X120425593Y-111500212D01*
X120415504Y-111512025D01*
X120252125Y-111675404D01*
X120197608Y-111703181D01*
X120182121Y-111704400D01*
X113522879Y-111704400D01*
X113464688Y-111685493D01*
X113452875Y-111675404D01*
X113289496Y-111512025D01*
X113261719Y-111457508D01*
X113260500Y-111442021D01*
X113260500Y-110500727D01*
X113260499Y-110500725D01*
X113257646Y-110470305D01*
X113257646Y-110470301D01*
X113212793Y-110342118D01*
X113181115Y-110299196D01*
X113132154Y-110232855D01*
X113132152Y-110232853D01*
X113132150Y-110232850D01*
X113132146Y-110232847D01*
X113132144Y-110232845D01*
X113022883Y-110152207D01*
X112894703Y-110107355D01*
X112894694Y-110107353D01*
X112864274Y-110104500D01*
X112864266Y-110104500D01*
X111922979Y-110104500D01*
X111864788Y-110085593D01*
X111852976Y-110075504D01*
X111506714Y-109729243D01*
X111506711Y-109729240D01*
X111498913Y-109724738D01*
X111438189Y-109689679D01*
X111438188Y-109689678D01*
X111438187Y-109689678D01*
X111361764Y-109669200D01*
X111361762Y-109669200D01*
X107420779Y-109669200D01*
X107362588Y-109650293D01*
X107350775Y-109640204D01*
X106554496Y-108843925D01*
X106526719Y-108789408D01*
X106525500Y-108773921D01*
X106525500Y-103788604D01*
X106544407Y-103730413D01*
X106591799Y-103695161D01*
X106712882Y-103652793D01*
X106822150Y-103572150D01*
X106902793Y-103462882D01*
X106947646Y-103334699D01*
X106950499Y-103304273D01*
X106950500Y-103304273D01*
X106950500Y-102611000D01*
X106969407Y-102552809D01*
X107018907Y-102516845D01*
X107049500Y-102512000D01*
X107490978Y-102512000D01*
X107549169Y-102530907D01*
X107585133Y-102580407D01*
X107588758Y-102626485D01*
X107580189Y-102680593D01*
X107574500Y-102716510D01*
X107574500Y-103283489D01*
X107590281Y-103383125D01*
X107590283Y-103383132D01*
X107651470Y-103503217D01*
X107651472Y-103503220D01*
X107695505Y-103547253D01*
X107723281Y-103601768D01*
X107724500Y-103617255D01*
X107724500Y-103740492D01*
X107754579Y-103852751D01*
X107758609Y-103867790D01*
X107824496Y-103981909D01*
X107824497Y-103981910D01*
X107824498Y-103981911D01*
X107824500Y-103981914D01*
X109764272Y-105921686D01*
X110372998Y-106530412D01*
X110375845Y-106533658D01*
X110378898Y-106536711D01*
X110378900Y-106536714D01*
X111075031Y-107232845D01*
X111624281Y-107782095D01*
X111652058Y-107836612D01*
X111652430Y-107865019D01*
X111649500Y-107887274D01*
X111649500Y-107887279D01*
X111649500Y-107887280D01*
X111649500Y-108712720D01*
X111664313Y-108825236D01*
X111690190Y-108887708D01*
X111712212Y-108940875D01*
X111722302Y-108965233D01*
X111814549Y-109085451D01*
X111934767Y-109177698D01*
X112074764Y-109235687D01*
X112187280Y-109250500D01*
X112187281Y-109250500D01*
X113512719Y-109250500D01*
X113512720Y-109250500D01*
X113625236Y-109235687D01*
X113765233Y-109177698D01*
X113885451Y-109085451D01*
X113977698Y-108965233D01*
X114009810Y-108887708D01*
X122301600Y-108887708D01*
X122301600Y-109019492D01*
X122319274Y-109085452D01*
X122335709Y-109146790D01*
X122401596Y-109260909D01*
X122401598Y-109260911D01*
X122401600Y-109260914D01*
X122494786Y-109354100D01*
X122494788Y-109354101D01*
X122494790Y-109354103D01*
X122608910Y-109419990D01*
X122608908Y-109419990D01*
X122608912Y-109419991D01*
X122608914Y-109419992D01*
X122736208Y-109454100D01*
X122736210Y-109454100D01*
X122867990Y-109454100D01*
X122867992Y-109454100D01*
X122995286Y-109419992D01*
X122995288Y-109419990D01*
X122995290Y-109419990D01*
X123109409Y-109354103D01*
X123109409Y-109354102D01*
X123109414Y-109354100D01*
X123202600Y-109260914D01*
X123217166Y-109235685D01*
X123268490Y-109146790D01*
X123268490Y-109146788D01*
X123268492Y-109146786D01*
X123302600Y-109019492D01*
X123302600Y-109010879D01*
X123321507Y-108952688D01*
X123331596Y-108940875D01*
X123347975Y-108924496D01*
X123402492Y-108896719D01*
X123417979Y-108895500D01*
X124359273Y-108895500D01*
X124359273Y-108895499D01*
X124389699Y-108892646D01*
X124517882Y-108847793D01*
X124627150Y-108767150D01*
X124707793Y-108657882D01*
X124752646Y-108529699D01*
X124755499Y-108499273D01*
X124755500Y-108499273D01*
X124755500Y-107500727D01*
X124755499Y-107500725D01*
X124752646Y-107470305D01*
X124752646Y-107470301D01*
X124707793Y-107342118D01*
X124699287Y-107330593D01*
X124627154Y-107232855D01*
X124627152Y-107232853D01*
X124627150Y-107232850D01*
X124627146Y-107232847D01*
X124627144Y-107232845D01*
X124517883Y-107152207D01*
X124389703Y-107107355D01*
X124389694Y-107107353D01*
X124359274Y-107104500D01*
X124359266Y-107104500D01*
X123335734Y-107104500D01*
X123335725Y-107104500D01*
X123305305Y-107107353D01*
X123305296Y-107107355D01*
X123177116Y-107152207D01*
X123067855Y-107232845D01*
X123067845Y-107232855D01*
X122987207Y-107342116D01*
X122942355Y-107470296D01*
X122942353Y-107470305D01*
X122939500Y-107500725D01*
X122939500Y-108354100D01*
X122920593Y-108412291D01*
X122871093Y-108448255D01*
X122840500Y-108453100D01*
X122736208Y-108453100D01*
X122664701Y-108472260D01*
X122608909Y-108487209D01*
X122494790Y-108553096D01*
X122401596Y-108646290D01*
X122335709Y-108760409D01*
X122333903Y-108767150D01*
X122301600Y-108887708D01*
X114009810Y-108887708D01*
X114035687Y-108825236D01*
X114050500Y-108712720D01*
X114050500Y-107887280D01*
X114035687Y-107774764D01*
X113977698Y-107634767D01*
X113885451Y-107514549D01*
X113765233Y-107422302D01*
X113625236Y-107364313D01*
X113625234Y-107364312D01*
X113625232Y-107364312D01*
X113512720Y-107349500D01*
X112648322Y-107349500D01*
X112590131Y-107330593D01*
X112578318Y-107320504D01*
X111185805Y-105927991D01*
X111182964Y-105924751D01*
X111179901Y-105921688D01*
X111179900Y-105921686D01*
X108836867Y-103578653D01*
X108809090Y-103524136D01*
X108818660Y-103463708D01*
X108859719Y-103383126D01*
X108874899Y-103287281D01*
X108875500Y-103283489D01*
X108875500Y-102764479D01*
X108894407Y-102706288D01*
X108943907Y-102670324D01*
X109005093Y-102670324D01*
X109044504Y-102694475D01*
X109095504Y-102745475D01*
X109123281Y-102799992D01*
X109124500Y-102815479D01*
X109124500Y-103283489D01*
X109140281Y-103383125D01*
X109140283Y-103383132D01*
X109201470Y-103503217D01*
X109201472Y-103503220D01*
X109296780Y-103598528D01*
X109296782Y-103598529D01*
X109416867Y-103659716D01*
X109416869Y-103659716D01*
X109416874Y-103659719D01*
X109492541Y-103671703D01*
X109516510Y-103675500D01*
X109516512Y-103675500D01*
X110033490Y-103675500D01*
X110054885Y-103672111D01*
X110133126Y-103659719D01*
X110253220Y-103598528D01*
X110348528Y-103503220D01*
X110409719Y-103383126D01*
X110409719Y-103383119D01*
X110412126Y-103375718D01*
X110413567Y-103376186D01*
X110437351Y-103329501D01*
X110491866Y-103301720D01*
X110507359Y-103300500D01*
X111550500Y-103300500D01*
X111608691Y-103319407D01*
X111644655Y-103368907D01*
X111649500Y-103399500D01*
X111649500Y-104112720D01*
X111664313Y-104225236D01*
X111722302Y-104365233D01*
X111814549Y-104485451D01*
X111934767Y-104577698D01*
X112074764Y-104635687D01*
X112187280Y-104650500D01*
X112187281Y-104650500D01*
X113512719Y-104650500D01*
X113512720Y-104650500D01*
X113625236Y-104635687D01*
X113765233Y-104577698D01*
X113885451Y-104485451D01*
X113977698Y-104365233D01*
X114035687Y-104225236D01*
X114050500Y-104112720D01*
X114050500Y-103287280D01*
X114035687Y-103174764D01*
X113977698Y-103034767D01*
X113885451Y-102914549D01*
X113765233Y-102822302D01*
X113625236Y-102764313D01*
X113625234Y-102764312D01*
X113625232Y-102764312D01*
X113512720Y-102749500D01*
X112343647Y-102749500D01*
X112294148Y-102736236D01*
X112265989Y-102719979D01*
X112265986Y-102719978D01*
X112189564Y-102699500D01*
X112189562Y-102699500D01*
X110507359Y-102699500D01*
X110449168Y-102680593D01*
X110413204Y-102631093D01*
X110409995Y-102617724D01*
X110409719Y-102616878D01*
X110409719Y-102616874D01*
X110348528Y-102496780D01*
X110253220Y-102401472D01*
X110253217Y-102401470D01*
X110133132Y-102340283D01*
X110133127Y-102340281D01*
X110133126Y-102340281D01*
X110099913Y-102335020D01*
X110033490Y-102324500D01*
X110033488Y-102324500D01*
X109565479Y-102324500D01*
X109507288Y-102305593D01*
X109495476Y-102295504D01*
X109171010Y-101971039D01*
X109102492Y-101931480D01*
X109102488Y-101931478D01*
X109026064Y-101911000D01*
X109026062Y-101911000D01*
X107049500Y-101911000D01*
X106991309Y-101892093D01*
X106955345Y-101842593D01*
X106950500Y-101812000D01*
X106950500Y-101695727D01*
X106950499Y-101695725D01*
X106947646Y-101665305D01*
X106947646Y-101665301D01*
X106902793Y-101537118D01*
X106843393Y-101456634D01*
X106822154Y-101427855D01*
X106822152Y-101427853D01*
X106822150Y-101427850D01*
X106822146Y-101427847D01*
X106822144Y-101427845D01*
X106712883Y-101347207D01*
X106584703Y-101302355D01*
X106584694Y-101302353D01*
X106554274Y-101299500D01*
X106554266Y-101299500D01*
X105895734Y-101299500D01*
X105895725Y-101299500D01*
X105865305Y-101302353D01*
X105865298Y-101302354D01*
X105791005Y-101328350D01*
X105729835Y-101329722D01*
X105679541Y-101294877D01*
X105665223Y-101265703D01*
X105664974Y-101265807D01*
X105663350Y-101261887D01*
X105662683Y-101260527D01*
X105662492Y-101259814D01*
X105596600Y-101145686D01*
X105503414Y-101052500D01*
X105503411Y-101052498D01*
X105503409Y-101052496D01*
X105389289Y-100986609D01*
X105389291Y-100986609D01*
X105339899Y-100973375D01*
X105261992Y-100952500D01*
X105130208Y-100952500D01*
X105052300Y-100973375D01*
X105002909Y-100986609D01*
X104888790Y-101052496D01*
X104888789Y-101052497D01*
X104888786Y-101052499D01*
X104888786Y-101052500D01*
X104817780Y-101123505D01*
X104763266Y-101151281D01*
X104747779Y-101152500D01*
X102861562Y-101152500D01*
X102782438Y-101152500D01*
X102735661Y-101165033D01*
X102706007Y-101172979D01*
X102637493Y-101212536D01*
X102637488Y-101212540D01*
X102461176Y-101388851D01*
X102406659Y-101416628D01*
X102346227Y-101407056D01*
X102332385Y-101398502D01*
X102262883Y-101347207D01*
X102134703Y-101302355D01*
X102134694Y-101302353D01*
X102104274Y-101299500D01*
X102104266Y-101299500D01*
X101445734Y-101299500D01*
X101445725Y-101299500D01*
X101415305Y-101302353D01*
X101415296Y-101302355D01*
X101287116Y-101347207D01*
X101177855Y-101427845D01*
X101177845Y-101427855D01*
X101097207Y-101537116D01*
X101052355Y-101665296D01*
X101052353Y-101665305D01*
X101049500Y-101695725D01*
X101049500Y-103304274D01*
X101052353Y-103334694D01*
X101052355Y-103334703D01*
X101097207Y-103462883D01*
X101177845Y-103572144D01*
X101177847Y-103572146D01*
X101177850Y-103572150D01*
X101177853Y-103572152D01*
X101177855Y-103572154D01*
X101287116Y-103652792D01*
X101287117Y-103652792D01*
X101287118Y-103652793D01*
X101415301Y-103697646D01*
X101445725Y-103700499D01*
X101445727Y-103700500D01*
X101445734Y-103700500D01*
X102104273Y-103700500D01*
X102104273Y-103700499D01*
X102134699Y-103697646D01*
X102262882Y-103652793D01*
X102372150Y-103572150D01*
X102452793Y-103462882D01*
X102497646Y-103334699D01*
X102500499Y-103304273D01*
X102500500Y-103304273D01*
X102500500Y-102240479D01*
X102519407Y-102182288D01*
X102529496Y-102170475D01*
X102917475Y-101782496D01*
X102971992Y-101754719D01*
X102987479Y-101753500D01*
X104747779Y-101753500D01*
X104805970Y-101772407D01*
X104817776Y-101782490D01*
X104888786Y-101853500D01*
X104888788Y-101853501D01*
X104888790Y-101853503D01*
X105002910Y-101919390D01*
X105002908Y-101919390D01*
X105002912Y-101919391D01*
X105002914Y-101919392D01*
X105130208Y-101953500D01*
X105130210Y-101953500D01*
X105261990Y-101953500D01*
X105261992Y-101953500D01*
X105374879Y-101923252D01*
X105435978Y-101926455D01*
X105483528Y-101964960D01*
X105499500Y-102018879D01*
X105499500Y-103304274D01*
X105502353Y-103334694D01*
X105502355Y-103334703D01*
X105547207Y-103462883D01*
X105627845Y-103572144D01*
X105627847Y-103572146D01*
X105627850Y-103572150D01*
X105627853Y-103572152D01*
X105627855Y-103572154D01*
X105737114Y-103652791D01*
X105737116Y-103652791D01*
X105737118Y-103652793D01*
X105858199Y-103695161D01*
X105906878Y-103732225D01*
X105924500Y-103788604D01*
X105924500Y-108978964D01*
X105944978Y-109055388D01*
X105944979Y-109055389D01*
X105975461Y-109108185D01*
X105975462Y-109108189D01*
X105975463Y-109108189D01*
X105984537Y-109123907D01*
X105984538Y-109123908D01*
X105984540Y-109123911D01*
X106270867Y-109410238D01*
X106491125Y-109630496D01*
X106518902Y-109685013D01*
X106509331Y-109745445D01*
X106466066Y-109788710D01*
X106421121Y-109799500D01*
X105895725Y-109799500D01*
X105865305Y-109802353D01*
X105865296Y-109802355D01*
X105737116Y-109847207D01*
X105627855Y-109927845D01*
X105627845Y-109927855D01*
X105547207Y-110037116D01*
X105502355Y-110165296D01*
X105502353Y-110165305D01*
X105499500Y-110195725D01*
X105499500Y-111804274D01*
X105502353Y-111834694D01*
X105502355Y-111834703D01*
X105547207Y-111962883D01*
X105627845Y-112072144D01*
X105627847Y-112072146D01*
X105627850Y-112072150D01*
X105627853Y-112072152D01*
X105627855Y-112072154D01*
X105737116Y-112152792D01*
X105737117Y-112152792D01*
X105737118Y-112152793D01*
X105865301Y-112197646D01*
X105895725Y-112200499D01*
X105895727Y-112200500D01*
X105895734Y-112200500D01*
X106554273Y-112200500D01*
X106554273Y-112200499D01*
X106584699Y-112197646D01*
X106712882Y-112152793D01*
X106782387Y-112101495D01*
X106840432Y-112082155D01*
X106898762Y-112100626D01*
X106911177Y-112111148D01*
X108518804Y-113718775D01*
X108546581Y-113773292D01*
X108547800Y-113788779D01*
X108547800Y-114539564D01*
X108568278Y-114615988D01*
X108568280Y-114615992D01*
X108607249Y-114683488D01*
X108607840Y-114684511D01*
X108663789Y-114740460D01*
X108663791Y-114740461D01*
X108732307Y-114780019D01*
X108732311Y-114780021D01*
X108808735Y-114800499D01*
X108808737Y-114800500D01*
X108808738Y-114800500D01*
X108850500Y-114800500D01*
X108908691Y-114819407D01*
X108944655Y-114868907D01*
X108949500Y-114899500D01*
X108949500Y-115369746D01*
X108949501Y-115369758D01*
X108961132Y-115428227D01*
X108961134Y-115428233D01*
X109001337Y-115488400D01*
X109005448Y-115494552D01*
X109010136Y-115497684D01*
X109048016Y-115545734D01*
X109050418Y-115606873D01*
X109016425Y-115657746D01*
X108959022Y-115678924D01*
X108955135Y-115679000D01*
X106919979Y-115679000D01*
X106861788Y-115660093D01*
X106849975Y-115650004D01*
X102529496Y-111329525D01*
X102501719Y-111275008D01*
X102500500Y-111259521D01*
X102500500Y-110195727D01*
X102500499Y-110195725D01*
X102497646Y-110165305D01*
X102497646Y-110165301D01*
X102452793Y-110037118D01*
X102426485Y-110001472D01*
X102372154Y-109927855D01*
X102372152Y-109927853D01*
X102372150Y-109927850D01*
X102372146Y-109927847D01*
X102372144Y-109927845D01*
X102262883Y-109847207D01*
X102134703Y-109802355D01*
X102134694Y-109802353D01*
X102104274Y-109799500D01*
X102104266Y-109799500D01*
X101445734Y-109799500D01*
X101445725Y-109799500D01*
X101415305Y-109802353D01*
X101415296Y-109802355D01*
X101287116Y-109847207D01*
X101177855Y-109927845D01*
X101177845Y-109927855D01*
X101097207Y-110037116D01*
X101052355Y-110165296D01*
X101052353Y-110165305D01*
X101049500Y-110195725D01*
X101049500Y-111804274D01*
X101052353Y-111834694D01*
X101052355Y-111834703D01*
X101097207Y-111962883D01*
X101177845Y-112072144D01*
X101177847Y-112072146D01*
X101177850Y-112072150D01*
X101177853Y-112072152D01*
X101177855Y-112072154D01*
X101287116Y-112152792D01*
X101287117Y-112152792D01*
X101287118Y-112152793D01*
X101415301Y-112197646D01*
X101445725Y-112200499D01*
X101445727Y-112200500D01*
X101445734Y-112200500D01*
X102104273Y-112200500D01*
X102104273Y-112200499D01*
X102134699Y-112197646D01*
X102262882Y-112152793D01*
X102332387Y-112101495D01*
X102390432Y-112082155D01*
X102448762Y-112100626D01*
X102461177Y-112111148D01*
X106514040Y-116164011D01*
X106514039Y-116164011D01*
X106569989Y-116219960D01*
X106638507Y-116259519D01*
X106638511Y-116259521D01*
X106714935Y-116279999D01*
X106714937Y-116280000D01*
X106714938Y-116280000D01*
X120787239Y-116280000D01*
X120845430Y-116298907D01*
X120881394Y-116348407D01*
X120885205Y-116393274D01*
X120884428Y-116398604D01*
X120884427Y-116398607D01*
X120874500Y-116466740D01*
X120874500Y-116833260D01*
X120881118Y-116878682D01*
X120884427Y-116901395D01*
X120917179Y-116968389D01*
X120935802Y-117006483D01*
X121018517Y-117089198D01*
X121113126Y-117135449D01*
X121115642Y-117136679D01*
X121159616Y-117179222D01*
X121167789Y-117199997D01*
X121196109Y-117305690D01*
X121261996Y-117419809D01*
X121261998Y-117419811D01*
X121262000Y-117419814D01*
X121355186Y-117513000D01*
X121355188Y-117513001D01*
X121355190Y-117513003D01*
X121469310Y-117578890D01*
X121469308Y-117578890D01*
X121469312Y-117578891D01*
X121469314Y-117578892D01*
X121596608Y-117613000D01*
X121596610Y-117613000D01*
X121728390Y-117613000D01*
X121728392Y-117613000D01*
X121855686Y-117578892D01*
X121855688Y-117578890D01*
X121855690Y-117578890D01*
X121969809Y-117513003D01*
X121969809Y-117513002D01*
X121969814Y-117513000D01*
X122041163Y-117441650D01*
X122095677Y-117413874D01*
X122098252Y-117413501D01*
X122102058Y-117413000D01*
X122102062Y-117413000D01*
X122134901Y-117404199D01*
X122137501Y-117403542D01*
X122170590Y-117395665D01*
X122170599Y-117395660D01*
X122174556Y-117394149D01*
X122178486Y-117392522D01*
X122178486Y-117392521D01*
X122178489Y-117392521D01*
X122207905Y-117375536D01*
X122210256Y-117374222D01*
X122240196Y-117358040D01*
X122240202Y-117358033D01*
X122243625Y-117355556D01*
X122247004Y-117352963D01*
X122247011Y-117352960D01*
X122271045Y-117328924D01*
X122272962Y-117327060D01*
X122297691Y-117303682D01*
X122297695Y-117303675D01*
X122300375Y-117300377D01*
X122302954Y-117297016D01*
X122302960Y-117297011D01*
X122319964Y-117267555D01*
X122321323Y-117265277D01*
X122339159Y-117236297D01*
X122339162Y-117236284D01*
X122340886Y-117232432D01*
X122342516Y-117228496D01*
X122342521Y-117228489D01*
X122343804Y-117223697D01*
X122377123Y-117172381D01*
X122429793Y-117151554D01*
X122429715Y-117151016D01*
X122431996Y-117150683D01*
X122432281Y-117150571D01*
X122433251Y-117150500D01*
X122433260Y-117150500D01*
X122501393Y-117140573D01*
X122606483Y-117089198D01*
X122689198Y-117006483D01*
X122740573Y-116901393D01*
X122750500Y-116833260D01*
X122750500Y-116466740D01*
X122740573Y-116398607D01*
X122740571Y-116398604D01*
X122739795Y-116393274D01*
X122750115Y-116332965D01*
X122793912Y-116290240D01*
X122837761Y-116280000D01*
X123485879Y-116280000D01*
X123544070Y-116298907D01*
X123580034Y-116348407D01*
X123580034Y-116409593D01*
X123555884Y-116449001D01*
X123538146Y-116466740D01*
X123536997Y-116467889D01*
X123536996Y-116467890D01*
X123471109Y-116582009D01*
X123471108Y-116582014D01*
X123437000Y-116709308D01*
X123437000Y-116841092D01*
X123471108Y-116968386D01*
X123471108Y-116968387D01*
X123472788Y-116974654D01*
X123469754Y-116975466D01*
X123473485Y-117023747D01*
X123441442Y-117075871D01*
X123384881Y-117099206D01*
X123377253Y-117099500D01*
X123066740Y-117099500D01*
X123032673Y-117104463D01*
X122998604Y-117109427D01*
X122893518Y-117160801D01*
X122810801Y-117243518D01*
X122759427Y-117348604D01*
X122757545Y-117361523D01*
X122749500Y-117416740D01*
X122749500Y-117783260D01*
X122756118Y-117828682D01*
X122759427Y-117851395D01*
X122810801Y-117956481D01*
X122810802Y-117956483D01*
X122893517Y-118039198D01*
X122947285Y-118065483D01*
X122998604Y-118090572D01*
X122998605Y-118090572D01*
X122998607Y-118090573D01*
X123066740Y-118100500D01*
X123066743Y-118100500D01*
X124308257Y-118100500D01*
X124308260Y-118100500D01*
X124376393Y-118090573D01*
X124481483Y-118039198D01*
X124564198Y-117956483D01*
X124615573Y-117851393D01*
X124625500Y-117783260D01*
X124625500Y-117416740D01*
X124615573Y-117348607D01*
X124605019Y-117327019D01*
X124564198Y-117243518D01*
X124564198Y-117243517D01*
X124481483Y-117160802D01*
X124429621Y-117135448D01*
X124385648Y-117092905D01*
X124375079Y-117032640D01*
X124387368Y-116997006D01*
X124403892Y-116968386D01*
X124438000Y-116841092D01*
X124438000Y-116709308D01*
X124403892Y-116582014D01*
X124403890Y-116582011D01*
X124403890Y-116582009D01*
X124338003Y-116467890D01*
X124338001Y-116467888D01*
X124338000Y-116467886D01*
X124319115Y-116449001D01*
X124291340Y-116394487D01*
X124300911Y-116334055D01*
X124344176Y-116290790D01*
X124389121Y-116280000D01*
X124541221Y-116280000D01*
X124599412Y-116298907D01*
X124611225Y-116308996D01*
X124705604Y-116403375D01*
X124733381Y-116457892D01*
X124734600Y-116473379D01*
X124734600Y-116573792D01*
X124764679Y-116686051D01*
X124768709Y-116701090D01*
X124834596Y-116815209D01*
X124834598Y-116815211D01*
X124834600Y-116815214D01*
X124883070Y-116863684D01*
X124910846Y-116918199D01*
X124901275Y-116978631D01*
X124899876Y-116980914D01*
X124839354Y-117099695D01*
X124824500Y-117193477D01*
X124824500Y-117806520D01*
X124824501Y-117806523D01*
X124839352Y-117900299D01*
X124839354Y-117900304D01*
X124896950Y-118013342D01*
X124986658Y-118103050D01*
X125099696Y-118160646D01*
X125193481Y-118175500D01*
X125401001Y-118175499D01*
X125459190Y-118194406D01*
X125495154Y-118243906D01*
X125500000Y-118274499D01*
X125500000Y-118855439D01*
X125481093Y-118913630D01*
X125476488Y-118919490D01*
X125459575Y-118939423D01*
X125452378Y-118947047D01*
X125439086Y-118959711D01*
X125439085Y-118959712D01*
X125434716Y-118966872D01*
X125425706Y-118979340D01*
X125420275Y-118985742D01*
X125420268Y-118985752D01*
X125412412Y-119002359D01*
X125407437Y-119011579D01*
X125397874Y-119027254D01*
X125397871Y-119027260D01*
X125395505Y-119035304D01*
X125390029Y-119049681D01*
X125386441Y-119057268D01*
X125386439Y-119057275D01*
X125383149Y-119075347D01*
X125380727Y-119085549D01*
X125331349Y-119253434D01*
X125296791Y-119303926D01*
X125239154Y-119324461D01*
X125236374Y-119324500D01*
X125193480Y-119324500D01*
X125193476Y-119324501D01*
X125099700Y-119339352D01*
X125099695Y-119339354D01*
X124986659Y-119396949D01*
X124896949Y-119486659D01*
X124839354Y-119599694D01*
X124827812Y-119672565D01*
X124800034Y-119727081D01*
X124766107Y-119749270D01*
X124623195Y-119805193D01*
X124587119Y-119812000D01*
X123910821Y-119812000D01*
X123852630Y-119793093D01*
X123840823Y-119783009D01*
X123769814Y-119712000D01*
X123769811Y-119711998D01*
X123769809Y-119711996D01*
X123655689Y-119646109D01*
X123655691Y-119646109D01*
X123606299Y-119632875D01*
X123528392Y-119612000D01*
X123396608Y-119612000D01*
X123318700Y-119632875D01*
X123269309Y-119646109D01*
X123155190Y-119711996D01*
X123061996Y-119805190D01*
X122996109Y-119919309D01*
X122970127Y-120016279D01*
X122936803Y-120067593D01*
X122879681Y-120089520D01*
X122820581Y-120073684D01*
X122782076Y-120026135D01*
X122775500Y-119990656D01*
X122775500Y-118969155D01*
X122775555Y-118965858D01*
X122775760Y-118959711D01*
X122776651Y-118932967D01*
X122776649Y-118932961D01*
X122776160Y-118927953D01*
X122775500Y-118922942D01*
X122775500Y-118922938D01*
X122766962Y-118891077D01*
X122766192Y-118887998D01*
X122758728Y-118855899D01*
X122758727Y-118855898D01*
X122756949Y-118851167D01*
X122752538Y-118840516D01*
X122753880Y-118839959D01*
X122742698Y-118787354D01*
X122743185Y-118783458D01*
X122750500Y-118733260D01*
X122750500Y-118366740D01*
X122740573Y-118298607D01*
X122728787Y-118274499D01*
X122715483Y-118247285D01*
X122689198Y-118193517D01*
X122606483Y-118110802D01*
X122565102Y-118090572D01*
X122501395Y-118059427D01*
X122474139Y-118055456D01*
X122433260Y-118049500D01*
X121191740Y-118049500D01*
X121157673Y-118054463D01*
X121123604Y-118059427D01*
X121018518Y-118110801D01*
X120935801Y-118193518D01*
X120884427Y-118298604D01*
X120884427Y-118298607D01*
X120874500Y-118366740D01*
X120874500Y-118733260D01*
X120881118Y-118778682D01*
X120884427Y-118801395D01*
X120935801Y-118906481D01*
X120935802Y-118906483D01*
X120940500Y-118911181D01*
X120968276Y-118965696D01*
X120958705Y-119026128D01*
X120940499Y-119051186D01*
X120901183Y-119090503D01*
X120846667Y-119118281D01*
X120831179Y-119119500D01*
X110941135Y-119119500D01*
X110864712Y-119139978D01*
X110805634Y-119174087D01*
X110796190Y-119179539D01*
X108513789Y-121461940D01*
X108513788Y-121461939D01*
X108457839Y-121517889D01*
X108418280Y-121586407D01*
X108418278Y-121586411D01*
X108397800Y-121662835D01*
X108397800Y-121662838D01*
X108397800Y-124067962D01*
X108414661Y-124130886D01*
X108418279Y-124144389D01*
X108418280Y-124144391D01*
X108426231Y-124158163D01*
X108426238Y-124158173D01*
X108426241Y-124158179D01*
X108457840Y-124212911D01*
X109485940Y-125241011D01*
X109485939Y-125241011D01*
X109541889Y-125296960D01*
X109610407Y-125336519D01*
X109610411Y-125336521D01*
X109686835Y-125356999D01*
X109686837Y-125357000D01*
X109686838Y-125357000D01*
X109765962Y-125357000D01*
X119165100Y-125357000D01*
X119223291Y-125375907D01*
X119259255Y-125425407D01*
X119264100Y-125456000D01*
X119264100Y-126729164D01*
X119284578Y-126805588D01*
X119284580Y-126805592D01*
X119324138Y-126874108D01*
X119324140Y-126874111D01*
X119789350Y-127339321D01*
X120245504Y-127795475D01*
X120273281Y-127849992D01*
X120274500Y-127865479D01*
X120274500Y-128306520D01*
X120274501Y-128306523D01*
X120289352Y-128400299D01*
X120289354Y-128400304D01*
X120346950Y-128513342D01*
X120436658Y-128603050D01*
X120549696Y-128660646D01*
X120643481Y-128675500D01*
X121106518Y-128675499D01*
X121106520Y-128675499D01*
X121106521Y-128675498D01*
X121153411Y-128668072D01*
X121200299Y-128660647D01*
X121200304Y-128660646D01*
X121223425Y-128648865D01*
X121259154Y-128630659D01*
X121319586Y-128621088D01*
X121374103Y-128648865D01*
X121401881Y-128703381D01*
X121403100Y-128718869D01*
X121403100Y-129505921D01*
X121384193Y-129564112D01*
X121374104Y-129575924D01*
X121154523Y-129795504D01*
X121100008Y-129823281D01*
X121084521Y-129824500D01*
X120643479Y-129824500D01*
X120643476Y-129824501D01*
X120549700Y-129839352D01*
X120549695Y-129839354D01*
X120436659Y-129896949D01*
X120436658Y-129896949D01*
X120436658Y-129896950D01*
X120362602Y-129971005D01*
X120308088Y-129998781D01*
X120292601Y-130000000D01*
X100599500Y-130000000D01*
X100541309Y-129981093D01*
X100505345Y-129931593D01*
X100500500Y-129901000D01*
X100500500Y-100599500D01*
X100519407Y-100541309D01*
X100568907Y-100505345D01*
X100599500Y-100500500D01*
X123401000Y-100500500D01*
X123459191Y-100519407D01*
G37*
%TD.AperFunction*%
%TA.AperFunction,Conductor*%
G36*
X111214912Y-110289107D02*
G01*
X111226725Y-110299196D01*
X111415504Y-110487975D01*
X111443281Y-110542492D01*
X111444500Y-110557979D01*
X111444500Y-111499274D01*
X111447353Y-111529694D01*
X111447355Y-111529703D01*
X111492207Y-111657883D01*
X111572845Y-111767144D01*
X111572847Y-111767146D01*
X111572850Y-111767150D01*
X111572853Y-111767152D01*
X111572855Y-111767154D01*
X111682116Y-111847792D01*
X111682117Y-111847792D01*
X111682118Y-111847793D01*
X111810301Y-111892646D01*
X111840725Y-111895499D01*
X111840727Y-111895500D01*
X111840734Y-111895500D01*
X112782021Y-111895500D01*
X112840212Y-111914407D01*
X112852025Y-111924496D01*
X113116940Y-112189411D01*
X113116939Y-112189411D01*
X113172889Y-112245360D01*
X113241407Y-112284919D01*
X113241411Y-112284921D01*
X113317835Y-112305399D01*
X113317837Y-112305400D01*
X113317838Y-112305400D01*
X113396962Y-112305400D01*
X119948791Y-112305400D01*
X120006982Y-112324307D01*
X120042946Y-112373807D01*
X120046944Y-112391477D01*
X120047100Y-112392665D01*
X120067578Y-112469088D01*
X120067580Y-112469092D01*
X120107138Y-112537608D01*
X120107140Y-112537611D01*
X122930140Y-115360611D01*
X122930139Y-115360611D01*
X122986089Y-115416560D01*
X123054607Y-115456119D01*
X123054611Y-115456121D01*
X123131035Y-115476599D01*
X123131037Y-115476600D01*
X123131038Y-115476600D01*
X123210162Y-115476600D01*
X125276265Y-115476600D01*
X125301887Y-115479973D01*
X125333338Y-115488400D01*
X125333339Y-115488400D01*
X125401000Y-115488400D01*
X125459191Y-115507307D01*
X125495155Y-115556807D01*
X125500000Y-115587400D01*
X125500000Y-115931704D01*
X125481093Y-115989895D01*
X125431593Y-116025859D01*
X125375378Y-116027331D01*
X125327675Y-116014549D01*
X125300992Y-116007400D01*
X125200579Y-116007400D01*
X125142388Y-115988493D01*
X125130576Y-115978404D01*
X124891210Y-115739039D01*
X124822692Y-115699480D01*
X124822688Y-115699478D01*
X124746264Y-115679000D01*
X124746262Y-115679000D01*
X118016437Y-115679000D01*
X117958246Y-115660093D01*
X117922282Y-115610593D01*
X117922282Y-115549407D01*
X117958246Y-115499907D01*
X117978547Y-115488537D01*
X118117598Y-115430941D01*
X118289655Y-115315977D01*
X118435977Y-115169655D01*
X118550941Y-114997598D01*
X118630130Y-114806420D01*
X118670500Y-114603465D01*
X118670500Y-114396535D01*
X118630130Y-114193580D01*
X118550941Y-114002402D01*
X118435977Y-113830345D01*
X118289655Y-113684023D01*
X118209182Y-113630253D01*
X118117597Y-113569058D01*
X117926418Y-113489869D01*
X117723467Y-113449500D01*
X117723465Y-113449500D01*
X117516535Y-113449500D01*
X117516532Y-113449500D01*
X117313581Y-113489869D01*
X117122402Y-113569058D01*
X116950348Y-113684020D01*
X116804020Y-113830348D01*
X116689058Y-114002402D01*
X116609869Y-114193581D01*
X116569500Y-114396532D01*
X116569500Y-114603467D01*
X116609869Y-114806418D01*
X116689058Y-114997597D01*
X116741111Y-115075500D01*
X116804023Y-115169655D01*
X116950345Y-115315977D01*
X117122402Y-115430941D01*
X117261450Y-115488536D01*
X117307974Y-115528273D01*
X117322258Y-115587767D01*
X117298843Y-115644295D01*
X117246674Y-115676265D01*
X117223563Y-115679000D01*
X115476437Y-115679000D01*
X115418246Y-115660093D01*
X115382282Y-115610593D01*
X115382282Y-115549407D01*
X115418246Y-115499907D01*
X115438547Y-115488537D01*
X115577598Y-115430941D01*
X115749655Y-115315977D01*
X115895977Y-115169655D01*
X116010941Y-114997598D01*
X116090130Y-114806420D01*
X116130500Y-114603465D01*
X116130500Y-114396535D01*
X116090130Y-114193580D01*
X116010941Y-114002402D01*
X115895977Y-113830345D01*
X115749655Y-113684023D01*
X115669182Y-113630253D01*
X115577597Y-113569058D01*
X115386418Y-113489869D01*
X115183467Y-113449500D01*
X115183465Y-113449500D01*
X114976535Y-113449500D01*
X114976532Y-113449500D01*
X114773581Y-113489869D01*
X114582402Y-113569058D01*
X114410348Y-113684020D01*
X114264020Y-113830348D01*
X114149058Y-114002402D01*
X114069869Y-114193581D01*
X114029500Y-114396532D01*
X114029500Y-114603467D01*
X114069869Y-114806418D01*
X114149058Y-114997597D01*
X114201111Y-115075500D01*
X114264023Y-115169655D01*
X114410345Y-115315977D01*
X114582402Y-115430941D01*
X114721450Y-115488536D01*
X114767974Y-115528273D01*
X114782258Y-115587767D01*
X114758843Y-115644295D01*
X114706674Y-115676265D01*
X114683563Y-115679000D01*
X111044865Y-115679000D01*
X110986674Y-115660093D01*
X110950710Y-115610593D01*
X110950710Y-115549407D01*
X110986674Y-115499907D01*
X110989847Y-115497695D01*
X110994552Y-115494552D01*
X111038867Y-115428231D01*
X111050500Y-115369748D01*
X111050500Y-113630252D01*
X111038867Y-113571769D01*
X110994552Y-113505448D01*
X110994548Y-113505445D01*
X110928233Y-113461134D01*
X110928231Y-113461133D01*
X110928228Y-113461132D01*
X110928227Y-113461132D01*
X110869758Y-113449501D01*
X110869748Y-113449500D01*
X109140479Y-113449500D01*
X109082288Y-113430593D01*
X109070475Y-113420504D01*
X106979496Y-111329525D01*
X106951719Y-111275008D01*
X106950500Y-111259521D01*
X106950500Y-110740479D01*
X106969407Y-110682288D01*
X106979496Y-110670475D01*
X107350775Y-110299196D01*
X107405292Y-110271419D01*
X107420779Y-110270200D01*
X111156721Y-110270200D01*
X111214912Y-110289107D01*
G37*
%TD.AperFunction*%
%TD*%
M02*
