%TF.GenerationSoftware,KiCad,Pcbnew,10.0.6*%
%TF.CreationDate,2026-09-10T19:54:18+09:00*%
%TF.ProjectId,astra-board,61737472-612d-4626-9f61-72642e6b6963,rev?*%
%TF.SameCoordinates,Original*%
%TF.FileFunction,Legend,Top*%
%TF.FilePolarity,Positive*%
%FSLAX46Y46*%
G04 Gerber Fmt 4.6, Leading zero omitted, Abs format (unit mm)*
G04 Created by KiCad (PCBNEW 10.0.6) date 2026-09-10 19:54:18*
%MOMM*%
%LPD*%
G01*
G04 APERTURE LIST*
%ADD10C,0.120000*%
%ADD11C,0.150000*%
G04 APERTURE END LIST*
D10*
X102838095Y-105163855D02*
X102571428Y-104782902D01*
X102380952Y-105163855D02*
X102380952Y-104363855D01*
X102380952Y-104363855D02*
X102685714Y-104363855D01*
X102685714Y-104363855D02*
X102761904Y-104401950D01*
X102761904Y-104401950D02*
X102799999Y-104440045D01*
X102799999Y-104440045D02*
X102838095Y-104516236D01*
X102838095Y-104516236D02*
X102838095Y-104630521D01*
X102838095Y-104630521D02*
X102799999Y-104706712D01*
X102799999Y-104706712D02*
X102761904Y-104744807D01*
X102761904Y-104744807D02*
X102685714Y-104782902D01*
X102685714Y-104782902D02*
X102380952Y-104782902D01*
X103180952Y-104744807D02*
X103447618Y-104744807D01*
X103561904Y-105163855D02*
X103180952Y-105163855D01*
X103180952Y-105163855D02*
X103180952Y-104363855D01*
X103180952Y-104363855D02*
X103561904Y-104363855D01*
X103866666Y-105125760D02*
X103980952Y-105163855D01*
X103980952Y-105163855D02*
X104171428Y-105163855D01*
X104171428Y-105163855D02*
X104247619Y-105125760D01*
X104247619Y-105125760D02*
X104285714Y-105087664D01*
X104285714Y-105087664D02*
X104323809Y-105011474D01*
X104323809Y-105011474D02*
X104323809Y-104935283D01*
X104323809Y-104935283D02*
X104285714Y-104859093D01*
X104285714Y-104859093D02*
X104247619Y-104820998D01*
X104247619Y-104820998D02*
X104171428Y-104782902D01*
X104171428Y-104782902D02*
X104019047Y-104744807D01*
X104019047Y-104744807D02*
X103942857Y-104706712D01*
X103942857Y-104706712D02*
X103904762Y-104668617D01*
X103904762Y-104668617D02*
X103866666Y-104592426D01*
X103866666Y-104592426D02*
X103866666Y-104516236D01*
X103866666Y-104516236D02*
X103904762Y-104440045D01*
X103904762Y-104440045D02*
X103942857Y-104401950D01*
X103942857Y-104401950D02*
X104019047Y-104363855D01*
X104019047Y-104363855D02*
X104209524Y-104363855D01*
X104209524Y-104363855D02*
X104323809Y-104401950D01*
X104666667Y-104744807D02*
X104933333Y-104744807D01*
X105047619Y-105163855D02*
X104666667Y-105163855D01*
X104666667Y-105163855D02*
X104666667Y-104363855D01*
X104666667Y-104363855D02*
X105047619Y-104363855D01*
X105276191Y-104363855D02*
X105733334Y-104363855D01*
X105504762Y-105163855D02*
X105504762Y-104363855D01*
X102914285Y-108644807D02*
X103028571Y-108682902D01*
X103028571Y-108682902D02*
X103066666Y-108720998D01*
X103066666Y-108720998D02*
X103104762Y-108797188D01*
X103104762Y-108797188D02*
X103104762Y-108911474D01*
X103104762Y-108911474D02*
X103066666Y-108987664D01*
X103066666Y-108987664D02*
X103028571Y-109025760D01*
X103028571Y-109025760D02*
X102952381Y-109063855D01*
X102952381Y-109063855D02*
X102647619Y-109063855D01*
X102647619Y-109063855D02*
X102647619Y-108263855D01*
X102647619Y-108263855D02*
X102914285Y-108263855D01*
X102914285Y-108263855D02*
X102990476Y-108301950D01*
X102990476Y-108301950D02*
X103028571Y-108340045D01*
X103028571Y-108340045D02*
X103066666Y-108416236D01*
X103066666Y-108416236D02*
X103066666Y-108492426D01*
X103066666Y-108492426D02*
X103028571Y-108568617D01*
X103028571Y-108568617D02*
X102990476Y-108606712D01*
X102990476Y-108606712D02*
X102914285Y-108644807D01*
X102914285Y-108644807D02*
X102647619Y-108644807D01*
X103600000Y-108263855D02*
X103752381Y-108263855D01*
X103752381Y-108263855D02*
X103828571Y-108301950D01*
X103828571Y-108301950D02*
X103904762Y-108378140D01*
X103904762Y-108378140D02*
X103942857Y-108530521D01*
X103942857Y-108530521D02*
X103942857Y-108797188D01*
X103942857Y-108797188D02*
X103904762Y-108949569D01*
X103904762Y-108949569D02*
X103828571Y-109025760D01*
X103828571Y-109025760D02*
X103752381Y-109063855D01*
X103752381Y-109063855D02*
X103600000Y-109063855D01*
X103600000Y-109063855D02*
X103523809Y-109025760D01*
X103523809Y-109025760D02*
X103447619Y-108949569D01*
X103447619Y-108949569D02*
X103409523Y-108797188D01*
X103409523Y-108797188D02*
X103409523Y-108530521D01*
X103409523Y-108530521D02*
X103447619Y-108378140D01*
X103447619Y-108378140D02*
X103523809Y-108301950D01*
X103523809Y-108301950D02*
X103600000Y-108263855D01*
X104438095Y-108263855D02*
X104590476Y-108263855D01*
X104590476Y-108263855D02*
X104666666Y-108301950D01*
X104666666Y-108301950D02*
X104742857Y-108378140D01*
X104742857Y-108378140D02*
X104780952Y-108530521D01*
X104780952Y-108530521D02*
X104780952Y-108797188D01*
X104780952Y-108797188D02*
X104742857Y-108949569D01*
X104742857Y-108949569D02*
X104666666Y-109025760D01*
X104666666Y-109025760D02*
X104590476Y-109063855D01*
X104590476Y-109063855D02*
X104438095Y-109063855D01*
X104438095Y-109063855D02*
X104361904Y-109025760D01*
X104361904Y-109025760D02*
X104285714Y-108949569D01*
X104285714Y-108949569D02*
X104247618Y-108797188D01*
X104247618Y-108797188D02*
X104247618Y-108530521D01*
X104247618Y-108530521D02*
X104285714Y-108378140D01*
X104285714Y-108378140D02*
X104361904Y-108301950D01*
X104361904Y-108301950D02*
X104438095Y-108263855D01*
X105009523Y-108263855D02*
X105466666Y-108263855D01*
X105238094Y-109063855D02*
X105238094Y-108263855D01*
X104228571Y-139813855D02*
X103771428Y-139813855D01*
X104000000Y-139813855D02*
X104000000Y-139013855D01*
X104000000Y-139013855D02*
X103923809Y-139128140D01*
X103923809Y-139128140D02*
X103847619Y-139204331D01*
X103847619Y-139204331D02*
X103771428Y-139242426D01*
X111171428Y-139090045D02*
X111209524Y-139051950D01*
X111209524Y-139051950D02*
X111285714Y-139013855D01*
X111285714Y-139013855D02*
X111476190Y-139013855D01*
X111476190Y-139013855D02*
X111552381Y-139051950D01*
X111552381Y-139051950D02*
X111590476Y-139090045D01*
X111590476Y-139090045D02*
X111628571Y-139166236D01*
X111628571Y-139166236D02*
X111628571Y-139242426D01*
X111628571Y-139242426D02*
X111590476Y-139356712D01*
X111590476Y-139356712D02*
X111133333Y-139813855D01*
X111133333Y-139813855D02*
X111628571Y-139813855D01*
X118533333Y-139013855D02*
X119028571Y-139013855D01*
X119028571Y-139013855D02*
X118761905Y-139318617D01*
X118761905Y-139318617D02*
X118876190Y-139318617D01*
X118876190Y-139318617D02*
X118952381Y-139356712D01*
X118952381Y-139356712D02*
X118990476Y-139394807D01*
X118990476Y-139394807D02*
X119028571Y-139470998D01*
X119028571Y-139470998D02*
X119028571Y-139661474D01*
X119028571Y-139661474D02*
X118990476Y-139737664D01*
X118990476Y-139737664D02*
X118952381Y-139775760D01*
X118952381Y-139775760D02*
X118876190Y-139813855D01*
X118876190Y-139813855D02*
X118647619Y-139813855D01*
X118647619Y-139813855D02*
X118571428Y-139775760D01*
X118571428Y-139775760D02*
X118533333Y-139737664D01*
X126352381Y-139280521D02*
X126352381Y-139813855D01*
X126161905Y-138975760D02*
X125971428Y-139547188D01*
X125971428Y-139547188D02*
X126466667Y-139547188D01*
X133790476Y-139013855D02*
X133409524Y-139013855D01*
X133409524Y-139013855D02*
X133371428Y-139394807D01*
X133371428Y-139394807D02*
X133409524Y-139356712D01*
X133409524Y-139356712D02*
X133485714Y-139318617D01*
X133485714Y-139318617D02*
X133676190Y-139318617D01*
X133676190Y-139318617D02*
X133752381Y-139356712D01*
X133752381Y-139356712D02*
X133790476Y-139394807D01*
X133790476Y-139394807D02*
X133828571Y-139470998D01*
X133828571Y-139470998D02*
X133828571Y-139661474D01*
X133828571Y-139661474D02*
X133790476Y-139737664D01*
X133790476Y-139737664D02*
X133752381Y-139775760D01*
X133752381Y-139775760D02*
X133676190Y-139813855D01*
X133676190Y-139813855D02*
X133485714Y-139813855D01*
X133485714Y-139813855D02*
X133409524Y-139775760D01*
X133409524Y-139775760D02*
X133371428Y-139737664D01*
X132247619Y-125563855D02*
X132247619Y-126211474D01*
X132247619Y-126211474D02*
X132285714Y-126287664D01*
X132285714Y-126287664D02*
X132323809Y-126325760D01*
X132323809Y-126325760D02*
X132400000Y-126363855D01*
X132400000Y-126363855D02*
X132552381Y-126363855D01*
X132552381Y-126363855D02*
X132628571Y-126325760D01*
X132628571Y-126325760D02*
X132666666Y-126287664D01*
X132666666Y-126287664D02*
X132704762Y-126211474D01*
X132704762Y-126211474D02*
X132704762Y-125563855D01*
X133047618Y-126325760D02*
X133161904Y-126363855D01*
X133161904Y-126363855D02*
X133352380Y-126363855D01*
X133352380Y-126363855D02*
X133428571Y-126325760D01*
X133428571Y-126325760D02*
X133466666Y-126287664D01*
X133466666Y-126287664D02*
X133504761Y-126211474D01*
X133504761Y-126211474D02*
X133504761Y-126135283D01*
X133504761Y-126135283D02*
X133466666Y-126059093D01*
X133466666Y-126059093D02*
X133428571Y-126020998D01*
X133428571Y-126020998D02*
X133352380Y-125982902D01*
X133352380Y-125982902D02*
X133199999Y-125944807D01*
X133199999Y-125944807D02*
X133123809Y-125906712D01*
X133123809Y-125906712D02*
X133085714Y-125868617D01*
X133085714Y-125868617D02*
X133047618Y-125792426D01*
X133047618Y-125792426D02*
X133047618Y-125716236D01*
X133047618Y-125716236D02*
X133085714Y-125640045D01*
X133085714Y-125640045D02*
X133123809Y-125601950D01*
X133123809Y-125601950D02*
X133199999Y-125563855D01*
X133199999Y-125563855D02*
X133390476Y-125563855D01*
X133390476Y-125563855D02*
X133504761Y-125601950D01*
X133847619Y-125944807D02*
X134114285Y-125944807D01*
X134228571Y-126363855D02*
X133847619Y-126363855D01*
X133847619Y-126363855D02*
X133847619Y-125563855D01*
X133847619Y-125563855D02*
X134228571Y-125563855D01*
X135028572Y-126363855D02*
X134761905Y-125982902D01*
X134571429Y-126363855D02*
X134571429Y-125563855D01*
X134571429Y-125563855D02*
X134876191Y-125563855D01*
X134876191Y-125563855D02*
X134952381Y-125601950D01*
X134952381Y-125601950D02*
X134990476Y-125640045D01*
X134990476Y-125640045D02*
X135028572Y-125716236D01*
X135028572Y-125716236D02*
X135028572Y-125830521D01*
X135028572Y-125830521D02*
X134990476Y-125906712D01*
X134990476Y-125906712D02*
X134952381Y-125944807D01*
X134952381Y-125944807D02*
X134876191Y-125982902D01*
X134876191Y-125982902D02*
X134571429Y-125982902D01*
X135790476Y-126363855D02*
X135333333Y-126363855D01*
X135561905Y-126363855D02*
X135561905Y-125563855D01*
X135561905Y-125563855D02*
X135485714Y-125678140D01*
X135485714Y-125678140D02*
X135409524Y-125754331D01*
X135409524Y-125754331D02*
X135333333Y-125792426D01*
X141152381Y-139013855D02*
X141000000Y-139013855D01*
X141000000Y-139013855D02*
X140923809Y-139051950D01*
X140923809Y-139051950D02*
X140885714Y-139090045D01*
X140885714Y-139090045D02*
X140809524Y-139204331D01*
X140809524Y-139204331D02*
X140771428Y-139356712D01*
X140771428Y-139356712D02*
X140771428Y-139661474D01*
X140771428Y-139661474D02*
X140809524Y-139737664D01*
X140809524Y-139737664D02*
X140847619Y-139775760D01*
X140847619Y-139775760D02*
X140923809Y-139813855D01*
X140923809Y-139813855D02*
X141076190Y-139813855D01*
X141076190Y-139813855D02*
X141152381Y-139775760D01*
X141152381Y-139775760D02*
X141190476Y-139737664D01*
X141190476Y-139737664D02*
X141228571Y-139661474D01*
X141228571Y-139661474D02*
X141228571Y-139470998D01*
X141228571Y-139470998D02*
X141190476Y-139394807D01*
X141190476Y-139394807D02*
X141152381Y-139356712D01*
X141152381Y-139356712D02*
X141076190Y-139318617D01*
X141076190Y-139318617D02*
X140923809Y-139318617D01*
X140923809Y-139318617D02*
X140847619Y-139356712D01*
X140847619Y-139356712D02*
X140809524Y-139394807D01*
X140809524Y-139394807D02*
X140771428Y-139470998D01*
X141247619Y-125563855D02*
X141247619Y-126211474D01*
X141247619Y-126211474D02*
X141285714Y-126287664D01*
X141285714Y-126287664D02*
X141323809Y-126325760D01*
X141323809Y-126325760D02*
X141400000Y-126363855D01*
X141400000Y-126363855D02*
X141552381Y-126363855D01*
X141552381Y-126363855D02*
X141628571Y-126325760D01*
X141628571Y-126325760D02*
X141666666Y-126287664D01*
X141666666Y-126287664D02*
X141704762Y-126211474D01*
X141704762Y-126211474D02*
X141704762Y-125563855D01*
X142047618Y-126325760D02*
X142161904Y-126363855D01*
X142161904Y-126363855D02*
X142352380Y-126363855D01*
X142352380Y-126363855D02*
X142428571Y-126325760D01*
X142428571Y-126325760D02*
X142466666Y-126287664D01*
X142466666Y-126287664D02*
X142504761Y-126211474D01*
X142504761Y-126211474D02*
X142504761Y-126135283D01*
X142504761Y-126135283D02*
X142466666Y-126059093D01*
X142466666Y-126059093D02*
X142428571Y-126020998D01*
X142428571Y-126020998D02*
X142352380Y-125982902D01*
X142352380Y-125982902D02*
X142199999Y-125944807D01*
X142199999Y-125944807D02*
X142123809Y-125906712D01*
X142123809Y-125906712D02*
X142085714Y-125868617D01*
X142085714Y-125868617D02*
X142047618Y-125792426D01*
X142047618Y-125792426D02*
X142047618Y-125716236D01*
X142047618Y-125716236D02*
X142085714Y-125640045D01*
X142085714Y-125640045D02*
X142123809Y-125601950D01*
X142123809Y-125601950D02*
X142199999Y-125563855D01*
X142199999Y-125563855D02*
X142390476Y-125563855D01*
X142390476Y-125563855D02*
X142504761Y-125601950D01*
X142847619Y-125944807D02*
X143114285Y-125944807D01*
X143228571Y-126363855D02*
X142847619Y-126363855D01*
X142847619Y-126363855D02*
X142847619Y-125563855D01*
X142847619Y-125563855D02*
X143228571Y-125563855D01*
X144028572Y-126363855D02*
X143761905Y-125982902D01*
X143571429Y-126363855D02*
X143571429Y-125563855D01*
X143571429Y-125563855D02*
X143876191Y-125563855D01*
X143876191Y-125563855D02*
X143952381Y-125601950D01*
X143952381Y-125601950D02*
X143990476Y-125640045D01*
X143990476Y-125640045D02*
X144028572Y-125716236D01*
X144028572Y-125716236D02*
X144028572Y-125830521D01*
X144028572Y-125830521D02*
X143990476Y-125906712D01*
X143990476Y-125906712D02*
X143952381Y-125944807D01*
X143952381Y-125944807D02*
X143876191Y-125982902D01*
X143876191Y-125982902D02*
X143571429Y-125982902D01*
X144333333Y-125640045D02*
X144371429Y-125601950D01*
X144371429Y-125601950D02*
X144447619Y-125563855D01*
X144447619Y-125563855D02*
X144638095Y-125563855D01*
X144638095Y-125563855D02*
X144714286Y-125601950D01*
X144714286Y-125601950D02*
X144752381Y-125640045D01*
X144752381Y-125640045D02*
X144790476Y-125716236D01*
X144790476Y-125716236D02*
X144790476Y-125792426D01*
X144790476Y-125792426D02*
X144752381Y-125906712D01*
X144752381Y-125906712D02*
X144295238Y-126363855D01*
X144295238Y-126363855D02*
X144790476Y-126363855D01*
X148133333Y-139013855D02*
X148666667Y-139013855D01*
X148666667Y-139013855D02*
X148323809Y-139813855D01*
X155723809Y-139356712D02*
X155647619Y-139318617D01*
X155647619Y-139318617D02*
X155609524Y-139280521D01*
X155609524Y-139280521D02*
X155571428Y-139204331D01*
X155571428Y-139204331D02*
X155571428Y-139166236D01*
X155571428Y-139166236D02*
X155609524Y-139090045D01*
X155609524Y-139090045D02*
X155647619Y-139051950D01*
X155647619Y-139051950D02*
X155723809Y-139013855D01*
X155723809Y-139013855D02*
X155876190Y-139013855D01*
X155876190Y-139013855D02*
X155952381Y-139051950D01*
X155952381Y-139051950D02*
X155990476Y-139090045D01*
X155990476Y-139090045D02*
X156028571Y-139166236D01*
X156028571Y-139166236D02*
X156028571Y-139204331D01*
X156028571Y-139204331D02*
X155990476Y-139280521D01*
X155990476Y-139280521D02*
X155952381Y-139318617D01*
X155952381Y-139318617D02*
X155876190Y-139356712D01*
X155876190Y-139356712D02*
X155723809Y-139356712D01*
X155723809Y-139356712D02*
X155647619Y-139394807D01*
X155647619Y-139394807D02*
X155609524Y-139432902D01*
X155609524Y-139432902D02*
X155571428Y-139509093D01*
X155571428Y-139509093D02*
X155571428Y-139661474D01*
X155571428Y-139661474D02*
X155609524Y-139737664D01*
X155609524Y-139737664D02*
X155647619Y-139775760D01*
X155647619Y-139775760D02*
X155723809Y-139813855D01*
X155723809Y-139813855D02*
X155876190Y-139813855D01*
X155876190Y-139813855D02*
X155952381Y-139775760D01*
X155952381Y-139775760D02*
X155990476Y-139737664D01*
X155990476Y-139737664D02*
X156028571Y-139661474D01*
X156028571Y-139661474D02*
X156028571Y-139509093D01*
X156028571Y-139509093D02*
X155990476Y-139432902D01*
X155990476Y-139432902D02*
X155952381Y-139394807D01*
X155952381Y-139394807D02*
X155876190Y-139356712D01*
D11*
X112071428Y-101133723D02*
X112452381Y-101133723D01*
X111995238Y-101362295D02*
X112261905Y-100562295D01*
X112261905Y-100562295D02*
X112528571Y-101362295D01*
X112757142Y-101324200D02*
X112871428Y-101362295D01*
X112871428Y-101362295D02*
X113061904Y-101362295D01*
X113061904Y-101362295D02*
X113138095Y-101324200D01*
X113138095Y-101324200D02*
X113176190Y-101286104D01*
X113176190Y-101286104D02*
X113214285Y-101209914D01*
X113214285Y-101209914D02*
X113214285Y-101133723D01*
X113214285Y-101133723D02*
X113176190Y-101057533D01*
X113176190Y-101057533D02*
X113138095Y-101019438D01*
X113138095Y-101019438D02*
X113061904Y-100981342D01*
X113061904Y-100981342D02*
X112909523Y-100943247D01*
X112909523Y-100943247D02*
X112833333Y-100905152D01*
X112833333Y-100905152D02*
X112795238Y-100867057D01*
X112795238Y-100867057D02*
X112757142Y-100790866D01*
X112757142Y-100790866D02*
X112757142Y-100714676D01*
X112757142Y-100714676D02*
X112795238Y-100638485D01*
X112795238Y-100638485D02*
X112833333Y-100600390D01*
X112833333Y-100600390D02*
X112909523Y-100562295D01*
X112909523Y-100562295D02*
X113100000Y-100562295D01*
X113100000Y-100562295D02*
X113214285Y-100600390D01*
X113442857Y-100562295D02*
X113900000Y-100562295D01*
X113671428Y-101362295D02*
X113671428Y-100562295D01*
X114623810Y-101362295D02*
X114357143Y-100981342D01*
X114166667Y-101362295D02*
X114166667Y-100562295D01*
X114166667Y-100562295D02*
X114471429Y-100562295D01*
X114471429Y-100562295D02*
X114547619Y-100600390D01*
X114547619Y-100600390D02*
X114585714Y-100638485D01*
X114585714Y-100638485D02*
X114623810Y-100714676D01*
X114623810Y-100714676D02*
X114623810Y-100828961D01*
X114623810Y-100828961D02*
X114585714Y-100905152D01*
X114585714Y-100905152D02*
X114547619Y-100943247D01*
X114547619Y-100943247D02*
X114471429Y-100981342D01*
X114471429Y-100981342D02*
X114166667Y-100981342D01*
X114928571Y-101133723D02*
X115309524Y-101133723D01*
X114852381Y-101362295D02*
X115119048Y-100562295D01*
X115119048Y-100562295D02*
X115385714Y-101362295D01*
X116833333Y-100524200D02*
X116147619Y-101552771D01*
X118166667Y-101286104D02*
X118128571Y-101324200D01*
X118128571Y-101324200D02*
X118014286Y-101362295D01*
X118014286Y-101362295D02*
X117938095Y-101362295D01*
X117938095Y-101362295D02*
X117823809Y-101324200D01*
X117823809Y-101324200D02*
X117747619Y-101248009D01*
X117747619Y-101248009D02*
X117709524Y-101171819D01*
X117709524Y-101171819D02*
X117671428Y-101019438D01*
X117671428Y-101019438D02*
X117671428Y-100905152D01*
X117671428Y-100905152D02*
X117709524Y-100752771D01*
X117709524Y-100752771D02*
X117747619Y-100676580D01*
X117747619Y-100676580D02*
X117823809Y-100600390D01*
X117823809Y-100600390D02*
X117938095Y-100562295D01*
X117938095Y-100562295D02*
X118014286Y-100562295D01*
X118014286Y-100562295D02*
X118128571Y-100600390D01*
X118128571Y-100600390D02*
X118166667Y-100638485D01*
X118433333Y-100562295D02*
X118928571Y-100562295D01*
X118928571Y-100562295D02*
X118661905Y-100867057D01*
X118661905Y-100867057D02*
X118776190Y-100867057D01*
X118776190Y-100867057D02*
X118852381Y-100905152D01*
X118852381Y-100905152D02*
X118890476Y-100943247D01*
X118890476Y-100943247D02*
X118928571Y-101019438D01*
X118928571Y-101019438D02*
X118928571Y-101209914D01*
X118928571Y-101209914D02*
X118890476Y-101286104D01*
X118890476Y-101286104D02*
X118852381Y-101324200D01*
X118852381Y-101324200D02*
X118776190Y-101362295D01*
X118776190Y-101362295D02*
X118547619Y-101362295D01*
X118547619Y-101362295D02*
X118471428Y-101324200D01*
X118471428Y-101324200D02*
X118433333Y-101286104D01*
%TO.C,Q1*%
D10*
X121990000Y-116040000D02*
X123510000Y-116040000D01*
X121990000Y-116090000D02*
X121990000Y-116040000D01*
X121990000Y-117990000D02*
X121990000Y-117210000D01*
X121990000Y-119160000D02*
X121990000Y-119110000D01*
X123510000Y-116040000D02*
X123510000Y-117040000D01*
X123510000Y-118160000D02*
X123510000Y-119160000D01*
X123510000Y-119160000D02*
X121990000Y-119160000D01*
X121450000Y-117220000D02*
X121690000Y-117550000D01*
X121210000Y-117550000D01*
X121450000Y-117220000D01*
G36*
X121690000Y-117550000D02*
G01*
X121210000Y-117550000D01*
X121450000Y-117220000D01*
X121690000Y-117550000D01*
G37*
%TO.C,J3*%
X108620000Y-115880000D02*
X108620000Y-114500000D01*
X110000000Y-115880000D02*
X108620000Y-115880000D01*
X111270000Y-113120000D02*
X119000000Y-113120000D01*
X111270000Y-115880000D02*
X111270000Y-113120000D01*
X111270000Y-115880000D02*
X119000000Y-115880000D01*
X119000000Y-115880000D02*
X119000000Y-113120000D01*
%TO.C,R9*%
X121462742Y-127477500D02*
X121937258Y-127477500D01*
X121462742Y-128522500D02*
X121937258Y-128522500D01*
%TO.C,C5*%
X123600000Y-108955000D02*
X127520000Y-108955000D01*
X127520000Y-107045000D02*
X123600000Y-107045000D01*
X127520000Y-108955000D02*
X127520000Y-107045000D01*
%TO.C,C6*%
X117680000Y-110045000D02*
X117680000Y-111955000D01*
X117680000Y-111955000D02*
X121600000Y-111955000D01*
X121600000Y-110045000D02*
X117680000Y-110045000D01*
%TO.C,R1*%
X149762742Y-118077500D02*
X150237258Y-118077500D01*
X149762742Y-119122500D02*
X150237258Y-119122500D01*
%TO.C,R4*%
X129762742Y-120777500D02*
X130237258Y-120777500D01*
X129762742Y-121822500D02*
X130237258Y-121822500D01*
%TO.C,R10*%
X121462742Y-129977500D02*
X121937258Y-129977500D01*
X121462742Y-131022500D02*
X121937258Y-131022500D01*
%TO.C,C12*%
X126059420Y-132290000D02*
X126340580Y-132290000D01*
X126059420Y-133310000D02*
X126340580Y-133310000D01*
%TO.C,C1*%
X125859420Y-110090000D02*
X126140580Y-110090000D01*
X125859420Y-111110000D02*
X126140580Y-111110000D01*
%TO.C,C8*%
X121559420Y-121290000D02*
X121840580Y-121290000D01*
X121559420Y-122310000D02*
X121840580Y-122310000D01*
%TO.C,U4*%
X147940000Y-108890000D02*
X147990000Y-108890000D01*
X147940000Y-110710000D02*
X147940000Y-108890000D01*
X147990000Y-110710000D02*
X147940000Y-110710000D01*
X151010000Y-108890000D02*
X151060000Y-108890000D01*
X151060000Y-108890000D02*
X151060000Y-110710000D01*
X151060000Y-110710000D02*
X151010000Y-110710000D01*
X147990000Y-111250000D02*
X147660000Y-111490000D01*
X147660000Y-111010000D01*
X147990000Y-111250000D01*
G36*
X147990000Y-111250000D02*
G01*
X147660000Y-111490000D01*
X147660000Y-111010000D01*
X147990000Y-111250000D01*
G37*
%TO.C,U3*%
X120790000Y-122940000D02*
X122610000Y-122940000D01*
X120790000Y-122990000D02*
X120790000Y-122940000D01*
X120790000Y-126060000D02*
X120790000Y-126010000D01*
X122610000Y-122940000D02*
X122610000Y-122990000D01*
X122610000Y-124110000D02*
X122610000Y-124890000D01*
X122610000Y-126010000D02*
X122610000Y-126060000D01*
X122610000Y-126060000D02*
X120790000Y-126060000D01*
X120250000Y-122990000D02*
X120010000Y-122660000D01*
X120490000Y-122660000D01*
X120250000Y-122990000D01*
G36*
X120250000Y-122990000D02*
G01*
X120010000Y-122660000D01*
X120490000Y-122660000D01*
X120250000Y-122990000D01*
G37*
%TO.C,R2*%
X149762742Y-116277500D02*
X150237258Y-116277500D01*
X149762742Y-117322500D02*
X150237258Y-117322500D01*
%TO.C,J2*%
X154815000Y-122890000D02*
X154815000Y-123940000D01*
X154815000Y-128060000D02*
X153825000Y-128060000D01*
X154815000Y-129110000D02*
X154815000Y-128060000D01*
X157315000Y-122890000D02*
X154815000Y-122890000D01*
X157315000Y-129110000D02*
X154815000Y-129110000D01*
X159285000Y-127940000D02*
X159285000Y-124060000D01*
%TO.C,C9*%
X103859420Y-132290000D02*
X104140580Y-132290000D01*
X103859420Y-133310000D02*
X104140580Y-133310000D01*
%TO.C,U2*%
X114150000Y-102590000D02*
X117910000Y-102590000D01*
X114150000Y-109410000D02*
X117910000Y-109410000D01*
X117910000Y-102590000D02*
X117910000Y-103850000D01*
X117910000Y-109410000D02*
X117910000Y-108150000D01*
X112870000Y-102690000D02*
X112630000Y-102360000D01*
X113110000Y-102360000D01*
X112870000Y-102690000D01*
G36*
X112870000Y-102690000D02*
G01*
X112630000Y-102360000D01*
X113110000Y-102360000D01*
X112870000Y-102690000D01*
G37*
%TO.C,R11*%
X126012742Y-116977500D02*
X126487258Y-116977500D01*
X126012742Y-118022500D02*
X126487258Y-118022500D01*
%TO.C,R13*%
X126262742Y-121777500D02*
X126737258Y-121777500D01*
X126262742Y-122822500D02*
X126737258Y-122822500D01*
%TO.C,R15*%
X149637258Y-114377500D02*
X149162742Y-114377500D01*
X149637258Y-115422500D02*
X149162742Y-115422500D01*
%TO.C,R5*%
X133762742Y-120777500D02*
X134237258Y-120777500D01*
X133762742Y-121822500D02*
X134237258Y-121822500D01*
%TO.C,R7*%
X149762742Y-121477500D02*
X150237258Y-121477500D01*
X149762742Y-122522500D02*
X150237258Y-122522500D01*
%TO.C,C2*%
X125859420Y-113890000D02*
X126140580Y-113890000D01*
X125859420Y-114910000D02*
X126140580Y-114910000D01*
%TO.C,R6*%
X137762742Y-120777500D02*
X138237258Y-120777500D01*
X137762742Y-121822500D02*
X138237258Y-121822500D01*
%TO.C,R3*%
X125762742Y-111977500D02*
X126237258Y-111977500D01*
X125762742Y-113022500D02*
X126237258Y-113022500D01*
%TO.C,C13*%
X133459420Y-132290000D02*
X133740580Y-132290000D01*
X133459420Y-133310000D02*
X133740580Y-133310000D01*
%TO.C,C10*%
X111259420Y-132290000D02*
X111540580Y-132290000D01*
X111259420Y-133310000D02*
X111540580Y-133310000D01*
%TO.C,R8*%
X149762742Y-123477500D02*
X150237258Y-123477500D01*
X149762742Y-124522500D02*
X150237258Y-124522500D01*
%TO.C,C11*%
X118659420Y-132290000D02*
X118940580Y-132290000D01*
X118659420Y-133310000D02*
X118940580Y-133310000D01*
%TO.C,BZ1*%
X106100000Y-124399999D02*
G75*
G02*
X106100000Y-121400000I6400000J1499999D01*
G01*
X118730000Y-122900000D02*
G75*
G02*
X106270000Y-122900000I-6230000J0D01*
G01*
X106270000Y-122900000D02*
G75*
G02*
X118730000Y-122900000I6230000J0D01*
G01*
%TO.C,C3*%
X108859420Y-102490000D02*
X109140580Y-102490000D01*
X108859420Y-103510000D02*
X109140580Y-103510000D01*
%TO.C,R12*%
X126012742Y-119477500D02*
X126487258Y-119477500D01*
X126012742Y-120522500D02*
X126487258Y-120522500D01*
%TO.C,J4*%
X124620000Y-129380000D02*
X124620000Y-128000000D01*
X126000000Y-129380000D02*
X124620000Y-129380000D01*
X127270000Y-126620000D02*
X150240000Y-126620000D01*
X127270000Y-129380000D02*
X127270000Y-126620000D01*
X127270000Y-129380000D02*
X150240000Y-129380000D01*
X150240000Y-129380000D02*
X150240000Y-126620000D01*
%TO.C,C14*%
X140859420Y-132290000D02*
X141140580Y-132290000D01*
X140859420Y-133310000D02*
X141140580Y-133310000D01*
%TO.C,C7*%
X157859420Y-119790000D02*
X158140580Y-119790000D01*
X157859420Y-120810000D02*
X158140580Y-120810000D01*
%TO.C,C4*%
X108680000Y-110045000D02*
X108680000Y-111955000D01*
X108680000Y-111955000D02*
X112600000Y-111955000D01*
X112600000Y-110045000D02*
X108680000Y-110045000D01*
%TO.C,R14*%
X149637258Y-112677500D02*
X149162742Y-112677500D01*
X149637258Y-113722500D02*
X149162742Y-113722500D01*
%TO.C,C15*%
X148259420Y-132290000D02*
X148540580Y-132290000D01*
X148259420Y-133310000D02*
X148540580Y-133310000D01*
%TO.C,C16*%
X155659420Y-132290000D02*
X155940580Y-132290000D01*
X155659420Y-133310000D02*
X155940580Y-133310000D01*
%TD*%
M02*
