M48
; DRILL file KiCad 10.0.6 date 2026-09-10T19:54:18
; FORMAT={-:-/ absolute / metric / decimal}
; #@! TF.CreationDate,2026-09-10T19:54:18+09:00
; #@! TF.GenerationSoftware,Kicad,Pcbnew,10.0.6
; #@! TF.FileFunction,Plated,1,2,PTH
FMAT,2
METRIC
; #@! TA.AperFunction,Plated,PTH,ViaDrill
T1C0.300
; #@! TA.AperFunction,Plated,PTH,ComponentDrill
T2C0.300
; #@! TA.AperFunction,Plated,PTH,ComponentDrill
T3C0.600
; #@! TA.AperFunction,Plated,PTH,ComponentDrill
T4C1.000
%
G90
G05
T1
X102.482Y-137.218
X102.98Y-134.85
X105.196Y-101.453
X107.379Y-133.921
X110.779Y-106.229
X112.898Y-135.802
X116.444Y-137.194
X117.661Y-134.85
X120.137Y-121.012
X120.317Y-133.917
X121.184Y-109.79
X121.279Y-119.42
X121.368Y-126.255
X121.662Y-117.112
X121.789Y-131.236
X122.143Y-124.438
X122.802Y-108.954
X123.462Y-120.112
X123.938Y-116.775
X125.235Y-116.508
X125.646Y-121.012
X126.043Y-109.764
X126.587Y-121.561
X130.002Y-112.347
X130.037Y-115.991
X130.041Y-113.734
X130.526Y-118.45
X130.704Y-110.95
X132.844Y-124.307
X134.825Y-120.304
X135.195Y-125.03
X141.832Y-124.307
X141.883Y-107.434
X144.989Y-108.934
X144.989Y-110.434
X144.989Y-111.934
X144.989Y-117.934
X145.198Y-120.098
X147.504Y-112.246
X147.516Y-116.599
X147.9Y-109.938
X148.439Y-117.536
X149.5Y-110.137
X150.45Y-114.337
X150.555Y-109.35
X150.85Y-110.938
X151.5Y-107.137
X151.52Y-109.55
X151.688Y-117.451
X151.72Y-115.15
X151.755Y-111.95
X154.188Y-110.299
X154.293Y-135.793
X154.956Y-137.184
X155.246Y-112.8
X156.26Y-120.944
X158.25Y-133.89
T2
X137.36Y-112.85
X137.36Y-113.95
X137.91Y-112.3
X137.91Y-113.4
X137.91Y-114.5
X138.46Y-112.85
X138.46Y-113.95
X139.01Y-112.3
X139.01Y-113.4
X139.01Y-114.5
X139.56Y-112.85
X139.56Y-113.95
T4
X110.0Y-114.5
X110.0Y-122.9
X112.54Y-114.5
X115.0Y-122.9
X115.08Y-114.5
X117.62Y-114.5
X126.0Y-128.0
X128.54Y-128.0
X131.08Y-128.0
X133.62Y-128.0
X136.16Y-128.0
X138.7Y-128.0
X141.24Y-128.0
X143.78Y-128.0
X146.32Y-128.0
X148.86Y-128.0
T3
X153.32Y-107.68G85X154.42Y-107.68
G05
X153.32Y-116.32G85X154.42Y-116.32
G05
X157.75Y-107.68G85X158.35Y-107.68
G05
X157.75Y-116.32G85X158.35Y-116.32
G05
M30
